<?xml version="1.0" encoding="UTF-8" standalone="no"?>
<!DOCTYPE svg PUBLIC "-//W3C//DTD SVG 1.1//EN"
 "http://www.w3.org/Graphics/SVG/1.1/DTD/svg11.dtd">
<!-- Generated by graphviz version 2.43.0 (0)
 -->
<!-- Title: bundle_architecture Pages: 1 -->
<svg width="2930pt" height="1117pt"
 viewBox="0.00 0.00 2930.40 1116.56" xmlns="http://www.w3.org/2000/svg" xmlns:xlink="http://www.w3.org/1999/xlink">
<g id="graph0" class="graph" transform="scale(1 1) rotate(0) translate(43.2 1073.36)">
<title>bundle_architecture</title>
<polygon fill="white" stroke="transparent" points="-43.2,43.2 -43.2,-1073.36 2887.2,-1073.36 2887.2,43.2 -43.2,43.2"/>
<text text-anchor="start" x="1225.5" y="-1015.96" font-family="Helvetica,sans-Serif" font-weight="bold" font-size="14.00">amplifier&#45;bundle&#45;dot&#45;graph — Bundle Architecture</text>
<text text-anchor="start" x="1240.5" y="-1001.96" font-family="Helvetica,sans-Serif" font-size="14.00"> &#160;&#160;&#160;&#160;&#160;&#160;&#160;&#160;&#160;&#160;</text>
<text text-anchor="start" x="1290.5" y="-1001.96" font-family="Helvetica,sans-Serif" font-size="11.00">DOT/Graphviz Infrastructure for the Amplifier Ecosystem</text>
<g id="clust1" class="cluster">
<title>cluster_behavior</title>
<path fill="#f5f5f5" stroke="#78909c" stroke-width="2" d="M1735,-809.66C1735,-809.66 1975,-809.66 1975,-809.66 1981,-809.66 1987,-815.66 1987,-821.66 1987,-821.66 1987,-873.66 1987,-873.66 1987,-879.66 1981,-885.66 1975,-885.66 1975,-885.66 1735,-885.66 1735,-885.66 1729,-885.66 1723,-879.66 1723,-873.66 1723,-873.66 1723,-821.66 1723,-821.66 1723,-815.66 1729,-809.66 1735,-809.66"/>
<text text-anchor="start" x="1753" y="-871.46" font-family="Helvetica,sans-Serif" font-weight="bold" font-size="14.00">behaviors/dot&#45;graph.yaml</text>
</g>
<g id="clust2" class="cluster">
<title>cluster_agents</title>
<path fill="#fff3e0" stroke="#e65100" stroke-width="2" d="M1486,-681.16C1486,-681.16 1976,-681.16 1976,-681.16 1982,-681.16 1988,-687.16 1988,-693.16 1988,-693.16 1988,-754.16 1988,-754.16 1988,-760.16 1982,-766.16 1976,-766.16 1976,-766.16 1486,-766.16 1486,-766.16 1480,-766.16 1474,-760.16 1474,-754.16 1474,-754.16 1474,-693.16 1474,-693.16 1474,-687.16 1480,-681.16 1486,-681.16"/>
<text text-anchor="start" x="1701" y="-751.96" font-family="Helvetica,sans-Serif" font-weight="bold" font-size="14.00">agents/</text>
</g>
<g id="clust3" class="cluster">
<title>cluster_tier2</title>
<path fill="#e8f5e9" stroke="#2e7d32" stroke-width="2" d="M20,-519C20,-519 855,-519 855,-519 861,-519 867,-525 867,-531 867,-531 867,-762.66 867,-762.66 867,-768.66 861,-774.66 855,-774.66 855,-774.66 20,-774.66 20,-774.66 14,-774.66 8,-768.66 8,-762.66 8,-762.66 8,-531 8,-531 8,-525 14,-519 20,-519"/>
<text text-anchor="start" x="313" y="-760.46" font-family="Helvetica,sans-Serif" font-weight="bold" font-size="14.00">Tier 2 — Validation &amp; Rendering</text>
<text text-anchor="start" x="307" y="-746.46" font-family="Helvetica,sans-Serif" font-size="14.00"> &#160;&#160;&#160;&#160;&#160;&#160;&#160;&#160;&#160;&#160;&#160;&#160;&#160;&#160;</text>
<text text-anchor="start" x="375" y="-746.46" font-family="Helvetica,sans-Serif" font-size="9.00">modules/tool&#45;dot&#45;graph &#160;(Python package)</text>
</g>
<g id="clust4" class="cluster">
<title>cluster_tier1</title>
<path fill="#e3f2fd" stroke="#1565c0" stroke-width="2" d="M891,-519.16C891,-519.16 2656,-519.16 2656,-519.16 2662,-519.16 2668,-525.16 2668,-531.16 2668,-531.16 2668,-634.16 2668,-634.16 2668,-640.16 2662,-646.16 2656,-646.16 2656,-646.16 891,-646.16 891,-646.16 885,-646.16 879,-640.16 879,-634.16 879,-634.16 879,-531.16 879,-531.16 879,-525.16 885,-519.16 891,-519.16"/>
<text text-anchor="start" x="1672" y="-631.96" font-family="Helvetica,sans-Serif" font-weight="bold" font-size="14.00">Tier 1 — Knowledge Layer</text>
<text text-anchor="start" x="1623" y="-617.96" font-family="Helvetica,sans-Serif" font-size="14.00"> &#160;&#160;&#160;&#160;&#160;&#160;&#160;&#160;&#160;&#160;&#160;&#160;&#160;&#160;</text>
<text text-anchor="start" x="1691" y="-617.96" font-family="Helvetica,sans-Serif" font-size="9.00">Zero&#45;dependency: works without Graphviz installed</text>
</g>
<g id="clust5" class="cluster">
<title>cluster_skills</title>
<path fill="#bbdefb" stroke="#1976d2" stroke-width="2" d="M899,-527.16C899,-527.16 1469,-527.16 1469,-527.16 1475,-527.16 1481,-533.16 1481,-539.16 1481,-539.16 1481,-590.16 1481,-590.16 1481,-596.16 1475,-602.16 1469,-602.16 1469,-602.16 899,-602.16 899,-602.16 893,-602.16 887,-596.16 887,-590.16 887,-590.16 887,-539.16 887,-539.16 887,-533.16 893,-527.16 899,-527.16"/>
<text text-anchor="start" x="1161.5" y="-587.96" font-family="Helvetica,sans-Serif" font-weight="bold" font-size="14.00">skills/</text>
</g>
<g id="clust6" class="cluster">
<title>cluster_docs</title>
<path fill="#b3e5fc" stroke="#0288d1" stroke-width="2" d="M1513,-527.16C1513,-527.16 2356,-527.16 2356,-527.16 2362,-527.16 2368,-533.16 2368,-539.16 2368,-539.16 2368,-590.16 2368,-590.16 2368,-596.16 2362,-602.16 2356,-602.16 2356,-602.16 1513,-602.16 1513,-602.16 1507,-602.16 1501,-596.16 1501,-590.16 1501,-590.16 1501,-539.16 1501,-539.16 1501,-533.16 1507,-527.16 1513,-527.16"/>
<text text-anchor="start" x="1913.5" y="-587.96" font-family="Helvetica,sans-Serif" font-weight="bold" font-size="14.00">docs/</text>
</g>
<g id="clust7" class="cluster">
<title>cluster_context</title>
<path fill="#b2ebf2" stroke="#0097a7" stroke-width="2" d="M2401,-527.16C2401,-527.16 2648,-527.16 2648,-527.16 2654,-527.16 2660,-533.16 2660,-539.16 2660,-539.16 2660,-590.16 2660,-590.16 2660,-596.16 2654,-602.16 2648,-602.16 2648,-602.16 2401,-602.16 2401,-602.16 2395,-602.16 2389,-596.16 2389,-590.16 2389,-590.16 2389,-539.16 2389,-539.16 2389,-533.16 2395,-527.16 2401,-527.16"/>
<text text-anchor="start" x="2491.5" y="-587.96" font-family="Helvetica,sans-Serif" font-weight="bold" font-size="14.00">context/</text>
</g>
<g id="clust8" class="cluster">
<title>cluster_legend</title>
<path fill="#fafafa" stroke="#9e9e9e" d="M2688,-8C2688,-8 2824,-8 2824,-8 2830,-8 2836,-14 2836,-20 2836,-20 2836,-974.16 2836,-974.16 2836,-980.16 2830,-986.16 2824,-986.16 2824,-986.16 2688,-986.16 2688,-986.16 2682,-986.16 2676,-980.16 2676,-974.16 2676,-974.16 2676,-20 2676,-20 2676,-14 2682,-8 2688,-8"/>
<text text-anchor="start" x="2733.5" y="-974.36" font-family="Helvetica,sans-Serif" font-weight="bold" font-size="11.00">Legend</text>
</g>
<!-- bundle_md -->
<g id="node1" class="node">
<title>bundle_md</title>
<polygon fill="#eceff1" stroke="#607d8b" points="1988,-965.66 1734,-965.66 1734,-969.66 1722,-969.66 1722,-928.66 1988,-928.66 1988,-965.66"/>
<polyline fill="none" stroke="#607d8b" points="1722,-965.66 1734,-965.66 "/>
<text text-anchor="start" x="1824.5" y="-954.66" font-family="Helvetica,sans-Serif" font-weight="bold" font-size="10.00">bundle.md</text>
<text text-anchor="start" x="1776" y="-944.66" font-family="Helvetica,sans-Serif" font-size="10.00"> &#160;&#160;&#160;&#160;&#160;&#160;&#160;&#160;&#160;&#160;&#160;&#160;&#160;&#160;</text>
<text text-anchor="start" x="1822" y="-944.66" font-family="Helvetica,sans-Serif" font-size="9.00">name: dot&#45;graph &#160;v0.1.0</text>
<text text-anchor="start" x="1730" y="-935.46" font-family="Helvetica,sans-Serif" font-size="9.00"> &#160;&#160;&#160;&#160;&#160;&#160;&#160;&#160;&#160;&#160;&#160;&#160;&#160;&#160;General&#45;purpose DOT/Graphviz infrastructure</text>
</g>
<!-- behavior -->
<g id="node2" class="node">
<title>behavior</title>
<polygon fill="#eceff1" stroke="#607d8b" points="1979,-854.66 1731,-854.66 1731,-850.66 1727,-850.66 1727,-846.66 1731,-846.66 1731,-825.66 1727,-825.66 1727,-821.66 1731,-821.66 1731,-817.66 1979,-817.66 1979,-854.66"/>
<polyline fill="none" stroke="#607d8b" points="1731,-850.66 1735,-850.66 1735,-846.66 1731,-846.66 "/>
<polyline fill="none" stroke="#607d8b" points="1731,-825.66 1735,-825.66 1735,-821.66 1731,-821.66 "/>
<text text-anchor="start" x="1799" y="-843.66" font-family="Helvetica,sans-Serif" font-weight="bold" font-size="10.00">dot&#45;graph behavior</text>
<text text-anchor="start" x="1739" y="-833.66" font-family="Helvetica,sans-Serif" font-size="10.00"> &#160;&#160;&#160;&#160;&#160;&#160;&#160;&#160;&#160;&#160;&#160;&#160;&#160;&#160;&#160;&#160;&#160;</text>
<text text-anchor="start" x="1794" y="-833.66" font-family="Helvetica,sans-Serif" font-size="9.00">Wires: agents + tool module + context</text>
<text text-anchor="start" x="1743.5" y="-824.46" font-family="Helvetica,sans-Serif" font-size="9.00"> &#160;&#160;&#160;&#160;&#160;&#160;&#160;&#160;&#160;&#160;&#160;&#160;&#160;&#160;&#160;&#160;&#160;Any bundle can include this behavior</text>
</g>
<!-- bundle_md&#45;&gt;behavior -->
<g id="edge1" class="edge">
<title>bundle_md&#45;&gt;behavior</title>
<path fill="none" stroke="#78909c" stroke-dasharray="5,2" d="M1855,-928.65C1855,-911.51 1855,-885.13 1855,-865.09"/>
<polygon fill="#78909c" stroke="#78909c" points="1858.5,-864.99 1855,-854.99 1851.5,-864.99 1858.5,-864.99"/>
<text text-anchor="middle" x="1877" y="-896.46" font-family="Helvetica,sans-Serif" font-size="9.00"> &#160;includes</text>
</g>
<!-- dot_author -->
<g id="node3" class="node">
<title>dot_author</title>
<path fill="#ffe0b2" stroke="#e65100" d="M1682,-735.16C1682,-735.16 1494,-735.16 1494,-735.16 1488,-735.16 1482,-729.16 1482,-723.16 1482,-723.16 1482,-701.16 1482,-701.16 1482,-695.16 1488,-689.16 1494,-689.16 1494,-689.16 1682,-689.16 1682,-689.16 1688,-689.16 1694,-695.16 1694,-701.16 1694,-701.16 1694,-723.16 1694,-723.16 1694,-729.16 1688,-735.16 1682,-735.16"/>
<text text-anchor="start" x="1557.5" y="-724.16" font-family="Helvetica,sans-Serif" font-weight="bold" font-size="10.00">dot&#45;author</text>
<text text-anchor="start" x="1493.5" y="-714.16" font-family="Helvetica,sans-Serif" font-size="10.00"> &#160;&#160;&#160;&#160;&#160;&#160;&#160;&#160;&#160;&#160;&#160;&#160;&#160;&#160;&#160;&#160;&#160;&#160;&#160;</text>
<text text-anchor="start" x="1554.5" y="-714.16" font-family="Helvetica,sans-Serif" font-size="9.00">Expert DOT/Graphviz author</text>
<text text-anchor="start" x="1490" y="-704.96" font-family="Helvetica,sans-Serif" font-size="9.00"> &#160;&#160;&#160;&#160;&#160;&#160;&#160;&#160;&#160;&#160;&#160;&#160;&#160;&#160;&#160;&#160;&#160;&#160;&#160;Create · Edit · Refine · Explain</text>
<text text-anchor="start" x="1515" y="-695.96" font-family="Helvetica,sans-Serif" font-size="9.00"> &#160;&#160;&#160;&#160;&#160;&#160;&#160;&#160;&#160;&#160;&#160;&#160;&#160;&#160;&#160;&#160;&#160;&#160;&#160;model_role: coding</text>
</g>
<!-- behavior&#45;&gt;dot_author -->
<g id="edge2" class="edge">
<title>behavior&#45;&gt;dot_author</title>
<path fill="none" stroke="#e65100" stroke-dasharray="5,2" d="M1811.53,-817.57C1783.03,-805.84 1745.07,-789.84 1712,-774.66 1688.21,-763.74 1662.21,-750.98 1640.19,-739.92"/>
<polygon fill="#e65100" stroke="#e65100" points="1641.52,-736.67 1631.02,-735.29 1638.37,-742.92 1641.52,-736.67"/>
<text text-anchor="middle" x="1769" y="-785.46" font-family="Helvetica,sans-Serif" font-size="9.00">includes</text>
</g>
<!-- diagram_reviewer -->
<g id="node4" class="node">
<title>diagram_reviewer</title>
<path fill="#ffccbc" stroke="#bf360c" d="M1968,-735.16C1968,-735.16 1742,-735.16 1742,-735.16 1736,-735.16 1730,-729.16 1730,-723.16 1730,-723.16 1730,-701.16 1730,-701.16 1730,-695.16 1736,-689.16 1742,-689.16 1742,-689.16 1968,-689.16 1968,-689.16 1974,-689.16 1980,-695.16 1980,-701.16 1980,-701.16 1980,-723.16 1980,-723.16 1980,-729.16 1974,-735.16 1968,-735.16"/>
<text text-anchor="start" x="1803.5" y="-724.16" font-family="Helvetica,sans-Serif" font-weight="bold" font-size="10.00">diagram&#45;reviewer</text>
<text text-anchor="start" x="1756.5" y="-714.16" font-family="Helvetica,sans-Serif" font-size="10.00"> &#160;&#160;&#160;&#160;&#160;&#160;&#160;&#160;&#160;&#160;&#160;&#160;&#160;&#160;&#160;&#160;&#160;&#160;&#160;&#160;&#160;&#160;&#160;&#160;&#160;</text>
<text text-anchor="start" x="1835.5" y="-714.16" font-family="Helvetica,sans-Serif" font-size="9.00">Objective quality reviewer</text>
<text text-anchor="start" x="1738" y="-704.96" font-family="Helvetica,sans-Serif" font-size="9.00"> &#160;&#160;&#160;&#160;&#160;&#160;&#160;&#160;&#160;&#160;&#160;&#160;&#160;&#160;&#160;&#160;&#160;&#160;&#160;&#160;&#160;&#160;&#160;&#160;&#160;5&#45;level checklist · PASS/WARN/FAIL</text>
<text text-anchor="start" x="1771" y="-695.96" font-family="Helvetica,sans-Serif" font-size="9.00"> &#160;&#160;&#160;&#160;&#160;&#160;&#160;&#160;&#160;&#160;&#160;&#160;&#160;&#160;&#160;&#160;&#160;&#160;&#160;&#160;&#160;&#160;&#160;&#160;&#160;model_role: critique</text>
</g>
<!-- behavior&#45;&gt;diagram_reviewer -->
<g id="edge3" class="edge">
<title>behavior&#45;&gt;diagram_reviewer</title>
<path fill="none" stroke="#bf360c" stroke-dasharray="5,2" d="M1855,-817.42C1855,-798.63 1855,-768.54 1855,-745.5"/>
<polygon fill="#bf360c" stroke="#bf360c" points="1858.5,-745.48 1855,-735.48 1851.5,-745.48 1858.5,-745.48"/>
<text text-anchor="middle" x="1874" y="-785.46" font-family="Helvetica,sans-Serif" font-size="9.00">includes</text>
</g>
<!-- tool_module -->
<g id="node5" class="node">
<title>tool_module</title>
<polygon fill="#dcedc8" stroke="#558b2f" points="710,-730.66 492,-730.66 492,-726.66 488,-726.66 488,-722.66 492,-722.66 492,-701.66 488,-701.66 488,-697.66 492,-697.66 492,-693.66 710,-693.66 710,-730.66"/>
<polyline fill="none" stroke="#558b2f" points="492,-726.66 496,-726.66 496,-722.66 492,-722.66 "/>
<polyline fill="none" stroke="#558b2f" points="492,-701.66 496,-701.66 496,-697.66 492,-697.66 "/>
<text text-anchor="start" x="559" y="-719.66" font-family="Helvetica,sans-Serif" font-weight="bold" font-size="10.00">tool&#45;dot&#45;graph</text>
<text text-anchor="start" x="500" y="-709.66" font-family="Helvetica,sans-Serif" font-size="10.00"> &#160;&#160;&#160;&#160;&#160;&#160;&#160;&#160;&#160;&#160;&#160;&#160;&#160;&#160;&#160;&#160;&#160;&#160;&#160;&#160;</text>
<text text-anchor="start" x="564" y="-709.66" font-family="Helvetica,sans-Serif" font-size="9.00">pyproject.toml · pip installable</text>
<text text-anchor="start" x="500.5" y="-700.46" font-family="Helvetica,sans-Serif" font-size="9.00"> &#160;&#160;&#160;&#160;&#160;&#160;&#160;&#160;&#160;&#160;&#160;&#160;&#160;&#160;&#160;&#160;&#160;&#160;&#160;&#160;Graphviz wrapper + NetworkX</text>
</g>
<!-- behavior&#45;&gt;tool_module -->
<g id="edge8" class="edge">
<title>behavior&#45;&gt;tool_module</title>
<path fill="none" stroke="#2e7d32" stroke-dasharray="5,2" d="M1730.75,-823.08C1488.91,-799.55 957.86,-747.88 720.15,-724.75"/>
<polygon fill="#2e7d32" stroke="#2e7d32" points="720.38,-721.26 710.09,-723.78 719.7,-728.23 720.38,-721.26"/>
<text text-anchor="middle" x="1425.5" y="-785.46" font-family="Helvetica,sans-Serif" font-size="9.00">tools:</text>
</g>
<!-- ctx_awareness -->
<g id="node20" class="node">
<title>ctx_awareness</title>
<polygon fill="#e0f7fa" stroke="#00838f" points="2497.5,-571.16 2396.5,-571.16 2396.5,-535.16 2503.5,-535.16 2503.5,-565.16 2497.5,-571.16"/>
<polyline fill="none" stroke="#00838f" points="2497.5,-571.16 2497.5,-565.16 "/>
<polyline fill="none" stroke="#00838f" points="2503.5,-565.16 2497.5,-565.16 "/>
<text text-anchor="middle" x="2450" y="-550.66" font-family="Helvetica,sans-Serif" font-size="10.00">dot&#45;awareness.md</text>
</g>
<!-- behavior&#45;&gt;ctx_awareness -->
<g id="edge9" class="edge">
<title>behavior&#45;&gt;ctx_awareness</title>
<path fill="none" stroke="#0097a7" stroke-dasharray="5,2" d="M1906.04,-817.53C2033.49,-773.38 2356.93,-660.61 2377,-646.16 2401.51,-628.53 2422.09,-600.51 2435.09,-580.02"/>
<polygon fill="#0097a7" stroke="#0097a7" points="2438.08,-581.83 2440.35,-571.48 2432.12,-578.16 2438.08,-581.83"/>
<text text-anchor="middle" x="2332" y="-709.96" font-family="Helvetica,sans-Serif" font-size="9.00">context: awareness</text>
</g>
<!-- ctx_instructions -->
<g id="node21" class="node">
<title>ctx_instructions</title>
<polygon fill="#e0f7fa" stroke="#00838f" points="2646,-571.16 2540,-571.16 2540,-535.16 2652,-535.16 2652,-565.16 2646,-571.16"/>
<polyline fill="none" stroke="#00838f" points="2646,-571.16 2646,-565.16 "/>
<polyline fill="none" stroke="#00838f" points="2652,-565.16 2646,-565.16 "/>
<text text-anchor="middle" x="2596" y="-550.66" font-family="Helvetica,sans-Serif" font-size="10.00">dot&#45;instructions.md</text>
</g>
<!-- behavior&#45;&gt;ctx_instructions -->
<g id="edge20" class="edge">
<title>behavior&#45;&gt;ctx_instructions</title>
<path fill="none" stroke="#0097a7" stroke-dasharray="5,2" d="M1979.29,-829.98C2112.8,-822.83 2315.19,-806.98 2385,-774.66 2477.83,-731.69 2550.65,-628.13 2580.84,-579.8"/>
<polygon fill="#0097a7" stroke="#0097a7" points="2583.89,-581.53 2586.14,-571.18 2577.92,-577.87 2583.89,-581.53"/>
<text text-anchor="middle" x="2550" y="-709.96" font-family="Helvetica,sans-Serif" font-size="9.00">context: instructions</text>
</g>
<!-- sk_syntax -->
<g id="node10" class="node">
<title>sk_syntax</title>
<polygon fill="#e3f2fd" stroke="#1976d2" points="1253.5,-571.16 1196.5,-571.16 1196.5,-575.16 1184.5,-575.16 1184.5,-535.16 1253.5,-535.16 1253.5,-571.16"/>
<polyline fill="none" stroke="#1976d2" points="1184.5,-571.16 1196.5,-571.16 "/>
<text text-anchor="middle" x="1219" y="-550.66" font-family="Helvetica,sans-Serif" font-size="10.00">dot&#45;syntax</text>
</g>
<!-- dot_author&#45;&gt;sk_syntax -->
<g id="edge10" class="edge">
<title>dot_author&#45;&gt;sk_syntax</title>
<path fill="none" stroke="#90caf9" stroke-dasharray="5,2" d="M1481.95,-702.48C1427.61,-695.82 1361.05,-684.23 1304,-664.16 1288.61,-658.75 1283.6,-657.64 1272,-646.16 1253.06,-627.42 1238.61,-600.5 1229.62,-580.62"/>
<polygon fill="#90caf9" stroke="#90caf9" points="1232.73,-579 1225.53,-571.22 1226.31,-581.79 1232.73,-579"/>
<text text-anchor="middle" x="1346.5" y="-656.96" font-family="Helvetica,sans-Serif" font-size="9.00"> &#160;loads on demand</text>
</g>
<!-- sk_patterns -->
<g id="node11" class="node">
<title>sk_patterns</title>
<polygon fill="#e3f2fd" stroke="#1976d2" points="1366.5,-571.16 1301.5,-571.16 1301.5,-575.16 1289.5,-575.16 1289.5,-535.16 1366.5,-535.16 1366.5,-571.16"/>
<polyline fill="none" stroke="#1976d2" points="1289.5,-571.16 1301.5,-571.16 "/>
<text text-anchor="middle" x="1328" y="-550.66" font-family="Helvetica,sans-Serif" font-size="10.00">dot&#45;patterns</text>
</g>
<!-- dot_author&#45;&gt;sk_patterns -->
<g id="edge11" class="edge">
<title>dot_author&#45;&gt;sk_patterns</title>
<path fill="none" stroke="#90caf9" stroke-dasharray="5,2" d="M1481.78,-692.28C1448.36,-682.56 1412.93,-667.97 1385,-646.16 1363.24,-629.17 1347.68,-601.37 1338.37,-580.77"/>
<polygon fill="#90caf9" stroke="#90caf9" points="1341.47,-579.12 1334.3,-571.31 1335.04,-581.88 1341.47,-579.12"/>
</g>
<!-- sk_analysis -->
<g id="node12" class="node">
<title>sk_analysis</title>
<polygon fill="#e3f2fd" stroke="#1976d2" points="987,-571.16 907,-571.16 907,-575.16 895,-575.16 895,-535.16 987,-535.16 987,-571.16"/>
<polyline fill="none" stroke="#1976d2" points="895,-571.16 907,-571.16 "/>
<text text-anchor="middle" x="941" y="-550.66" font-family="Helvetica,sans-Serif" font-size="10.00">dot&#45;as&#45;analysis</text>
</g>
<!-- dot_author&#45;&gt;sk_analysis -->
<g id="edge16" class="edge">
<title>dot_author&#45;&gt;sk_analysis</title>
<path fill="none" stroke="#90caf9" stroke-dasharray="5,2" d="M1481.76,-709.59C1336.26,-705.7 1084.13,-692.31 1006,-646.16 980.74,-631.24 962.76,-602.21 952.21,-580.74"/>
<polygon fill="#90caf9" stroke="#90caf9" points="955.28,-579.06 947.88,-571.48 948.94,-582.02 955.28,-579.06"/>
</g>
<!-- sk_intel -->
<g id="node14" class="node">
<title>sk_intel</title>
<polygon fill="#e3f2fd" stroke="#1976d2" points="1148.5,-571.16 1035.5,-571.16 1035.5,-575.16 1023.5,-575.16 1023.5,-535.16 1148.5,-535.16 1148.5,-571.16"/>
<polyline fill="none" stroke="#1976d2" points="1023.5,-571.16 1035.5,-571.16 "/>
<text text-anchor="middle" x="1086" y="-550.66" font-family="Helvetica,sans-Serif" font-size="10.00">dot&#45;graph&#45;intelligence</text>
</g>
<!-- dot_author&#45;&gt;sk_intel -->
<g id="edge17" class="edge">
<title>dot_author&#45;&gt;sk_intel</title>
<path fill="none" stroke="#90caf9" stroke-dasharray="5,2" d="M1481.54,-703.21C1374.95,-693.76 1219.46,-675.46 1167,-646.16 1138.88,-630.46 1115.69,-601.16 1101.44,-579.83"/>
<polygon fill="#90caf9" stroke="#90caf9" points="1104.25,-577.74 1095.89,-571.24 1098.37,-581.54 1104.25,-577.74"/>
</g>
<!-- doc_syntax -->
<g id="node15" class="node">
<title>doc_syntax</title>
<polygon fill="#e1f5fe" stroke="#0277bd" points="1661,-571.16 1509,-571.16 1509,-535.16 1667,-535.16 1667,-565.16 1661,-571.16"/>
<polyline fill="none" stroke="#0277bd" points="1661,-571.16 1661,-565.16 "/>
<polyline fill="none" stroke="#0277bd" points="1667,-565.16 1661,-565.16 "/>
<text text-anchor="middle" x="1588" y="-550.66" font-family="Helvetica,sans-Serif" font-size="10.00">DOT&#45;SYNTAX&#45;REFERENCE.md</text>
</g>
<!-- dot_author&#45;&gt;doc_syntax -->
<g id="edge12" class="edge">
<title>dot_author&#45;&gt;doc_syntax</title>
<path fill="none" stroke="#90caf9" stroke-dasharray="5,2" d="M1588,-689C1588,-660.85 1588,-612.26 1588,-581.74"/>
<polygon fill="#90caf9" stroke="#90caf9" points="1591.5,-581.38 1588,-571.38 1584.5,-581.38 1591.5,-581.38"/>
</g>
<!-- doc_patterns -->
<g id="node16" class="node">
<title>doc_patterns</title>
<polygon fill="#e1f5fe" stroke="#0277bd" points="1806.5,-571.16 1703.5,-571.16 1703.5,-535.16 1812.5,-535.16 1812.5,-565.16 1806.5,-571.16"/>
<polyline fill="none" stroke="#0277bd" points="1806.5,-571.16 1806.5,-565.16 "/>
<polyline fill="none" stroke="#0277bd" points="1812.5,-565.16 1806.5,-565.16 "/>
<text text-anchor="middle" x="1758" y="-550.66" font-family="Helvetica,sans-Serif" font-size="10.00">DOT&#45;PATTERNS.md</text>
</g>
<!-- dot_author&#45;&gt;doc_patterns -->
<g id="edge13" class="edge">
<title>dot_author&#45;&gt;doc_patterns</title>
<path fill="none" stroke="#90caf9" stroke-dasharray="5,2" d="M1626.85,-689C1645.44,-677.46 1667.42,-662.38 1685,-646.16 1706.7,-626.14 1727.21,-599.33 1740.93,-579.82"/>
<polygon fill="#90caf9" stroke="#90caf9" points="1743.93,-581.63 1746.74,-571.42 1738.17,-577.65 1743.93,-581.63"/>
</g>
<!-- doc_analysis -->
<g id="node19" class="node">
<title>doc_analysis</title>
<polygon fill="#e1f5fe" stroke="#0277bd" points="1997.5,-571.16 1848.5,-571.16 1848.5,-535.16 2003.5,-535.16 2003.5,-565.16 1997.5,-571.16"/>
<polyline fill="none" stroke="#0277bd" points="1997.5,-571.16 1997.5,-565.16 "/>
<polyline fill="none" stroke="#0277bd" points="2003.5,-565.16 1997.5,-565.16 "/>
<text text-anchor="middle" x="1926" y="-550.66" font-family="Helvetica,sans-Serif" font-size="10.00">GRAPH&#45;ANALYSIS&#45;GUIDE.md</text>
</g>
<!-- dot_author&#45;&gt;doc_analysis -->
<g id="edge18" class="edge">
<title>dot_author&#45;&gt;doc_analysis</title>
<path fill="none" stroke="#90caf9" stroke-dasharray="5,2" d="M1664.44,-689.13C1703.4,-678.15 1751.59,-664.96 1795,-654.16 1810.91,-650.21 1816.57,-653.93 1831,-646.16 1861.69,-629.63 1889.4,-600.34 1906.86,-579.25"/>
<polygon fill="#90caf9" stroke="#90caf9" points="1909.7,-581.31 1913.26,-571.33 1904.25,-576.91 1909.7,-581.31"/>
</g>
<!-- sk_quality -->
<g id="node13" class="node">
<title>sk_quality</title>
<polygon fill="#e3f2fd" stroke="#1976d2" points="1473,-571.16 1415,-571.16 1415,-575.16 1403,-575.16 1403,-535.16 1473,-535.16 1473,-571.16"/>
<polyline fill="none" stroke="#1976d2" points="1403,-571.16 1415,-571.16 "/>
<text text-anchor="middle" x="1438" y="-550.66" font-family="Helvetica,sans-Serif" font-size="10.00">dot&#45;quality</text>
</g>
<!-- diagram_reviewer&#45;&gt;sk_quality -->
<g id="edge14" class="edge">
<title>diagram_reviewer&#45;&gt;sk_quality</title>
<path fill="none" stroke="#ef9a9a" stroke-dasharray="5,2" d="M1752.79,-689.09C1739.1,-686.31 1725.22,-683.6 1712,-681.16 1614.63,-663.22 1573.78,-701.98 1492,-646.16 1469.15,-630.57 1454.59,-601.86 1446.41,-580.64"/>
<polygon fill="#ef9a9a" stroke="#ef9a9a" points="1449.69,-579.42 1443,-571.21 1443.11,-581.8 1449.69,-579.42"/>
<text text-anchor="middle" x="1561.5" y="-656.96" font-family="Helvetica,sans-Serif" font-size="9.00"> &#160;loads on demand</text>
</g>
<!-- doc_quality -->
<g id="node17" class="node">
<title>doc_quality</title>
<polygon fill="#e1f5fe" stroke="#0277bd" points="2198,-571.16 2040,-571.16 2040,-535.16 2204,-535.16 2204,-565.16 2198,-571.16"/>
<polyline fill="none" stroke="#0277bd" points="2198,-571.16 2198,-565.16 "/>
<polyline fill="none" stroke="#0277bd" points="2204,-565.16 2198,-565.16 "/>
<text text-anchor="middle" x="2122" y="-550.66" font-family="Helvetica,sans-Serif" font-size="10.00">DOT&#45;QUALITY&#45;STANDARDS.md</text>
</g>
<!-- diagram_reviewer&#45;&gt;doc_quality -->
<g id="edge15" class="edge">
<title>diagram_reviewer&#45;&gt;doc_quality</title>
<path fill="none" stroke="#ef9a9a" stroke-dasharray="5,2" d="M1928.9,-689.08C1958.99,-678.42 1993.35,-664.02 2022,-646.16 2051.87,-627.54 2080.89,-599.38 2099.9,-579.12"/>
<polygon fill="#ef9a9a" stroke="#ef9a9a" points="2102.71,-581.23 2106.92,-571.51 2097.57,-576.48 2102.71,-581.23"/>
</g>
<!-- doc_setup -->
<g id="node18" class="node">
<title>doc_setup</title>
<polygon fill="#e1f5fe" stroke="#0277bd" points="2354,-571.16 2240,-571.16 2240,-535.16 2360,-535.16 2360,-565.16 2354,-571.16"/>
<polyline fill="none" stroke="#0277bd" points="2354,-571.16 2354,-565.16 "/>
<polyline fill="none" stroke="#0277bd" points="2360,-565.16 2354,-565.16 "/>
<text text-anchor="middle" x="2300" y="-550.66" font-family="Helvetica,sans-Serif" font-size="10.00">GRAPHVIZ&#45;SETUP.md</text>
</g>
<!-- diagram_reviewer&#45;&gt;doc_setup -->
<g id="edge19" class="edge">
<title>diagram_reviewer&#45;&gt;doc_setup</title>
<path fill="none" stroke="#ef9a9a" stroke-dasharray="5,2" d="M1938.83,-689.12C1988.3,-676.95 2052.32,-662.62 2110,-654.16 2134.69,-650.54 2199.75,-657.45 2222,-646.16 2250.43,-631.74 2272.63,-601.93 2285.96,-580.14"/>
<polygon fill="#ef9a9a" stroke="#ef9a9a" points="2289.07,-581.75 2291.12,-571.36 2283.04,-578.21 2289.07,-581.75"/>
</g>
<!-- dot_validate -->
<g id="node6" class="node">
<title>dot_validate</title>
<ellipse fill="#c8e6c9" stroke="#2e7d32" cx="601" cy="-553.16" rx="65.11" ry="19.18"/>
<text text-anchor="start" x="565.5" y="-555.66" font-family="Helvetica,sans-Serif" font-weight="bold" font-size="10.00">dot_validate</text>
<text text-anchor="start" x="563" y="-546.46" font-family="Helvetica,sans-Serif" font-size="9.00">Syntax checking</text>
</g>
<!-- tool_module&#45;&gt;dot_validate -->
<g id="edge4" class="edge">
<title>tool_module&#45;&gt;dot_validate</title>
<path fill="none" stroke="#81c784" stroke-dasharray="5,2" d="M601,-693.46C601,-663.47 601,-602.96 601,-572.53"/>
</g>
<!-- dot_render -->
<g id="node7" class="node">
<title>dot_render</title>
<ellipse fill="#c8e6c9" stroke="#2e7d32" cx="781" cy="-553.16" rx="78.48" ry="19.18"/>
<text text-anchor="start" x="749.5" y="-555.66" font-family="Helvetica,sans-Serif" font-weight="bold" font-size="10.00">dot_render</text>
<text text-anchor="start" x="733.5" y="-546.46" font-family="Helvetica,sans-Serif" font-size="9.00">PNG/SVG/PDF output</text>
</g>
<!-- tool_module&#45;&gt;dot_render -->
<g id="edge5" class="edge">
<title>tool_module&#45;&gt;dot_render</title>
<path fill="none" stroke="#81c784" stroke-dasharray="5,2" d="M624.73,-693.53C641.59,-680.77 664.6,-662.9 684,-646.16 712.65,-621.45 744.14,-590.91 763.24,-571.98"/>
</g>
<!-- dot_setup -->
<g id="node8" class="node">
<title>dot_setup</title>
<ellipse fill="#c8e6c9" stroke="#2e7d32" cx="98" cy="-553.16" rx="82.05" ry="19.18"/>
<text text-anchor="start" x="70" y="-555.66" font-family="Helvetica,sans-Serif" font-weight="bold" font-size="10.00">dot_setup</text>
<text text-anchor="start" x="48" y="-546.46" font-family="Helvetica,sans-Serif" font-size="9.00">Graphviz install check</text>
</g>
<!-- tool_module&#45;&gt;dot_setup -->
<g id="edge6" class="edge">
<title>tool_module&#45;&gt;dot_setup</title>
<path fill="none" stroke="#81c784" stroke-dasharray="5,2" d="M491.98,-710.43C407.86,-705.98 290.61,-691.11 198,-646.16 161.71,-628.55 129.28,-593.42 111.75,-572.03"/>
</g>
<!-- dot_analyze -->
<g id="node9" class="node">
<title>dot_analyze</title>
<ellipse fill="#a5d6a7" stroke="#1b5e20" cx="358" cy="-553.16" rx="142.26" ry="26.33"/>
<text text-anchor="start" x="324" y="-560.66" font-family="Helvetica,sans-Serif" font-weight="bold" font-size="10.00">dot_analyze</text>
<text text-anchor="start" x="265.5" y="-550.66" font-family="Helvetica,sans-Serif" font-size="10.00"> &#160;&#160;&#160;&#160;&#160;&#160;&#160;&#160;&#160;&#160;&#160;&#160;&#160;&#160;&#160;&#160;&#160;&#160;&#160;&#160;&#160;</text>
<text text-anchor="start" x="332.5" y="-550.66" font-family="Helvetica,sans-Serif" font-size="9.00">NetworkX&#45;backed analysis</text>
<text text-anchor="start" x="267.5" y="-541.46" font-family="Helvetica,sans-Serif" font-size="9.00"> &#160;&#160;&#160;&#160;&#160;&#160;&#160;&#160;&#160;&#160;&#160;&#160;&#160;&#160;&#160;&#160;&#160;&#160;&#160;&#160;&#160;paths · centrality · cycles</text>
</g>
<!-- tool_module&#45;&gt;dot_analyze -->
<g id="edge7" class="edge">
<title>tool_module&#45;&gt;dot_analyze</title>
<path fill="none" stroke="#66bb6a" stroke-dasharray="5,2" d="M573.6,-693.46C530.03,-665.31 444.87,-610.29 395.62,-578.47"/>
</g>
<!-- leg_bundle -->
<g id="node22" class="node">
<title>leg_bundle</title>
<polygon fill="#eceff1" stroke="black" points="2817,-958.16 2702.33,-958.16 2702.33,-960.61 2695,-960.61 2695,-936.16 2817,-936.16 2817,-958.16"/>
<polyline fill="none" stroke="black" points="2695,-958.16 2702.33,-958.16 "/>
<text text-anchor="middle" x="2756" y="-944.96" font-family="Helvetica,sans-Serif" font-size="9.00">Bundle manifest</text>
</g>
<!-- leg_comp -->
<g id="node23" class="node">
<title>leg_comp</title>
<polygon fill="#e0e0e0" stroke="black" points="2817,-847.16 2695,-847.16 2695,-844.72 2692.56,-844.72 2692.56,-842.27 2695,-842.27 2695,-830.05 2692.56,-830.05 2692.56,-827.61 2695,-827.61 2695,-825.16 2817,-825.16 2817,-847.16"/>
<polyline fill="none" stroke="black" points="2695,-844.72 2697.44,-844.72 2697.44,-842.27 2695,-842.27 "/>
<polyline fill="none" stroke="black" points="2695,-830.05 2697.44,-830.05 2697.44,-827.61 2695,-827.61 "/>
<text text-anchor="middle" x="2756" y="-833.96" font-family="Helvetica,sans-Serif" font-size="9.00">Behavior / wiring</text>
</g>
<!-- leg_bundle&#45;&gt;leg_comp -->
<!-- leg_agent -->
<g id="node24" class="node">
<title>leg_agent</title>
<path fill="#ffe0b2" stroke="black" d="M2809.67,-723.16C2809.67,-723.16 2702.33,-723.16 2702.33,-723.16 2698.67,-723.16 2695,-719.5 2695,-715.83 2695,-715.83 2695,-708.5 2695,-708.5 2695,-704.83 2698.67,-701.16 2702.33,-701.16 2702.33,-701.16 2809.67,-701.16 2809.67,-701.16 2813.33,-701.16 2817,-704.83 2817,-708.5 2817,-708.5 2817,-715.83 2817,-715.83 2817,-719.5 2813.33,-723.16 2809.67,-723.16"/>
<text text-anchor="middle" x="2756" y="-709.96" font-family="Helvetica,sans-Serif" font-size="9.00">Agent (delegatable)</text>
</g>
<!-- leg_comp&#45;&gt;leg_agent -->
<!-- leg_tool -->
<g id="node25" class="node">
<title>leg_tool</title>
<ellipse fill="#c8e6c9" stroke="black" cx="2756" cy="-553.16" rx="61" ry="12.96"/>
<text text-anchor="middle" x="2756" y="-550.96" font-family="Helvetica,sans-Serif" font-size="9.00">Tool function</text>
</g>
<!-- leg_agent&#45;&gt;leg_tool -->
<!-- leg_module -->
<g id="node26" class="node">
<title>leg_module</title>
<polygon fill="#dcedc8" stroke="black" points="2817,-476 2695,-476 2695,-473.56 2692.56,-473.56 2692.56,-471.11 2695,-471.11 2695,-458.89 2692.56,-458.89 2692.56,-456.44 2695,-456.44 2695,-454 2817,-454 2817,-476"/>
<polyline fill="none" stroke="black" points="2695,-473.56 2697.44,-473.56 2697.44,-471.11 2695,-471.11 "/>
<polyline fill="none" stroke="black" points="2695,-458.89 2697.44,-458.89 2697.44,-456.44 2695,-456.44 "/>
<text text-anchor="middle" x="2756" y="-462.8" font-family="Helvetica,sans-Serif" font-size="9.00">Python package</text>
</g>
<!-- leg_tool&#45;&gt;leg_module -->
<!-- leg_skill -->
<g id="node27" class="node">
<title>leg_skill</title>
<polygon fill="#e3f2fd" stroke="black" points="2817,-403 2702.33,-403 2702.33,-405.44 2695,-405.44 2695,-381 2817,-381 2817,-403"/>
<polyline fill="none" stroke="black" points="2695,-403 2702.33,-403 "/>
<text text-anchor="middle" x="2756" y="-389.8" font-family="Helvetica,sans-Serif" font-size="9.00">Skill / context file</text>
</g>
<!-- leg_module&#45;&gt;leg_skill -->
<!-- leg_doc -->
<g id="node28" class="node">
<title>leg_doc</title>
<polygon fill="#e1f5fe" stroke="black" points="2813.33,-330 2695,-330 2695,-308 2817,-308 2817,-326.33 2813.33,-330"/>
<polyline fill="none" stroke="black" points="2813.33,-330 2813.33,-326.33 "/>
<polyline fill="none" stroke="black" points="2817,-326.33 2813.33,-326.33 "/>
<text text-anchor="middle" x="2756" y="-316.8" font-family="Helvetica,sans-Serif" font-size="9.00">Reference document</text>
</g>
<!-- leg_skill&#45;&gt;leg_doc -->
<!-- leg_col1 -->
<g id="node29" class="node">
<title>leg_col1</title>
<polygon fill="lightgrey" stroke="transparent" points="2828,-257 2684,-257 2684,-235 2828,-235 2828,-257"/>
<text text-anchor="middle" x="2756" y="-243.8" font-family="Helvetica,sans-Serif" font-size="9.00" fill="#1565c0">Blue &#160;&#160;— Tier 1: Knowledge</text>
</g>
<!-- leg_doc&#45;&gt;leg_col1 -->
<!-- leg_col2 -->
<g id="node30" class="node">
<title>leg_col2</title>
<polygon fill="lightgrey" stroke="transparent" points="2828,-184 2684,-184 2684,-162 2828,-162 2828,-184"/>
<text text-anchor="middle" x="2756" y="-170.8" font-family="Helvetica,sans-Serif" font-size="9.00" fill="#2e7d32">Green &#160;— Tier 2: Tools</text>
</g>
<!-- leg_col1&#45;&gt;leg_col2 -->
<!-- leg_col3 -->
<g id="node31" class="node">
<title>leg_col3</title>
<polygon fill="lightgrey" stroke="transparent" points="2828,-111 2684,-111 2684,-89 2828,-89 2828,-111"/>
<text text-anchor="middle" x="2756" y="-97.8" font-family="Helvetica,sans-Serif" font-size="9.00" fill="#e65100">Orange — Agents</text>
</g>
<!-- leg_col2&#45;&gt;leg_col3 -->
<!-- leg_col4 -->
<g id="node32" class="node">
<title>leg_col4</title>
<polygon fill="lightgrey" stroke="transparent" points="2828,-38 2684,-38 2684,-16 2828,-16 2828,-38"/>
<text text-anchor="middle" x="2756" y="-24.8" font-family="Helvetica,sans-Serif" font-size="9.00" fill="#607d8b">Grey &#160;&#160;— Behavior / config</text>
</g>
<!-- leg_col3&#45;&gt;leg_col4 -->
</g>
</svg>
