<?xml version="1.0" encoding="UTF-8" standalone="no"?>
<!DOCTYPE svg PUBLIC "-//W3C//DTD SVG 1.1//EN"
 "http://www.w3.org/Graphics/SVG/1.1/DTD/svg11.dtd">
<!-- Generated by graphviz version 2.43.0 (0)
 -->
<!-- Title: dot_use_cases Pages: 1 -->
<svg width="2071pt" height="717pt"
 viewBox="0.00 0.00 2070.80 717.33" xmlns="http://www.w3.org/2000/svg" xmlns:xlink="http://www.w3.org/1999/xlink">
<g id="graph0" class="graph" transform="scale(1 1) rotate(0) translate(50.4 666.93)">
<title>dot_use_cases</title>
<polygon fill="white" stroke="transparent" points="-50.4,50.4 -50.4,-666.93 2020.4,-666.93 2020.4,50.4 -50.4,50.4"/>
<text text-anchor="start" x="770" y="-602.33" font-family="Helvetica,sans-Serif" font-weight="bold" font-size="14.00">DOT in the Amplifier Ecosystem — 7 Primary Use Cases</text>
<text text-anchor="start" x="808" y="-588.33" font-family="Helvetica,sans-Serif" font-size="14.00"> &#160;&#160;&#160;&#160;&#160;&#160;&#160;&#160;&#160;&#160;</text>
<text text-anchor="start" x="858" y="-588.33" font-family="Helvetica,sans-Serif" font-size="11.00">How graph representation creates value at every level</text>
<g id="clust2" class="cluster">
<title>cluster_legend</title>
<path fill="#fafafa" stroke="#9e9e9e" d="M1850,-8C1850,-8 1950,-8 1950,-8 1956,-8 1962,-14 1962,-20 1962,-20 1962,-543.53 1962,-543.53 1962,-549.53 1956,-555.53 1950,-555.53 1950,-555.53 1850,-555.53 1850,-555.53 1844,-555.53 1838,-549.53 1838,-543.53 1838,-543.53 1838,-20 1838,-20 1838,-14 1844,-8 1850,-8"/>
<text text-anchor="start" x="1879" y="-544.53" font-family="Helvetica,sans-Serif" font-weight="bold" font-size="10.00">Legend</text>
</g>
<g id="clust1" class="cluster">
<title>cluster_bundle_note</title>
<path fill="#fafafa" stroke="#607d8b" d="M1590,-193C1590,-193 1802,-193 1802,-193 1808,-193 1814,-199 1814,-205 1814,-205 1814,-287 1814,-287 1814,-293 1808,-299 1802,-299 1802,-299 1590,-299 1590,-299 1584,-299 1578,-293 1578,-287 1578,-287 1578,-205 1578,-205 1578,-199 1584,-193 1590,-193"/>
<text text-anchor="start" x="1592" y="-284.8" font-family="Helvetica,sans-Serif" font-weight="bold" font-size="14.00">dot&#45;graph bundle provides</text>
</g>
<!-- dot_medium -->
<g id="node1" class="node">
<title>dot_medium</title>
<ellipse fill="#1565c0" stroke="#0d47a1" stroke-width="2" cx="897" cy="-468.26" rx="112.03" ry="112.03"/>
<text text-anchor="start" x="856" y="-480.26" font-family="Helvetica,sans-Serif" font-weight="bold" font-size="10.00" fill="white">DOT Language</text>
<text text-anchor="start" x="815" y="-470.26" font-family="Helvetica,sans-Serif" font-size="10.00" fill="white"> &#160;&#160;&#160;&#160;&#160;&#160;&#160;&#160;&#160;&#160;&#160;&#160;&#160;&#160;&#160;</text>
<text text-anchor="start" x="864" y="-470.26" font-family="Helvetica,sans-Serif" font-size="9.00" fill="white">Graph description as text</text>
<text text-anchor="start" x="800" y="-461.06" font-family="Helvetica,sans-Serif" font-size="9.00" fill="white"> &#160;&#160;&#160;&#160;&#160;&#160;&#160;&#160;&#160;&#160;&#160;&#160;&#160;&#160;&#160;Parseable · Diffable · Versionable</text>
<text text-anchor="start" x="801.5" y="-452.06" font-family="Helvetica,sans-Serif" font-size="9.00" fill="white"> &#160;&#160;&#160;&#160;&#160;&#160;&#160;&#160;&#160;&#160;&#160;&#160;&#160;&#160;&#160;Renders as image, data, or text</text>
</g>
<!-- uc1 -->
<g id="node2" class="node">
<title>uc1</title>
<path fill="#e3f2fd" stroke="#1565c0" stroke-width="2" d="M168,-246C168,-246 12,-246 12,-246 6,-246 0,-240 0,-234 0,-234 0,-212 0,-212 0,-206 6,-200 12,-200 12,-200 168,-200 168,-200 174,-200 180,-206 180,-212 180,-212 180,-234 180,-234 180,-240 174,-246 168,-246"/>
<text text-anchor="start" x="20.5" y="-235" font-family="Helvetica,sans-Serif" font-weight="bold" font-size="10.00">1. Dense Representation</text>
<text text-anchor="start" x="8" y="-225" font-family="Helvetica,sans-Serif" font-size="10.00"> &#160;&#160;&#160;&#160;&#160;&#160;&#160;&#160;</text>
<text text-anchor="start" x="36" y="-225" font-family="Helvetica,sans-Serif" font-size="9.00">Encode complex structures in</text>
<text text-anchor="start" x="19.5" y="-215.8" font-family="Helvetica,sans-Serif" font-size="9.00"> &#160;&#160;&#160;&#160;&#160;&#160;&#160;&#160;compact, parseable text.</text>
<text text-anchor="start" x="18" y="-206.8" font-family="Helvetica,sans-Serif" font-size="9.00"> &#160;&#160;&#160;&#160;&#160;&#160;&#160;&#160;Full system in &lt;300 lines.</text>
</g>
<!-- dot_medium&#45;&gt;uc1 -->
<g id="edge1" class="edge">
<title>dot_medium&#45;&gt;uc1</title>
<path fill="none" stroke="#1565c0" stroke-width="2" d="M785.78,-451.24C656.32,-430.69 437.27,-389.99 257,-327 207.85,-309.83 157.86,-276.44 125.55,-252.33"/>
<polygon fill="#1565c0" stroke="#1565c0" stroke-width="2" points="127.42,-249.35 117.33,-246.1 123.19,-254.93 127.42,-249.35"/>
<text text-anchor="middle" x="278.5" y="-319.8" font-family="Helvetica,sans-Serif" font-size="9.00">compact</text>
<text text-anchor="middle" x="278.5" y="-309.8" font-family="Helvetica,sans-Serif" font-size="9.00">encoding</text>
</g>
<!-- uc2 -->
<g id="node4" class="node">
<title>uc2</title>
<path fill="#fce4ec" stroke="#ad1457" stroke-width="2" d="M416,-246C416,-246 232,-246 232,-246 226,-246 220,-240 220,-234 220,-234 220,-212 220,-212 220,-206 226,-200 232,-200 232,-200 416,-200 416,-200 422,-200 428,-206 428,-212 428,-212 428,-234 428,-234 428,-240 422,-246 416,-246"/>
<text text-anchor="start" x="228" y="-235" font-family="Helvetica,sans-Serif" font-weight="bold" font-size="10.00">2. Reconciliation Forcing Function</text>
<text text-anchor="start" x="234" y="-225" font-family="Helvetica,sans-Serif" font-size="10.00"> &#160;&#160;&#160;&#160;&#160;&#160;&#160;&#160;</text>
<text text-anchor="start" x="262" y="-225" font-family="Helvetica,sans-Serif" font-size="9.00">Drawing makes structural claims.</text>
<text text-anchor="start" x="259" y="-215.8" font-family="Helvetica,sans-Serif" font-size="9.00"> &#160;&#160;&#160;&#160;&#160;&#160;&#160;&#160;Claims can be verified.</text>
<text text-anchor="start" x="269.5" y="-206.8" font-family="Helvetica,sans-Serif" font-size="9.00"> &#160;&#160;&#160;&#160;&#160;&#160;&#160;&#160;Gaps reveal bugs.</text>
</g>
<!-- dot_medium&#45;&gt;uc2 -->
<g id="edge2" class="edge">
<title>dot_medium&#45;&gt;uc2</title>
<path fill="none" stroke="#ad1457" stroke-width="2" d="M785.18,-456.33C633.78,-438.94 375.89,-399.34 319,-327 303.45,-307.23 306.48,-278.14 312.37,-255.91"/>
<polygon fill="#ad1457" stroke="#ad1457" stroke-width="2" points="315.75,-256.82 315.22,-246.24 309.03,-254.84 315.75,-256.82"/>
<text text-anchor="middle" x="350.5" y="-319.8" font-family="Helvetica,sans-Serif" font-size="9.00">forces</text>
<text text-anchor="middle" x="350.5" y="-309.8" font-family="Helvetica,sans-Serif" font-size="9.00">completeness</text>
</g>
<!-- uc3 -->
<g id="node6" class="node">
<title>uc3</title>
<path fill="#e8f5e9" stroke="#2e7d32" stroke-width="2" d="M633.5,-246C633.5,-246 480.5,-246 480.5,-246 474.5,-246 468.5,-240 468.5,-234 468.5,-234 468.5,-212 468.5,-212 468.5,-206 474.5,-200 480.5,-200 480.5,-200 633.5,-200 633.5,-200 639.5,-200 645.5,-206 645.5,-212 645.5,-212 645.5,-234 645.5,-234 645.5,-240 639.5,-246 633.5,-246"/>
<text text-anchor="start" x="485" y="-235" font-family="Helvetica,sans-Serif" font-weight="bold" font-size="10.00">3. Multi&#45;Scale Navigation</text>
<text text-anchor="start" x="476.5" y="-225" font-family="Helvetica,sans-Serif" font-size="10.00"> &#160;&#160;&#160;&#160;&#160;&#160;&#160;&#160;</text>
<text text-anchor="start" x="504.5" y="-225" font-family="Helvetica,sans-Serif" font-size="9.00">Same graph renders at detail</text>
<text text-anchor="start" x="504" y="-215.8" font-family="Helvetica,sans-Serif" font-size="9.00"> &#160;&#160;&#160;&#160;&#160;&#160;&#160;&#160;or overview level.</text>
<text text-anchor="start" x="477.5" y="-206.8" font-family="Helvetica,sans-Serif" font-size="9.00"> &#160;&#160;&#160;&#160;&#160;&#160;&#160;&#160;Zoom in/out with subgraphs.</text>
</g>
<!-- dot_medium&#45;&gt;uc3 -->
<g id="edge3" class="edge">
<title>dot_medium&#45;&gt;uc3</title>
<path fill="none" stroke="#2e7d32" stroke-width="2" d="M789.31,-435.66C728.89,-413.4 655.7,-378.3 605,-327 585.52,-307.29 572.96,-278.19 565.6,-255.95"/>
<polygon fill="#2e7d32" stroke="#2e7d32" stroke-width="2" points="568.9,-254.77 562.58,-246.27 562.22,-256.86 568.9,-254.77"/>
<text text-anchor="middle" x="627" y="-319.8" font-family="Helvetica,sans-Serif" font-size="9.00">subgraph</text>
<text text-anchor="middle" x="627" y="-309.8" font-family="Helvetica,sans-Serif" font-size="9.00">hierarchy</text>
</g>
<!-- uc4 -->
<g id="node8" class="node">
<title>uc4</title>
<path fill="#f3e5f5" stroke="#6a1b9a" stroke-width="2" d="M907,-246C907,-246 737,-246 737,-246 731,-246 725,-240 725,-234 725,-234 725,-212 725,-212 725,-206 731,-200 737,-200 737,-200 907,-200 907,-200 913,-200 919,-206 919,-212 919,-212 919,-234 919,-234 919,-240 913,-246 907,-246"/>
<text text-anchor="start" x="761.5" y="-235" font-family="Helvetica,sans-Serif" font-weight="bold" font-size="10.00">4. Analysis Substrate</text>
<text text-anchor="start" x="745.5" y="-225" font-family="Helvetica,sans-Serif" font-size="10.00"> &#160;&#160;&#160;&#160;&#160;&#160;&#160;&#160;</text>
<text text-anchor="start" x="773.5" y="-225" font-family="Helvetica,sans-Serif" font-size="9.00">Machines query, transform,</text>
<text text-anchor="start" x="733" y="-215.8" font-family="Helvetica,sans-Serif" font-size="9.00"> &#160;&#160;&#160;&#160;&#160;&#160;&#160;&#160;and reason over graph structure.</text>
<text text-anchor="start" x="755.5" y="-206.8" font-family="Helvetica,sans-Serif" font-size="9.00"> &#160;&#160;&#160;&#160;&#160;&#160;&#160;&#160;NetworkX · dot_analyze</text>
</g>
<!-- dot_medium&#45;&gt;uc4 -->
<g id="edge4" class="edge">
<title>dot_medium&#45;&gt;uc4</title>
<path fill="none" stroke="#6a1b9a" stroke-width="2" d="M864.1,-360.56C852.38,-322.53 840.04,-282.52 831.78,-255.71"/>
<polygon fill="#6a1b9a" stroke="#6a1b9a" stroke-width="2" points="835.11,-254.64 828.82,-246.11 828.42,-256.7 835.11,-254.64"/>
<text text-anchor="middle" x="875" y="-319.8" font-family="Helvetica,sans-Serif" font-size="9.00">parseable</text>
<text text-anchor="middle" x="875" y="-309.8" font-family="Helvetica,sans-Serif" font-size="9.00">structure</text>
</g>
<!-- uc5 -->
<g id="node10" class="node">
<title>uc5</title>
<path fill="#fff3e0" stroke="#e65100" stroke-width="2" d="M1103,-246C1103,-246 971,-246 971,-246 965,-246 959,-240 959,-234 959,-234 959,-212 959,-212 959,-206 965,-200 971,-200 971,-200 1103,-200 1103,-200 1109,-200 1115,-206 1115,-212 1115,-212 1115,-234 1115,-234 1115,-240 1109,-246 1103,-246"/>
<text text-anchor="start" x="975" y="-235" font-family="Helvetica,sans-Serif" font-weight="bold" font-size="10.00">5. Multi&#45;Modal Bridge</text>
<text text-anchor="start" x="967" y="-225" font-family="Helvetica,sans-Serif" font-size="10.00"> &#160;&#160;&#160;&#160;&#160;&#160;&#160;&#160;</text>
<text text-anchor="start" x="995" y="-225" font-family="Helvetica,sans-Serif" font-size="9.00">Same source renders as:</text>
<text text-anchor="start" x="973.5" y="-215.8" font-family="Helvetica,sans-Serif" font-size="9.00"> &#160;&#160;&#160;&#160;&#160;&#160;&#160;&#160;PNG/SVG · JSON · text</text>
<text text-anchor="start" x="974" y="-206.8" font-family="Helvetica,sans-Serif" font-size="9.00"> &#160;&#160;&#160;&#160;&#160;&#160;&#160;&#160;Works across all tools.</text>
</g>
<!-- dot_medium&#45;&gt;uc5 -->
<g id="edge5" class="edge">
<title>dot_medium&#45;&gt;uc5</title>
<path fill="none" stroke="#e65100" stroke-width="2" d="M952.73,-370.42C976.4,-329.29 1002.35,-284.22 1019.1,-255.09"/>
<polygon fill="#e65100" stroke="#e65100" stroke-width="2" points="1022.25,-256.64 1024.21,-246.23 1016.19,-253.15 1022.25,-256.64"/>
<text text-anchor="middle" x="1016.5" y="-319.8" font-family="Helvetica,sans-Serif" font-size="9.00">multi&#45;format</text>
<text text-anchor="middle" x="1016.5" y="-309.8" font-family="Helvetica,sans-Serif" font-size="9.00">render</text>
</g>
<!-- uc6 -->
<g id="node12" class="node">
<title>uc6</title>
<path fill="#e0f2f1" stroke="#00695c" stroke-width="2" d="M1307,-246C1307,-246 1167,-246 1167,-246 1161,-246 1155,-240 1155,-234 1155,-234 1155,-212 1155,-212 1155,-206 1161,-200 1167,-200 1167,-200 1307,-200 1307,-200 1313,-200 1319,-206 1319,-212 1319,-212 1319,-234 1319,-234 1319,-240 1313,-246 1307,-246"/>
<text text-anchor="start" x="1165" y="-235" font-family="Helvetica,sans-Serif" font-weight="bold" font-size="10.00">6. Workflow Visualization</text>
<text text-anchor="start" x="1163" y="-225" font-family="Helvetica,sans-Serif" font-size="10.00"> &#160;&#160;&#160;&#160;&#160;&#160;&#160;&#160;</text>
<text text-anchor="start" x="1191" y="-225" font-family="Helvetica,sans-Serif" font-size="9.00">Maps processes, pipelines,</text>
<text text-anchor="start" x="1172" y="-215.8" font-family="Helvetica,sans-Serif" font-size="9.00"> &#160;&#160;&#160;&#160;&#160;&#160;&#160;&#160;state machines clearly.</text>
<text text-anchor="start" x="1181" y="-206.8" font-family="Helvetica,sans-Serif" font-size="9.00"> &#160;&#160;&#160;&#160;&#160;&#160;&#160;&#160;Recipes as graphs.</text>
</g>
<!-- dot_medium&#45;&gt;uc6 -->
<g id="edge6" class="edge">
<title>dot_medium&#45;&gt;uc6</title>
<path fill="none" stroke="#00695c" stroke-width="2" d="M988.54,-403.14C1032.91,-371.91 1086.87,-333.7 1135,-299 1156.28,-283.66 1179.88,-266.32 1199.02,-252.18"/>
<polygon fill="#00695c" stroke="#00695c" stroke-width="2" points="1201.24,-254.89 1207.2,-246.13 1197.08,-249.27 1201.24,-254.89"/>
<text text-anchor="middle" x="1140" y="-319.8" font-family="Helvetica,sans-Serif" font-size="9.00">DAG</text>
<text text-anchor="middle" x="1140" y="-309.8" font-family="Helvetica,sans-Serif" font-size="9.00">pattern</text>
</g>
<!-- uc7 -->
<g id="node14" class="node">
<title>uc7</title>
<path fill="#fff8e1" stroke="#f57f17" stroke-width="2" d="M1534.5,-246C1534.5,-246 1371.5,-246 1371.5,-246 1365.5,-246 1359.5,-240 1359.5,-234 1359.5,-234 1359.5,-212 1359.5,-212 1359.5,-206 1365.5,-200 1371.5,-200 1371.5,-200 1534.5,-200 1534.5,-200 1540.5,-200 1546.5,-206 1546.5,-212 1546.5,-212 1546.5,-234 1546.5,-234 1546.5,-240 1540.5,-246 1534.5,-246"/>
<text text-anchor="start" x="1385" y="-235" font-family="Helvetica,sans-Serif" font-weight="bold" font-size="10.00">7. Investigation Artifact</text>
<text text-anchor="start" x="1367.5" y="-225" font-family="Helvetica,sans-Serif" font-size="10.00"> &#160;&#160;&#160;&#160;&#160;&#160;&#160;&#160;</text>
<text text-anchor="start" x="1395.5" y="-225" font-family="Helvetica,sans-Serif" font-size="9.00">Captures findings in persistent,</text>
<text text-anchor="start" x="1384.5" y="-215.8" font-family="Helvetica,sans-Serif" font-size="9.00"> &#160;&#160;&#160;&#160;&#160;&#160;&#160;&#160;shareable, diffable form.</text>
<text text-anchor="start" x="1391" y="-206.8" font-family="Helvetica,sans-Serif" font-size="9.00"> &#160;&#160;&#160;&#160;&#160;&#160;&#160;&#160;Git&#45;tracked evidence.</text>
</g>
<!-- dot_medium&#45;&gt;uc7 -->
<g id="edge7" class="edge">
<title>dot_medium&#45;&gt;uc7</title>
<path fill="none" stroke="#f57f17" stroke-width="2" d="M1004.28,-433.76C1095.56,-403.54 1228.98,-355.28 1339,-299 1365.44,-285.48 1393.32,-267.21 1414.89,-252.09"/>
<polygon fill="#f57f17" stroke="#f57f17" stroke-width="2" points="1416.99,-254.89 1423.13,-246.26 1412.95,-249.18 1416.99,-254.89"/>
<text text-anchor="middle" x="1331.5" y="-319.8" font-family="Helvetica,sans-Serif" font-size="9.00">text +</text>
<text text-anchor="middle" x="1331.5" y="-309.8" font-family="Helvetica,sans-Serif" font-size="9.00">image</text>
</g>
<!-- bundle_note -->
<g id="node16" class="node">
<title>bundle_note</title>
<path fill="#eceff1" stroke="#607d8b" d="M1793.5,-245C1793.5,-245 1598.5,-245 1598.5,-245 1592.5,-245 1586.5,-239 1586.5,-233 1586.5,-233 1586.5,-213 1586.5,-213 1586.5,-207 1592.5,-201 1598.5,-201 1598.5,-201 1793.5,-201 1793.5,-201 1799.5,-201 1805.5,-207 1805.5,-213 1805.5,-213 1805.5,-233 1805.5,-233 1805.5,-239 1799.5,-245 1793.5,-245"/>
<text text-anchor="start" x="1623.5" y="-234.8" font-family="Helvetica,sans-Serif" font-weight="bold" font-size="9.00">dot&#45;author</text>
<text text-anchor="start" x="1679.5" y="-234.8" font-family="Helvetica,sans-Serif" font-size="9.00"> agent → UC 1, 3, 6</text>
<text text-anchor="start" x="1594.5" y="-225.8" font-family="Helvetica,sans-Serif" font-size="9.00"> &#160;&#160;&#160;&#160;&#160;&#160;&#160;&#160;&#160;&#160;&#160;&#160;&#160;&#160;&#160;&#160;&#160;&#160;&#160;&#160;</text>
<text text-anchor="start" x="1658.5" y="-225.8" font-family="Helvetica,sans-Serif" font-weight="bold" font-size="9.00">diagram&#45;reviewer</text>
<text text-anchor="start" x="1749.5" y="-225.8" font-family="Helvetica,sans-Serif" font-size="9.00"> → UC 2, 7</text>
<text text-anchor="start" x="1606" y="-216.8" font-family="Helvetica,sans-Serif" font-size="9.00"> &#160;&#160;&#160;&#160;&#160;&#160;&#160;&#160;&#160;&#160;&#160;&#160;&#160;&#160;&#160;&#160;&#160;&#160;&#160;&#160;</text>
<text text-anchor="start" x="1670" y="-216.8" font-family="Helvetica,sans-Serif" font-weight="bold" font-size="9.00">dot_analyze</text>
<text text-anchor="start" x="1731" y="-216.8" font-family="Helvetica,sans-Serif" font-size="9.00"> tool → UC 4</text>
<text text-anchor="start" x="1608" y="-207.8" font-family="Helvetica,sans-Serif" font-size="9.00"> &#160;&#160;&#160;&#160;&#160;&#160;&#160;&#160;&#160;&#160;&#160;&#160;&#160;&#160;&#160;&#160;&#160;&#160;&#160;&#160;</text>
<text text-anchor="start" x="1672" y="-207.8" font-family="Helvetica,sans-Serif" font-weight="bold" font-size="9.00">dot_render</text>
<text text-anchor="start" x="1729" y="-207.8" font-family="Helvetica,sans-Serif" font-size="9.00"> tool → UC 5</text>
</g>
<!-- dot_medium&#45;&gt;bundle_note -->
<g id="edge20" class="edge">
<title>dot_medium&#45;&gt;bundle_note</title>
<path fill="none" stroke="#90a4ae" stroke-dasharray="1,5" d="M1007.69,-449.15C1142.83,-424.84 1376.74,-375.66 1566,-299 1566.87,-298.65 1567.74,-298.29 1568.62,-297.93"/>
<polygon fill="#90a4ae" stroke="#90a4ae" points="1570.21,-301.05 1578,-293.87 1567.43,-294.63 1570.21,-301.05"/>
<text text-anchor="middle" x="1569.5" y="-314.8" font-family="Helvetica,sans-Serif" font-size="9.00">implemented by</text>
</g>
<!-- uc1_ex -->
<g id="node3" class="node">
<title>uc1_ex</title>
<polygon fill="#bbdefb" stroke="#1976d2" points="156,-141 18,-141 18,-103 162,-103 162,-135 156,-141"/>
<polyline fill="none" stroke="#1976d2" points="156,-141 156,-135 "/>
<polyline fill="none" stroke="#1976d2" points="162,-135 156,-135 "/>
<text text-anchor="start" x="39" y="-129.8" font-family="Helvetica,sans-Serif" font-size="9.00">Architecture diagrams</text>
<text text-anchor="start" x="26" y="-119.8" font-family="Helvetica,sans-Serif" font-size="9.00"> &#160;&#160;&#160;&#160;&#160;&#160;&#160;&#160;&#160;&#160;&#160;Dependency graphs</text>
<text text-anchor="start" x="31" y="-109.8" font-family="Helvetica,sans-Serif" font-size="9.00">Bundle composition maps</text>
</g>
<!-- uc1&#45;&gt;uc1_ex -->
<g id="edge8" class="edge">
<title>uc1&#45;&gt;uc1_ex</title>
<path fill="none" stroke="#90caf9" stroke-dasharray="5,2" d="M90,-199.54C90,-181.85 90,-157.52 90,-141.08"/>
</g>
<!-- uc1&#45;&gt;uc3 -->
<g id="edge15" class="edge">
<title>uc1&#45;&gt;uc3</title>
<path fill="none" stroke="#888888" stroke-dasharray="5,2" d="M114.28,-246.34C135.14,-264.65 166.98,-288.7 200,-299 252.61,-315.41 395.42,-315.52 448,-299 476.95,-289.9 504.93,-270.09 525.29,-252.97"/>
<polygon fill="#888888" stroke="#888888" points="527.7,-255.52 532.98,-246.33 523.12,-250.22 527.7,-255.52"/>
<text text-anchor="middle" x="410" y="-314.8" font-family="Helvetica,sans-Serif" font-size="9.00">enables</text>
</g>
<!-- uc2_ex -->
<g id="node5" class="node">
<title>uc2_ex</title>
<polygon fill="#f8bbd9" stroke="#c2185b" points="391,-141 251,-141 251,-103 397,-103 397,-135 391,-141"/>
<polyline fill="none" stroke="#c2185b" points="391,-141 391,-135 "/>
<polyline fill="none" stroke="#c2185b" points="397,-135 391,-135 "/>
<text text-anchor="start" x="267" y="-129.8" font-family="Helvetica,sans-Serif" font-size="9.00">Before/after investigation</text>
<text text-anchor="start" x="259" y="-119.8" font-family="Helvetica,sans-Serif" font-size="9.00"> &#160;&#160;&#160;&#160;&#160;&#160;&#160;&#160;&#160;&#160;&#160;Dead code detection</text>
<text text-anchor="start" x="272.5" y="-109.8" font-family="Helvetica,sans-Serif" font-size="9.00">Missing path discovery</text>
</g>
<!-- uc2&#45;&gt;uc2_ex -->
<g id="edge9" class="edge">
<title>uc2&#45;&gt;uc2_ex</title>
<path fill="none" stroke="#f48fb1" stroke-dasharray="5,2" d="M324,-199.54C324,-181.85 324,-157.52 324,-141.08"/>
</g>
<!-- uc2&#45;&gt;uc7 -->
<g id="edge16" class="edge">
<title>uc2&#45;&gt;uc7</title>
<path fill="none" stroke="#888888" stroke-dasharray="5,2" d="M351.42,-246.01C375.24,-264.39 411.55,-288.72 448,-299 543.28,-325.88 1244.25,-327.69 1339,-299 1369.08,-289.89 1398.47,-269.94 1419.88,-252.77"/>
<polygon fill="#888888" stroke="#888888" points="1422.18,-255.41 1427.68,-246.35 1417.73,-250 1422.18,-255.41"/>
<text text-anchor="middle" x="765" y="-314.8" font-family="Helvetica,sans-Serif" font-size="9.00">produces</text>
</g>
<!-- uc3_ex -->
<g id="node7" class="node">
<title>uc3_ex</title>
<polygon fill="#c8e6c9" stroke="#388e3c" points="631,-141 477,-141 477,-103 637,-103 637,-135 631,-141"/>
<polyline fill="none" stroke="#388e3c" points="631,-141 631,-135 "/>
<polyline fill="none" stroke="#388e3c" points="637,-135 631,-135 "/>
<text text-anchor="start" x="504.5" y="-129.8" font-family="Helvetica,sans-Serif" font-size="9.00">Overview + detail pairs</text>
<text text-anchor="start" x="485" y="-119.8" font-family="Helvetica,sans-Serif" font-size="9.00"> &#160;&#160;&#160;&#160;&#160;&#160;&#160;&#160;&#160;&#160;&#160;Cluster collapse/expand</text>
<text text-anchor="start" x="507" y="-109.8" font-family="Helvetica,sans-Serif" font-size="9.00">Progressive disclosure</text>
</g>
<!-- uc3&#45;&gt;uc3_ex -->
<g id="edge10" class="edge">
<title>uc3&#45;&gt;uc3_ex</title>
<path fill="none" stroke="#a5d6a7" stroke-dasharray="5,2" d="M557,-199.54C557,-181.85 557,-157.52 557,-141.08"/>
</g>
<!-- uc3&#45;&gt;uc4 -->
<g id="edge17" class="edge">
<title>uc3&#45;&gt;uc4</title>
<path fill="none" stroke="#888888" stroke-dasharray="5,2" d="M645.61,-223C667.76,-223 691.76,-223 714.7,-223"/>
<polygon fill="#888888" stroke="#888888" points="714.81,-226.5 724.81,-223 714.81,-219.5 714.81,-226.5"/>
<text text-anchor="middle" x="685.25" y="-228.8" font-family="Helvetica,sans-Serif" font-size="9.00">feeds</text>
</g>
<!-- uc4&#45;&gt;uc2 -->
<g id="edge19" class="edge">
<title>uc4&#45;&gt;uc2</title>
<path fill="none" stroke="#888888" stroke-dasharray="5,2" d="M785.6,-246.05C754.8,-264.19 708.8,-288.16 665,-299 636.6,-306.03 533.46,-307.86 481.5,-304 466.49,-302.89 462.15,-304.15 448,-299 417.15,-287.77 385.65,-268.34 362.11,-251.94"/>
<polygon fill="#888888" stroke="#888888" points="364,-248.99 353.82,-246.05 359.95,-254.7 364,-248.99"/>
<text text-anchor="middle" x="501" y="-319.8" font-family="Helvetica,sans-Serif" font-size="9.00">surfaces</text>
<text text-anchor="middle" x="501" y="-309.8" font-family="Helvetica,sans-Serif" font-size="9.00">patterns</text>
</g>
<!-- uc4_ex -->
<g id="node9" class="node">
<title>uc4_ex</title>
<polygon fill="#e1bee7" stroke="#7b1fa2" points="898,-141 740,-141 740,-103 904,-103 904,-135 898,-141"/>
<polyline fill="none" stroke="#7b1fa2" points="898,-141 898,-135 "/>
<polyline fill="none" stroke="#7b1fa2" points="904,-135 898,-135 "/>
<text text-anchor="start" x="787" y="-129.8" font-family="Helvetica,sans-Serif" font-size="9.00">Cycle detection</text>
<text text-anchor="start" x="748" y="-119.8" font-family="Helvetica,sans-Serif" font-size="9.00"> &#160;&#160;&#160;&#160;&#160;&#160;&#160;&#160;&#160;&#160;&#160;Centrality · critical paths</text>
<text text-anchor="start" x="776.5" y="-109.8" font-family="Helvetica,sans-Serif" font-size="9.00">Reachability queries</text>
</g>
<!-- uc4&#45;&gt;uc4_ex -->
<g id="edge11" class="edge">
<title>uc4&#45;&gt;uc4_ex</title>
<path fill="none" stroke="#ce93d8" stroke-dasharray="5,2" d="M822,-199.54C822,-181.85 822,-157.52 822,-141.08"/>
</g>
<!-- uc5_ex -->
<g id="node11" class="node">
<title>uc5_ex</title>
<polygon fill="#ffe0b2" stroke="#f57c00" points="1102,-141 966,-141 966,-103 1108,-103 1108,-135 1102,-141"/>
<polyline fill="none" stroke="#f57c00" points="1102,-141 1102,-135 "/>
<polyline fill="none" stroke="#f57c00" points="1108,-135 1102,-135 "/>
<text text-anchor="start" x="979" y="-129.8" font-family="Helvetica,sans-Serif" font-size="9.00">Slack image attachments</text>
<text text-anchor="start" x="978.5" y="-119.8" font-family="Helvetica,sans-Serif" font-size="9.00"> &#160;&#160;&#160;&#160;&#160;&#160;&#160;&#160;&#160;&#160;&#160;VS Code previews</text>
<text text-anchor="start" x="974" y="-109.8" font-family="Helvetica,sans-Serif" font-size="9.00">API&#45;consumable graph data</text>
</g>
<!-- uc5&#45;&gt;uc5_ex -->
<g id="edge12" class="edge">
<title>uc5&#45;&gt;uc5_ex</title>
<path fill="none" stroke="#ffcc80" stroke-dasharray="5,2" d="M1037,-199.54C1037,-181.85 1037,-157.52 1037,-141.08"/>
</g>
<!-- uc6&#45;&gt;uc2 -->
<g id="edge18" class="edge">
<title>uc6&#45;&gt;uc2</title>
<path fill="none" stroke="#888888" stroke-dasharray="5,2" d="M1214.78,-246.21C1195.61,-264.45 1166.17,-288.47 1135,-299 1058.55,-324.83 558.8,-331.67 448,-299 415.86,-289.52 383.72,-269.45 360.22,-252.31"/>
<polygon fill="#888888" stroke="#888888" points="362.08,-249.33 351.97,-246.16 357.89,-254.94 362.08,-249.33"/>
<text text-anchor="middle" x="678" y="-319.8" font-family="Helvetica,sans-Serif" font-size="9.00">exposes</text>
<text text-anchor="middle" x="678" y="-309.8" font-family="Helvetica,sans-Serif" font-size="9.00">gaps</text>
</g>
<!-- uc6_ex -->
<g id="node13" class="node">
<title>uc6_ex</title>
<polygon fill="#b2dfdb" stroke="#00796b" points="1302.5,-141 1165.5,-141 1165.5,-103 1308.5,-103 1308.5,-135 1302.5,-141"/>
<polyline fill="none" stroke="#00796b" points="1302.5,-141 1302.5,-135 "/>
<polyline fill="none" stroke="#00796b" points="1308.5,-135 1302.5,-135 "/>
<text text-anchor="start" x="1188" y="-129.8" font-family="Helvetica,sans-Serif" font-size="9.00">Recipe step diagrams</text>
<text text-anchor="start" x="1173.5" y="-119.8" font-family="Helvetica,sans-Serif" font-size="9.00"> &#160;&#160;&#160;&#160;&#160;&#160;&#160;&#160;&#160;&#160;&#160;CI/CD pipeline maps</text>
<text text-anchor="start" x="1184" y="-109.8" font-family="Helvetica,sans-Serif" font-size="9.00">Agent workflow graphs</text>
</g>
<!-- uc6&#45;&gt;uc6_ex -->
<g id="edge13" class="edge">
<title>uc6&#45;&gt;uc6_ex</title>
<path fill="none" stroke="#80cbc4" stroke-dasharray="5,2" d="M1237,-199.54C1237,-181.85 1237,-157.52 1237,-141.08"/>
</g>
<!-- uc7_ex -->
<g id="node15" class="node">
<title>uc7_ex</title>
<polygon fill="#fff9c4" stroke="#f9a825" points="1525,-141 1375,-141 1375,-103 1531,-103 1531,-135 1525,-141"/>
<polyline fill="none" stroke="#f9a825" points="1525,-141 1525,-135 "/>
<polyline fill="none" stroke="#f9a825" points="1531,-135 1525,-135 "/>
<text text-anchor="start" x="1400.5" y="-129.8" font-family="Helvetica,sans-Serif" font-size="9.00">Parallax session graphs</text>
<text text-anchor="start" x="1383" y="-119.8" font-family="Helvetica,sans-Serif" font-size="9.00"> &#160;&#160;&#160;&#160;&#160;&#160;&#160;&#160;&#160;&#160;&#160;Incident post&#45;mortems</text>
<text text-anchor="start" x="1402.5" y="-109.8" font-family="Helvetica,sans-Serif" font-size="9.00">Architecture decisions</text>
</g>
<!-- uc7&#45;&gt;uc7_ex -->
<g id="edge14" class="edge">
<title>uc7&#45;&gt;uc7_ex</title>
<path fill="none" stroke="#fff176" stroke-dasharray="5,2" d="M1453,-199.54C1453,-181.85 1453,-157.52 1453,-141.08"/>
</g>
<!-- l_hub -->
<g id="node17" class="node">
<title>l_hub</title>
<ellipse fill="#1565c0" stroke="black" cx="1900" cy="-468.26" rx="41.04" ry="41.04"/>
<text text-anchor="middle" x="1900" y="-466.06" font-family="Helvetica,sans-Serif" font-size="9.00" fill="white">Core medium</text>
</g>
<!-- l_uc -->
<g id="node18" class="node">
<title>l_uc</title>
<path fill="#e3f2fd" stroke="#1565c0" d="M1946.67,-234C1946.67,-234 1853.33,-234 1853.33,-234 1849.67,-234 1846,-230.33 1846,-226.67 1846,-226.67 1846,-219.33 1846,-219.33 1846,-215.67 1849.67,-212 1853.33,-212 1853.33,-212 1946.67,-212 1946.67,-212 1950.33,-212 1954,-215.67 1954,-219.33 1954,-219.33 1954,-226.67 1954,-226.67 1954,-230.33 1950.33,-234 1946.67,-234"/>
<text text-anchor="middle" x="1900" y="-220.8" font-family="Helvetica,sans-Serif" font-size="9.00">Use case</text>
</g>
<!-- l_hub&#45;&gt;l_uc -->
<!-- l_ex -->
<g id="node19" class="node">
<title>l_ex</title>
<polygon fill="#bbdefb" stroke="#1976d2" points="1950.33,-133 1846,-133 1846,-111 1954,-111 1954,-129.33 1950.33,-133"/>
<polyline fill="none" stroke="#1976d2" points="1950.33,-133 1950.33,-129.33 "/>
<polyline fill="none" stroke="#1976d2" points="1954,-129.33 1950.33,-129.33 "/>
<text text-anchor="middle" x="1900" y="-119.8" font-family="Helvetica,sans-Serif" font-size="9.00">Examples</text>
</g>
<!-- l_uc&#45;&gt;l_ex -->
<!-- l_rel -->
<g id="node20" class="node">
<title>l_rel</title>
<polygon fill="white" stroke="transparent" points="1954,-44 1846,-44 1846,-16 1954,-16 1954,-44"/>
<text text-anchor="middle" x="1900" y="-32.8" font-family="Helvetica,sans-Serif" font-size="9.00">Cross&#45;case</text>
<text text-anchor="middle" x="1900" y="-22.8" font-family="Helvetica,sans-Serif" font-size="9.00">relationship</text>
</g>
<!-- l_ex&#45;&gt;l_rel -->
</g>
</svg>
