<?xml version="1.0" encoding="UTF-8" standalone="no"?>
<!DOCTYPE svg PUBLIC "-//W3C//DTD SVG 1.1//EN"
 "http://www.w3.org/Graphics/SVG/1.1/DTD/svg11.dtd">
<!-- Generated by graphviz version 2.43.0 (0)
 -->
<!-- Title: reconciliation_before Pages: 1 -->
<svg width="2597pt" height="572pt"
 viewBox="0.00 0.00 2597.40 572.40" xmlns="http://www.w3.org/2000/svg" xmlns:xlink="http://www.w3.org/1999/xlink">
<g id="graph0" class="graph" transform="scale(1 1) rotate(0) translate(43.2 529.2)">
<title>reconciliation_before</title>
<polygon fill="white" stroke="transparent" points="-43.2,43.2 -43.2,-529.2 2554.2,-529.2 2554.2,43.2 -43.2,43.2"/>
<text text-anchor="start" x="1056.5" y="-471.8" font-family="Helvetica,sans-Serif" font-weight="bold" font-size="14.00">Order Processing System — BEFORE Reconciliation</text>
<text text-anchor="start" x="1038" y="-457.8" font-family="Helvetica,sans-Serif" font-size="14.00"> &#160;&#160;&#160;&#160;&#160;&#160;&#160;&#160;&#160;&#160;</text>
<text text-anchor="start" x="1088" y="-457.8" font-family="Helvetica,sans-Serif" font-size="11.00" fill="#b71c1c">Developer&#39;s mental model: gaps, assumptions, and dead code hidden</text>
<g id="clust1" class="cluster">
<title>cluster_ingestion</title>
<path fill="#e3f2fd" stroke="#1565c0" stroke-width="2" d="M26.5,-11C26.5,-11 626.5,-11 626.5,-11 632.5,-11 638.5,-17 638.5,-23 638.5,-23 638.5,-156 638.5,-156 638.5,-162 632.5,-168 626.5,-168 626.5,-168 26.5,-168 26.5,-168 20.5,-168 14.5,-162 14.5,-156 14.5,-156 14.5,-23 14.5,-23 14.5,-17 20.5,-11 26.5,-11"/>
<text text-anchor="start" x="289.5" y="-153.8" font-family="Helvetica,sans-Serif" font-weight="bold" font-size="14.00">Ingestion</text>
</g>
<g id="clust2" class="cluster">
<title>cluster_processing</title>
<path fill="#e8f5e9" stroke="#2e7d32" stroke-width="2" d="M777,-239C777,-239 1883.5,-239 1883.5,-239 1889.5,-239 1895.5,-245 1895.5,-251 1895.5,-251 1895.5,-363 1895.5,-363 1895.5,-369 1889.5,-375 1883.5,-375 1883.5,-375 777,-375 777,-375 771,-375 765,-369 765,-363 765,-363 765,-251 765,-251 765,-245 771,-239 777,-239"/>
<text text-anchor="start" x="1287.25" y="-360.8" font-family="Helvetica,sans-Serif" font-weight="bold" font-size="14.00">Processing</text>
</g>
<g id="clust3" class="cluster">
<title>cluster_fulfilment</title>
<path fill="#fff3e0" stroke="#e65100" stroke-width="2" d="M2065,-124C2065,-124 2486.5,-124 2486.5,-124 2492.5,-124 2498.5,-130 2498.5,-136 2498.5,-136 2498.5,-259 2498.5,-259 2498.5,-265 2492.5,-271 2486.5,-271 2486.5,-271 2065,-271 2065,-271 2059,-271 2053,-265 2053,-259 2053,-259 2053,-136 2053,-136 2053,-130 2059,-124 2065,-124"/>
<text text-anchor="start" x="2236.25" y="-256.8" font-family="Helvetica,sans-Serif" font-weight="bold" font-size="14.00">Fulfilment</text>
</g>
<g id="clust4" class="cluster">
<title>cluster_stores</title>
<path fill="#f3e5f5" stroke="#6a1b9a" stroke-width="2" d="M1743,-8C1743,-8 1914,-8 1914,-8 1920,-8 1926,-14 1926,-20 1926,-20 1926,-219 1926,-219 1926,-225 1920,-231 1914,-231 1914,-231 1743,-231 1743,-231 1737,-231 1731,-225 1731,-219 1731,-219 1731,-20 1731,-20 1731,-14 1737,-8 1743,-8"/>
<text text-anchor="start" x="1781.5" y="-216.8" font-family="Helvetica,sans-Serif" font-weight="bold" font-size="14.00">Data Stores</text>
</g>
<g id="clust5" class="cluster">
<title>cluster_analytics</title>
<path fill="#fafafa" stroke="#9e9e9e" d="M2047,-31C2047,-31 2491,-31 2491,-31 2497,-31 2503,-37 2503,-43 2503,-43 2503,-104 2503,-104 2503,-110 2497,-116 2491,-116 2491,-116 2047,-116 2047,-116 2041,-116 2035,-110 2035,-104 2035,-104 2035,-43 2035,-43 2035,-37 2041,-31 2047,-31"/>
<text text-anchor="start" x="2233" y="-101.8" font-family="Helvetica,sans-Serif" font-weight="bold" font-size="14.00">Analytics</text>
</g>
<g id="clust6" class="cluster">
<title>cluster_legend</title>
<path fill="#fafafa" stroke="#9e9e9e" d="M20,-383C20,-383 922,-383 922,-383 928,-383 934,-389 934,-395 934,-395 934,-430 934,-430 934,-436 928,-442 922,-442 922,-442 20,-442 20,-442 14,-442 8,-436 8,-430 8,-430 8,-395 8,-395 8,-389 14,-383 20,-383"/>
<text text-anchor="start" x="450" y="-431" font-family="Helvetica,sans-Serif" font-weight="bold" font-size="10.00">Legend</text>
</g>
<!-- api_gateway -->
<g id="node1" class="node">
<title>api_gateway</title>
<path fill="#bbdefb" stroke="black" d="M134.5,-94C134.5,-94 34.5,-94 34.5,-94 28.5,-94 22.5,-88 22.5,-82 22.5,-82 22.5,-70 22.5,-70 22.5,-64 28.5,-58 34.5,-58 34.5,-58 134.5,-58 134.5,-58 140.5,-58 146.5,-64 146.5,-70 146.5,-70 146.5,-82 146.5,-82 146.5,-88 140.5,-94 134.5,-94"/>
<text text-anchor="start" x="48.5" y="-78.5" font-family="Helvetica,sans-Serif" font-weight="bold" font-size="10.00">API Gateway</text>
<text text-anchor="start" x="30.5" y="-69.3" font-family="Helvetica,sans-Serif" font-size="9.00">Routes incoming orders</text>
</g>
<!-- order_api -->
<g id="node2" class="node">
<title>order_api</title>
<path fill="#bbdefb" stroke="black" d="M618.5,-113C618.5,-113 524.5,-113 524.5,-113 518.5,-113 512.5,-107 512.5,-101 512.5,-101 512.5,-89 512.5,-89 512.5,-83 518.5,-77 524.5,-77 524.5,-77 618.5,-77 618.5,-77 624.5,-77 630.5,-83 630.5,-89 630.5,-89 630.5,-101 630.5,-101 630.5,-107 624.5,-113 618.5,-113"/>
<text text-anchor="start" x="543.5" y="-97.5" font-family="Helvetica,sans-Serif" font-weight="bold" font-size="10.00">Order API</text>
<text text-anchor="start" x="520.5" y="-88.3" font-family="Helvetica,sans-Serif" font-size="9.00">POST /orders endpoint</text>
</g>
<!-- api_gateway&#45;&gt;order_api -->
<g id="edge1" class="edge">
<title>api_gateway&#45;&gt;order_api</title>
<path fill="none" stroke="#555555" d="M146.64,-72.71C210.81,-69.88 314.61,-67.12 404,-73 436.41,-75.13 472.15,-79.57 502.17,-83.91"/>
<polygon fill="#555555" stroke="#555555" points="501.72,-87.38 512.12,-85.38 502.74,-80.46 501.72,-87.38"/>
<text text-anchor="middle" x="335.5" y="-75.8" font-family="Helvetica,sans-Serif" font-size="9.00">route</text>
</g>
<!-- auth_svc -->
<g id="node3" class="node">
<title>auth_svc</title>
<path fill="#bbdefb" stroke="black" d="M387.5,-137C387.5,-137 283.5,-137 283.5,-137 277.5,-137 271.5,-131 271.5,-125 271.5,-125 271.5,-113 271.5,-113 271.5,-107 277.5,-101 283.5,-101 283.5,-101 387.5,-101 387.5,-101 393.5,-101 399.5,-107 399.5,-113 399.5,-113 399.5,-125 399.5,-125 399.5,-131 393.5,-137 387.5,-137"/>
<text text-anchor="start" x="299" y="-121.5" font-family="Helvetica,sans-Serif" font-weight="bold" font-size="10.00">Auth Service</text>
<text text-anchor="start" x="279.5" y="-112.3" font-family="Helvetica,sans-Serif" font-size="9.00">(believed: validates JWT)</text>
</g>
<!-- api_gateway&#45;&gt;auth_svc -->
<g id="edge2" class="edge">
<title>api_gateway&#45;&gt;auth_svc</title>
<path fill="none" stroke="#555555" d="M146.73,-86.57C181.35,-92.55 224.85,-100.06 261.27,-106.35"/>
<polygon fill="#555555" stroke="#555555" points="260.89,-109.84 271.34,-108.09 262.08,-102.94 260.89,-109.84"/>
<text text-anchor="middle" x="210" y="-104.8" font-family="Helvetica,sans-Serif" font-size="9.00">validate token</text>
</g>
<!-- order_validator -->
<g id="node4" class="node">
<title>order_validator</title>
<path fill="#c8e6c9" stroke="black" d="M867,-292C867,-292 785,-292 785,-292 779,-292 773,-286 773,-280 773,-280 773,-268 773,-268 773,-262 779,-256 785,-256 785,-256 867,-256 867,-256 873,-256 879,-262 879,-268 879,-268 879,-280 879,-280 879,-286 873,-292 867,-292"/>
<text text-anchor="start" x="781" y="-276.5" font-family="Helvetica,sans-Serif" font-weight="bold" font-size="10.00">Order Validator</text>
<text text-anchor="start" x="786.5" y="-267.3" font-family="Helvetica,sans-Serif" font-size="9.00">Validates schema</text>
</g>
<!-- order_api&#45;&gt;order_validator -->
<g id="edge4" class="edge">
<title>order_api&#45;&gt;order_validator</title>
<path fill="none" stroke="#555555" d="M598.1,-113.15C643.85,-145.58 739.63,-213.48 790.9,-249.83"/>
<polygon fill="#555555" stroke="#555555" points="789.15,-252.88 799.33,-255.8 793.2,-247.16 789.15,-252.88"/>
<text text-anchor="middle" x="683" y="-186.8" font-family="Helvetica,sans-Serif" font-size="9.00">validate</text>
</g>
<!-- cache -->
<g id="node13" class="node">
<title>cache</title>
<path fill="#e1bee7" stroke="black" d="M1918,-50.24C1918,-52.11 1877.88,-53.63 1828.5,-53.63 1779.12,-53.63 1739,-52.11 1739,-50.24 1739,-50.24 1739,-19.76 1739,-19.76 1739,-17.89 1779.12,-16.37 1828.5,-16.37 1877.88,-16.37 1918,-17.89 1918,-19.76 1918,-19.76 1918,-50.24 1918,-50.24"/>
<path fill="none" stroke="black" d="M1918,-50.24C1918,-48.37 1877.88,-46.85 1828.5,-46.85 1779.12,-46.85 1739,-48.37 1739,-50.24"/>
<text text-anchor="start" x="1811.5" y="-37.5" font-family="Helvetica,sans-Serif" font-weight="bold" font-size="10.00">Cache</text>
<text text-anchor="start" x="1747" y="-28.3" font-family="Helvetica,sans-Serif" font-size="9.00">(believed: Redis, warming requests)</text>
</g>
<!-- order_api&#45;&gt;cache -->
<g id="edge5" class="edge">
<title>order_api&#45;&gt;cache</title>
<path fill="none" stroke="#555555" d="M630.52,-86.34C681.6,-79.46 758.07,-71 825,-71 825,-71 825,-71 1548,-71 1608.67,-71 1676.15,-62.55 1729.6,-53.84"/>
<polygon fill="#555555" stroke="#555555" points="1730.46,-57.25 1739.75,-52.16 1729.32,-50.34 1730.46,-57.25"/>
<text text-anchor="middle" x="1210" y="-73.8" font-family="Helvetica,sans-Serif" font-size="9.00">warm/check</text>
</g>
<!-- auth_svc&#45;&gt;order_api -->
<g id="edge3" class="edge">
<title>auth_svc&#45;&gt;order_api</title>
<path fill="none" stroke="#555555" d="M399.52,-112.54C431.15,-109.29 469.53,-105.36 501.91,-102.04"/>
<polygon fill="#555555" stroke="#555555" points="502.6,-105.48 512.19,-100.98 501.89,-98.52 502.6,-105.48"/>
<text text-anchor="middle" x="453.5" y="-111.8" font-family="Helvetica,sans-Serif" font-size="9.00">authorized</text>
</g>
<!-- inventory_svc -->
<g id="node5" class="node">
<title>inventory_svc</title>
<path fill="#c8e6c9" stroke="black" d="M1145,-301C1145,-301 1043,-301 1043,-301 1037,-301 1031,-295 1031,-289 1031,-289 1031,-277 1031,-277 1031,-271 1037,-265 1043,-265 1043,-265 1145,-265 1145,-265 1151,-265 1157,-271 1157,-277 1157,-277 1157,-289 1157,-289 1157,-295 1151,-301 1145,-301"/>
<text text-anchor="start" x="1043.5" y="-285.5" font-family="Helvetica,sans-Serif" font-weight="bold" font-size="10.00">Inventory Service</text>
<text text-anchor="start" x="1039" y="-276.3" font-family="Helvetica,sans-Serif" font-size="9.00">(believed: checks stock)</text>
</g>
<!-- order_validator&#45;&gt;inventory_svc -->
<g id="edge6" class="edge">
<title>order_validator&#45;&gt;inventory_svc</title>
<path fill="none" stroke="#555555" d="M879.24,-275.77C919.52,-277.13 975.72,-279.03 1020.38,-280.54"/>
<polygon fill="#555555" stroke="#555555" points="1020.48,-284.05 1030.59,-280.89 1020.72,-277.05 1020.48,-284.05"/>
<text text-anchor="middle" x="978.5" y="-281.8" font-family="Helvetica,sans-Serif" font-size="9.00">check stock</text>
</g>
<!-- pricing_engine -->
<g id="node6" class="node">
<title>pricing_engine</title>
<path fill="#c8e6c9" stroke="black" d="M1397,-301C1397,-301 1275,-301 1275,-301 1269,-301 1263,-295 1263,-289 1263,-289 1263,-277 1263,-277 1263,-271 1269,-265 1275,-265 1275,-265 1397,-265 1397,-265 1403,-265 1409,-271 1409,-277 1409,-277 1409,-289 1409,-289 1409,-295 1403,-301 1397,-301"/>
<text text-anchor="start" x="1294.5" y="-285.5" font-family="Helvetica,sans-Serif" font-weight="bold" font-size="10.00">Pricing Engine</text>
<text text-anchor="start" x="1271" y="-276.3" font-family="Helvetica,sans-Serif" font-size="9.00">(believed: applies discounts)</text>
</g>
<!-- inventory_svc&#45;&gt;pricing_engine -->
<g id="edge7" class="edge">
<title>inventory_svc&#45;&gt;pricing_engine</title>
<path fill="none" stroke="#555555" d="M1157.12,-283C1186.32,-283 1221.53,-283 1252.9,-283"/>
<polygon fill="#555555" stroke="#555555" points="1252.93,-286.5 1262.93,-283 1252.93,-279.5 1252.93,-286.5"/>
<text text-anchor="middle" x="1210" y="-285.8" font-family="Helvetica,sans-Serif" font-size="9.00">priced</text>
</g>
<!-- payment_svc -->
<g id="node7" class="node">
<title>payment_svc</title>
<path fill="#c8e6c9" stroke="black" d="M1591,-301C1591,-301 1503,-301 1503,-301 1497,-301 1491,-295 1491,-289 1491,-289 1491,-277 1491,-277 1491,-271 1497,-265 1503,-265 1503,-265 1591,-265 1591,-265 1597,-265 1603,-271 1603,-277 1603,-277 1603,-289 1603,-289 1603,-295 1597,-301 1591,-301"/>
<text text-anchor="start" x="1499" y="-285.5" font-family="Helvetica,sans-Serif" font-weight="bold" font-size="10.00">Payment Service</text>
<text text-anchor="start" x="1500" y="-276.3" font-family="Helvetica,sans-Serif" font-size="9.00">(believed: retries 3x)</text>
</g>
<!-- pricing_engine&#45;&gt;payment_svc -->
<g id="edge8" class="edge">
<title>pricing_engine&#45;&gt;payment_svc</title>
<path fill="none" stroke="#555555" d="M1409.22,-283C1432.44,-283 1458.03,-283 1480.73,-283"/>
<polygon fill="#555555" stroke="#555555" points="1480.93,-286.5 1490.93,-283 1480.93,-279.5 1480.93,-286.5"/>
<text text-anchor="middle" x="1450" y="-285.8" font-family="Helvetica,sans-Serif" font-size="9.00">charge</text>
</g>
<!-- retry_logic -->
<g id="node8" class="node">
<title>retry_logic</title>
<path fill="#fff9c4" stroke="black" d="M1875.5,-322C1875.5,-322 1781.5,-322 1781.5,-322 1775.5,-322 1769.5,-316 1769.5,-310 1769.5,-310 1769.5,-298 1769.5,-298 1769.5,-292 1775.5,-286 1781.5,-286 1781.5,-286 1875.5,-286 1875.5,-286 1881.5,-286 1887.5,-292 1887.5,-298 1887.5,-298 1887.5,-310 1887.5,-310 1887.5,-316 1881.5,-322 1875.5,-322"/>
<text text-anchor="start" x="1796" y="-306.5" font-family="Helvetica,sans-Serif" font-weight="bold" font-size="10.00">Retry Logic</text>
<text text-anchor="start" x="1777.5" y="-297.3" font-family="Helvetica,sans-Serif" font-size="9.00">(believed: 3 attempts)</text>
</g>
<!-- payment_svc&#45;&gt;retry_logic -->
<g id="edge9" class="edge">
<title>payment_svc&#45;&gt;retry_logic</title>
<path fill="none" stroke="#555555" d="M1603.07,-280.48C1635.44,-279.63 1677.12,-279.62 1714,-283 1728.75,-284.35 1744.45,-286.68 1759.32,-289.3"/>
<polygon fill="#555555" stroke="#555555" points="1758.99,-292.79 1769.46,-291.15 1760.25,-285.91 1758.99,-292.79"/>
<text text-anchor="middle" x="1671" y="-285.8" font-family="Helvetica,sans-Serif" font-size="9.00">on failure</text>
</g>
<!-- order_db -->
<g id="node12" class="node">
<title>order_db</title>
<path fill="#e1bee7" stroke="black" d="M1866,-196.24C1866,-198.11 1849.19,-199.63 1828.5,-199.63 1807.81,-199.63 1791,-198.11 1791,-196.24 1791,-196.24 1791,-165.76 1791,-165.76 1791,-163.89 1807.81,-162.37 1828.5,-162.37 1849.19,-162.37 1866,-163.89 1866,-165.76 1866,-165.76 1866,-196.24 1866,-196.24"/>
<path fill="none" stroke="black" d="M1866,-196.24C1866,-194.37 1849.19,-192.85 1828.5,-192.85 1807.81,-192.85 1791,-194.37 1791,-196.24"/>
<text text-anchor="start" x="1799" y="-183.5" font-family="Helvetica,sans-Serif" font-weight="bold" font-size="10.00">Orders DB</text>
<text text-anchor="start" x="1802.5" y="-174.3" font-family="Helvetica,sans-Serif" font-size="9.00">PostgreSQL</text>
</g>
<!-- payment_svc&#45;&gt;order_db -->
<g id="edge11" class="edge">
<title>payment_svc&#45;&gt;order_db</title>
<path fill="none" stroke="#555555" d="M1597.33,-265C1649.3,-246.03 1730.51,-216.4 1781.28,-197.87"/>
<polygon fill="#555555" stroke="#555555" points="1782.5,-201.15 1790.7,-194.43 1780.1,-194.57 1782.5,-201.15"/>
<text text-anchor="middle" x="1671" y="-254.8" font-family="Helvetica,sans-Serif" font-size="9.00">record success</text>
</g>
<!-- event_queue -->
<g id="node14" class="node">
<title>event_queue</title>
<path fill="#e1bee7" stroke="black" d="M1891,-123.24C1891,-125.11 1862.99,-126.63 1828.5,-126.63 1794.01,-126.63 1766,-125.11 1766,-123.24 1766,-123.24 1766,-92.76 1766,-92.76 1766,-90.89 1794.01,-89.37 1828.5,-89.37 1862.99,-89.37 1891,-90.89 1891,-92.76 1891,-92.76 1891,-123.24 1891,-123.24"/>
<path fill="none" stroke="black" d="M1891,-123.24C1891,-121.37 1862.99,-119.85 1828.5,-119.85 1794.01,-119.85 1766,-121.37 1766,-123.24"/>
<text text-anchor="start" x="1793" y="-110.5" font-family="Helvetica,sans-Serif" font-weight="bold" font-size="10.00">Event Queue</text>
<text text-anchor="start" x="1774" y="-101.3" font-family="Helvetica,sans-Serif" font-size="9.00">(believed: Kafka, async)</text>
</g>
<!-- payment_svc&#45;&gt;event_queue -->
<g id="edge12" class="edge">
<title>payment_svc&#45;&gt;event_queue</title>
<path fill="none" stroke="#555555" stroke-dasharray="5,2" d="M1563.65,-264.76C1578.96,-247.58 1603.5,-221.73 1628,-203 1669.91,-170.96 1683.24,-166.41 1731,-144 1742,-138.84 1753.97,-133.88 1765.6,-129.38"/>
<polygon fill="#555555" stroke="#555555" points="1767.16,-132.53 1775.27,-125.71 1764.68,-125.99 1767.16,-132.53"/>
<text text-anchor="middle" x="1671" y="-205.8" font-family="Helvetica,sans-Serif" font-size="9.00">emit event (async)</text>
</g>
<!-- retry_logic&#45;&gt;payment_svc -->
<g id="edge10" class="edge">
<title>retry_logic&#45;&gt;payment_svc</title>
<path fill="none" stroke="#555555" stroke-dasharray="5,2" d="M1769.35,-302.41C1729.51,-301 1675.48,-298.45 1628,-294 1623.19,-293.55 1618.23,-293.02 1613.24,-292.44"/>
<polygon fill="#555555" stroke="#555555" points="1613.36,-288.93 1603.01,-291.2 1612.52,-295.88 1613.36,-288.93"/>
<text text-anchor="middle" x="1671" y="-301.8" font-family="Helvetica,sans-Serif" font-size="9.00">retry attempt</text>
</g>
<!-- fulfilment_svc -->
<g id="node9" class="node">
<title>fulfilment_svc</title>
<path fill="#ffe0b2" stroke="black" d="M2177,-186C2177,-186 2073,-186 2073,-186 2067,-186 2061,-180 2061,-174 2061,-174 2061,-162 2061,-162 2061,-156 2067,-150 2073,-150 2073,-150 2177,-150 2177,-150 2183,-150 2189,-156 2189,-162 2189,-162 2189,-174 2189,-174 2189,-180 2183,-186 2177,-186"/>
<text text-anchor="start" x="2073.5" y="-170.5" font-family="Helvetica,sans-Serif" font-weight="bold" font-size="10.00">Fulfilment Service</text>
<text text-anchor="start" x="2069" y="-161.3" font-family="Helvetica,sans-Serif" font-size="9.00">Creates shipment record</text>
</g>
<!-- shipping_api -->
<g id="node10" class="node">
<title>shipping_api</title>
<path fill="#ffccbc" stroke="black" d="M2446.5,-168C2446.5,-168 2380.5,-168 2380.5,-168 2374.5,-168 2368.5,-162 2368.5,-156 2368.5,-156 2368.5,-144 2368.5,-144 2368.5,-138 2374.5,-132 2380.5,-132 2380.5,-132 2446.5,-132 2446.5,-132 2452.5,-132 2458.5,-138 2458.5,-144 2458.5,-144 2458.5,-156 2458.5,-156 2458.5,-162 2452.5,-168 2446.5,-168"/>
<text text-anchor="start" x="2376.5" y="-152.5" font-family="Helvetica,sans-Serif" font-weight="bold" font-size="10.00">Shipping API</text>
<text text-anchor="start" x="2391" y="-143.3" font-family="Helvetica,sans-Serif" font-size="9.00">(external)</text>
</g>
<!-- fulfilment_svc&#45;&gt;shipping_api -->
<g id="edge14" class="edge">
<title>fulfilment_svc&#45;&gt;shipping_api</title>
<path fill="none" stroke="#555555" d="M2189.23,-164.03C2239.74,-160.85 2309.79,-156.45 2357.88,-153.43"/>
<polygon fill="#555555" stroke="#555555" points="2358.34,-156.91 2368.1,-152.79 2357.9,-149.92 2358.34,-156.91"/>
<text text-anchor="middle" x="2269.5" y="-163.8" font-family="Helvetica,sans-Serif" font-size="9.00">create shipment</text>
</g>
<!-- notification_svc -->
<g id="node11" class="node">
<title>notification_svc</title>
<path fill="#ffe0b2" stroke="black" d="M2478.5,-240C2478.5,-240 2348.5,-240 2348.5,-240 2342.5,-240 2336.5,-234 2336.5,-228 2336.5,-228 2336.5,-216 2336.5,-216 2336.5,-210 2342.5,-204 2348.5,-204 2348.5,-204 2478.5,-204 2478.5,-204 2484.5,-204 2490.5,-210 2490.5,-216 2490.5,-216 2490.5,-228 2490.5,-228 2490.5,-234 2484.5,-240 2478.5,-240"/>
<text text-anchor="start" x="2357.5" y="-224.5" font-family="Helvetica,sans-Serif" font-weight="bold" font-size="10.00">Notification Service</text>
<text text-anchor="start" x="2344.5" y="-215.3" font-family="Helvetica,sans-Serif" font-size="9.00">(believed: sends email + SMS)</text>
</g>
<!-- fulfilment_svc&#45;&gt;notification_svc -->
<g id="edge15" class="edge">
<title>fulfilment_svc&#45;&gt;notification_svc</title>
<path fill="none" stroke="#555555" d="M2189.23,-179.92C2229.6,-187.53 2282.45,-197.49 2326.6,-205.81"/>
<polygon fill="#555555" stroke="#555555" points="2325.98,-209.25 2336.45,-207.67 2327.28,-202.38 2325.98,-209.25"/>
<text text-anchor="middle" x="2269.5" y="-203.8" font-family="Helvetica,sans-Serif" font-size="9.00">notify customer</text>
</g>
<!-- event_queue&#45;&gt;fulfilment_svc -->
<g id="edge13" class="edge">
<title>event_queue&#45;&gt;fulfilment_svc</title>
<path fill="none" stroke="#555555" d="M1891.24,-120.58C1937.79,-130.06 2001.78,-143.1 2050.89,-153.11"/>
<polygon fill="#555555" stroke="#555555" points="2050.32,-156.56 2060.82,-155.13 2051.72,-149.7 2050.32,-156.56"/>
<text text-anchor="middle" x="1980.5" y="-147.8" font-family="Helvetica,sans-Serif" font-size="9.00">trigger</text>
</g>
<!-- analytics_svc -->
<g id="node15" class="node">
<title>analytics_svc</title>
<path fill="#f5f5f5" stroke="black" d="M2195,-85C2195,-85 2055,-85 2055,-85 2049,-85 2043,-79 2043,-73 2043,-73 2043,-61 2043,-61 2043,-55 2049,-49 2055,-49 2055,-49 2195,-49 2195,-49 2201,-49 2207,-55 2207,-61 2207,-61 2207,-73 2207,-73 2207,-79 2201,-85 2195,-85"/>
<text text-anchor="start" x="2075.5" y="-69.5" font-family="Helvetica,sans-Serif" font-weight="bold" font-size="10.00">Analytics Service</text>
<text text-anchor="start" x="2051" y="-60.3" font-family="Helvetica,sans-Serif" font-size="9.00">(believed: receives order events)</text>
</g>
<!-- event_queue&#45;&gt;analytics_svc -->
<g id="edge16" class="edge">
<title>event_queue&#45;&gt;analytics_svc</title>
<path fill="none" stroke="#555555" d="M1891,-91.52C1907.76,-87.54 1925.99,-83.66 1943,-81 1971.97,-76.46 2003.78,-73.37 2032.55,-71.28"/>
<polygon fill="#555555" stroke="#555555" points="2032.86,-74.77 2042.59,-70.58 2032.38,-67.78 2032.86,-74.77"/>
<text text-anchor="middle" x="1980.5" y="-83.8" font-family="Helvetica,sans-Serif" font-size="9.00">order.completed</text>
</g>
<!-- reporting_db -->
<g id="node16" class="node">
<title>reporting_db</title>
<path fill="#eeeeee" stroke="black" d="M2495,-81.24C2495,-83.11 2458.47,-84.63 2413.5,-84.63 2368.53,-84.63 2332,-83.11 2332,-81.24 2332,-81.24 2332,-50.76 2332,-50.76 2332,-48.89 2368.53,-47.37 2413.5,-47.37 2458.47,-47.37 2495,-48.89 2495,-50.76 2495,-50.76 2495,-81.24 2495,-81.24"/>
<path fill="none" stroke="black" d="M2495,-81.24C2495,-79.37 2458.47,-77.85 2413.5,-77.85 2368.53,-77.85 2332,-79.37 2332,-81.24"/>
<text text-anchor="start" x="2375.5" y="-68.5" font-family="Helvetica,sans-Serif" font-weight="bold" font-size="10.00">Reporting DB</text>
<text text-anchor="start" x="2340" y="-59.3" font-family="Helvetica,sans-Serif" font-size="9.00">(believed: updated by analytics)</text>
</g>
<!-- analytics_svc&#45;&gt;reporting_db -->
<g id="edge17" class="edge">
<title>analytics_svc&#45;&gt;reporting_db</title>
<path fill="none" stroke="#555555" d="M2207.33,-66.72C2243.02,-66.59 2285.06,-66.44 2321.76,-66.32"/>
<polygon fill="#555555" stroke="#555555" points="2321.97,-69.82 2331.96,-66.28 2321.94,-62.82 2321.97,-69.82"/>
<text text-anchor="middle" x="2269.5" y="-69.8" font-family="Helvetica,sans-Serif" font-size="9.00">write</text>
</g>
<!-- l_svc -->
<g id="node17" class="node">
<title>l_svc</title>
<path fill="#c8e6c9" stroke="black" d="M145.67,-414C145.67,-414 23.33,-414 23.33,-414 19.67,-414 16,-410.33 16,-406.67 16,-406.67 16,-399.33 16,-399.33 16,-395.67 19.67,-392 23.33,-392 23.33,-392 145.67,-392 145.67,-392 149.33,-392 153,-395.67 153,-399.33 153,-399.33 153,-406.67 153,-406.67 153,-410.33 149.33,-414 145.67,-414"/>
<text text-anchor="middle" x="84.5" y="-400.8" font-family="Helvetica,sans-Serif" font-size="9.00">Service / component</text>
</g>
<!-- l_store -->
<g id="node18" class="node">
<title>l_store</title>
<path fill="#e1bee7" stroke="black" d="M404,-413.02C404,-414.25 373.3,-415.25 335.5,-415.25 297.7,-415.25 267,-414.25 267,-413.02 267,-413.02 267,-392.98 267,-392.98 267,-391.75 297.7,-390.75 335.5,-390.75 373.3,-390.75 404,-391.75 404,-392.98 404,-392.98 404,-413.02 404,-413.02"/>
<path fill="none" stroke="black" d="M404,-413.02C404,-411.79 373.3,-410.8 335.5,-410.8 297.7,-410.8 267,-411.79 267,-413.02"/>
<text text-anchor="middle" x="335.5" y="-400.8" font-family="Helvetica,sans-Serif" font-size="9.00">Data store</text>
</g>
<!-- l_svc&#45;&gt;l_store -->
<!-- l_async -->
<g id="node19" class="node">
<title>l_async</title>
<polygon fill="white" stroke="transparent" points="640,-414 503,-414 503,-392 640,-392 640,-414"/>
<text text-anchor="middle" x="571.5" y="-400.8" font-family="Helvetica,sans-Serif" font-size="9.00">Async / believed path</text>
</g>
<!-- l_store&#45;&gt;l_async -->
<!-- l_note -->
<g id="node20" class="node">
<title>l_note</title>
<polygon fill="#fff9c4" stroke="black" points="922.33,-414 726,-414 726,-392 926,-392 926,-410.33 922.33,-414"/>
<polyline fill="none" stroke="black" points="922.33,-414 922.33,-410.33 "/>
<polyline fill="none" stroke="black" points="926,-410.33 922.33,-410.33 "/>
<text text-anchor="middle" x="826" y="-400.8" font-family="Helvetica,sans-Serif" font-size="9.00">&quot;(believed: ...)&quot; = unverified assumption</text>
</g>
<!-- l_async&#45;&gt;l_note -->
</g>
</svg>
