<?xml version="1.0" encoding="UTF-8" standalone="no"?>
<!DOCTYPE svg PUBLIC "-//W3C//DTD SVG 1.1//EN"
 "http://www.w3.org/Graphics/SVG/1.1/DTD/svg11.dtd">
<!-- Generated by graphviz version 2.43.0 (0)
 -->
<!-- Title: reconciliation_after Pages: 1 -->
<svg width="3219pt" height="692pt"
 viewBox="0.00 0.00 3219.40 692.40" xmlns="http://www.w3.org/2000/svg" xmlns:xlink="http://www.w3.org/1999/xlink">
<g id="graph0" class="graph" transform="scale(1 1) rotate(0) translate(43.2 649.2)">
<title>reconciliation_after</title>
<polygon fill="white" stroke="transparent" points="-43.2,43.2 -43.2,-649.2 3176.2,-649.2 3176.2,43.2 -43.2,43.2"/>
<text text-anchor="start" x="1373.5" y="-591.8" font-family="Helvetica,sans-Serif" font-weight="bold" font-size="14.00">Order Processing System — AFTER Reconciliation</text>
<text text-anchor="start" x="1329.5" y="-577.8" font-family="Helvetica,sans-Serif" font-size="14.00"> &#160;&#160;&#160;&#160;&#160;&#160;&#160;&#160;&#160;&#160;</text>
<text text-anchor="start" x="1379.5" y="-577.8" font-family="Helvetica,sans-Serif" font-size="11.00" fill="#1b5e20">Reality surfaced: dead code, missing retry, sync queue, undocumented deps</text>
<g id="clust1" class="cluster">
<title>cluster_ingestion</title>
<path fill="#e3f2fd" stroke="#1565c0" stroke-width="2" d="M143,-245C143,-245 980.5,-245 980.5,-245 986.5,-245 992.5,-251 992.5,-257 992.5,-257 992.5,-392 992.5,-392 992.5,-398 986.5,-404 980.5,-404 980.5,-404 143,-404 143,-404 137,-404 131,-398 131,-392 131,-392 131,-257 131,-257 131,-251 137,-245 143,-245"/>
<text text-anchor="start" x="524.75" y="-389.8" font-family="Helvetica,sans-Serif" font-weight="bold" font-size="14.00">Ingestion</text>
</g>
<g id="clust2" class="cluster">
<title>cluster_processing</title>
<path fill="#e8f5e9" stroke="#2e7d32" stroke-width="2" d="M1087,-233C1087,-233 2157,-233 2157,-233 2163,-233 2169,-239 2169,-245 2169,-245 2169,-378 2169,-378 2169,-384 2163,-390 2157,-390 2157,-390 1087,-390 1087,-390 1081,-390 1075,-384 1075,-378 1075,-378 1075,-245 1075,-245 1075,-239 1081,-233 1087,-233"/>
<text text-anchor="start" x="1579" y="-375.8" font-family="Helvetica,sans-Serif" font-weight="bold" font-size="14.00">Processing</text>
</g>
<g id="clust3" class="cluster">
<title>cluster_fulfilment</title>
<path fill="#fff3e0" stroke="#e65100" stroke-width="2" d="M2614,-251C2614,-251 3113,-251 3113,-251 3119,-251 3125,-257 3125,-263 3125,-263 3125,-388 3125,-388 3125,-394 3119,-400 3113,-400 3113,-400 2614,-400 2614,-400 2608,-400 2602,-394 2602,-388 2602,-388 2602,-263 2602,-263 2602,-257 2608,-251 2614,-251"/>
<text text-anchor="start" x="2824" y="-385.8" font-family="Helvetica,sans-Serif" font-weight="bold" font-size="14.00">Fulfilment</text>
</g>
<g id="clust4" class="cluster">
<title>cluster_stores</title>
<path fill="#f3e5f5" stroke="#6a1b9a" stroke-width="2" d="M2279,-146C2279,-146 2490,-146 2490,-146 2496,-146 2502,-152 2502,-158 2502,-158 2502,-447 2502,-447 2502,-453 2496,-459 2490,-459 2490,-459 2279,-459 2279,-459 2273,-459 2267,-453 2267,-447 2267,-447 2267,-158 2267,-158 2267,-152 2273,-146 2279,-146"/>
<text text-anchor="start" x="2337.5" y="-444.8" font-family="Helvetica,sans-Serif" font-weight="bold" font-size="14.00">Data Stores</text>
</g>
<g id="clust5" class="cluster">
<title>cluster_analytics</title>
<path fill="#f5f5f5" stroke="#9e9e9e" stroke-width="2" stroke-dasharray="5,2" d="M94.5,-412C94.5,-412 736,-412 736,-412 742,-412 748,-418 748,-424 748,-424 748,-485 748,-485 748,-491 742,-497 736,-497 736,-497 94.5,-497 94.5,-497 88.5,-497 82.5,-491 82.5,-485 82.5,-485 82.5,-424 82.5,-424 82.5,-418 88.5,-412 94.5,-412"/>
<text text-anchor="start" x="306.75" y="-482.8" font-family="Helvetica,sans-Serif" font-weight="bold" font-size="14.00">Analytics ☠ DISCONNECTED</text>
</g>
<g id="clust6" class="cluster">
<title>cluster_findings</title>
<path fill="#ffebee" stroke="#b71c1c" d="M20,-8C20,-8 382,-8 382,-8 388,-8 394,-14 394,-20 394,-20 394,-225 394,-225 394,-231 388,-237 382,-237 382,-237 20,-237 20,-237 14,-237 8,-231 8,-225 8,-225 8,-20 8,-20 8,-14 14,-8 20,-8"/>
<text text-anchor="start" x="134.5" y="-226" font-family="Helvetica,sans-Serif" font-weight="bold" font-size="10.00">Reconciliation Findings</text>
</g>
<g id="clust7" class="cluster">
<title>cluster_legend</title>
<path fill="#fafafa" stroke="#9e9e9e" d="M136.5,-505C136.5,-505 2456,-505 2456,-505 2462,-505 2468,-511 2468,-517 2468,-517 2468,-550 2468,-550 2468,-556 2462,-562 2456,-562 2456,-562 136.5,-562 136.5,-562 130.5,-562 124.5,-556 124.5,-550 124.5,-550 124.5,-517 124.5,-517 124.5,-511 130.5,-505 136.5,-505"/>
<text text-anchor="start" x="1275.25" y="-551" font-family="Helvetica,sans-Serif" font-weight="bold" font-size="10.00">Legend</text>
</g>
<!-- api_gateway -->
<g id="node1" class="node">
<title>api_gateway</title>
<path fill="#bbdefb" stroke="black" d="M251,-354C251,-354 151,-354 151,-354 145,-354 139,-348 139,-342 139,-342 139,-330 139,-330 139,-324 145,-318 151,-318 151,-318 251,-318 251,-318 257,-318 263,-324 263,-330 263,-330 263,-342 263,-342 263,-348 257,-354 251,-354"/>
<text text-anchor="start" x="165" y="-338.5" font-family="Helvetica,sans-Serif" font-weight="bold" font-size="10.00">API Gateway</text>
<text text-anchor="start" x="147" y="-329.3" font-family="Helvetica,sans-Serif" font-size="9.00">Routes incoming orders</text>
</g>
<!-- order_api -->
<g id="node2" class="node">
<title>order_api</title>
<path fill="#bbdefb" stroke="black" d="M972.5,-322C972.5,-322 878.5,-322 878.5,-322 872.5,-322 866.5,-316 866.5,-310 866.5,-310 866.5,-298 866.5,-298 866.5,-292 872.5,-286 878.5,-286 878.5,-286 972.5,-286 972.5,-286 978.5,-286 984.5,-292 984.5,-298 984.5,-298 984.5,-310 984.5,-310 984.5,-316 978.5,-322 972.5,-322"/>
<text text-anchor="start" x="897.5" y="-306.5" font-family="Helvetica,sans-Serif" font-weight="bold" font-size="10.00">Order API</text>
<text text-anchor="start" x="874.5" y="-297.3" font-family="Helvetica,sans-Serif" font-size="9.00">POST /orders endpoint</text>
</g>
<!-- api_gateway&#45;&gt;order_api -->
<g id="edge2" class="edge">
<title>api_gateway&#45;&gt;order_api</title>
<path fill="none" stroke="#555555" d="M263.01,-334.58C375.16,-331.77 621.59,-324.65 829,-312 837.81,-311.46 847.07,-310.8 856.21,-310.1"/>
<polygon fill="#555555" stroke="#555555" points="856.76,-313.57 866.45,-309.29 856.21,-306.59 856.76,-313.57"/>
<text text-anchor="middle" x="620" y="-329.8" font-family="Helvetica,sans-Serif" font-size="9.00">route</text>
</g>
<!-- auth_svc -->
<g id="node3" class="node">
<title>auth_svc</title>
<path fill="#ffe0b2" stroke="#e65100" stroke-width="2" d="M715.5,-290.5C715.5,-290.5 524.5,-290.5 524.5,-290.5 518.5,-290.5 512.5,-284.5 512.5,-278.5 512.5,-278.5 512.5,-265.5 512.5,-265.5 512.5,-259.5 518.5,-253.5 524.5,-253.5 524.5,-253.5 715.5,-253.5 715.5,-253.5 721.5,-253.5 727.5,-259.5 727.5,-265.5 727.5,-265.5 727.5,-278.5 727.5,-278.5 727.5,-284.5 721.5,-290.5 715.5,-290.5"/>
<text text-anchor="start" x="583.5" y="-279.5" font-family="Helvetica,sans-Serif" font-weight="bold" font-size="10.00">Auth Service</text>
<text text-anchor="start" x="521" y="-269.5" font-family="Helvetica,sans-Serif" font-size="10.00"> &#160;&#160;&#160;&#160;&#160;&#160;&#160;&#160;&#160;&#160;&#160;&#160;&#160;&#160;&#160;&#160;&#160;&#160;&#160;&#160;</text>
<text text-anchor="start" x="585" y="-269.5" font-family="Helvetica,sans-Serif" font-size="9.00" fill="#e65100">⚠ DELEGATES to external IdP</text>
<text text-anchor="start" x="520.5" y="-260.3" font-family="Helvetica,sans-Serif" font-size="9.00" fill="#e65100"> &#160;&#160;&#160;&#160;&#160;&#160;&#160;&#160;&#160;&#160;&#160;&#160;&#160;&#160;&#160;&#160;&#160;&#160;&#160;&#160;Not self&#45;contained as believed</text>
</g>
<!-- api_gateway&#45;&gt;auth_svc -->
<g id="edge3" class="edge">
<title>api_gateway&#45;&gt;auth_svc</title>
<path fill="none" stroke="#555555" d="M263.08,-326.63C325.65,-317.02 424.48,-301.85 502.14,-289.94"/>
<polygon fill="#555555" stroke="#555555" points="503.11,-293.33 512.47,-288.35 502.05,-286.41 503.11,-293.33"/>
<text text-anchor="middle" x="443" y="-304.8" font-family="Helvetica,sans-Serif" font-size="9.00">validate token</text>
</g>
<!-- order_validator -->
<g id="node5" class="node">
<title>order_validator</title>
<path fill="#c8e6c9" stroke="black" d="M1243,-359C1243,-359 1161,-359 1161,-359 1155,-359 1149,-353 1149,-347 1149,-347 1149,-335 1149,-335 1149,-329 1155,-323 1161,-323 1161,-323 1243,-323 1243,-323 1249,-323 1255,-329 1255,-335 1255,-335 1255,-347 1255,-347 1255,-353 1249,-359 1243,-359"/>
<text text-anchor="start" x="1157" y="-343.5" font-family="Helvetica,sans-Serif" font-weight="bold" font-size="10.00">Order Validator</text>
<text text-anchor="start" x="1162.5" y="-334.3" font-family="Helvetica,sans-Serif" font-size="9.00">Validates schema</text>
</g>
<!-- order_api&#45;&gt;order_validator -->
<g id="edge6" class="edge">
<title>order_api&#45;&gt;order_validator</title>
<path fill="none" stroke="#555555" d="M984.71,-311.85C1029.92,-317.94 1092.49,-326.37 1138.7,-332.6"/>
<polygon fill="#555555" stroke="#555555" points="1138.52,-336.11 1148.89,-333.98 1139.45,-329.17 1138.52,-336.11"/>
<text text-anchor="middle" x="1040" y="-323.8" font-family="Helvetica,sans-Serif" font-size="9.00">validate</text>
</g>
<!-- cache -->
<g id="node14" class="node">
<title>cache</title>
<path fill="#ffcdd2" stroke="#c62828" stroke-width="2" d="M2476,-211.98C2476,-215.16 2434.99,-217.75 2384.5,-217.75 2334.01,-217.75 2293,-215.16 2293,-211.98 2293,-211.98 2293,-160.02 2293,-160.02 2293,-156.84 2334.01,-154.25 2384.5,-154.25 2434.99,-154.25 2476,-156.84 2476,-160.02 2476,-160.02 2476,-211.98 2476,-211.98"/>
<path fill="none" stroke="#c62828" stroke-width="2" d="M2476,-211.98C2476,-208.79 2434.99,-206.2 2384.5,-206.2 2334.01,-206.2 2293,-208.79 2293,-211.98"/>
<text text-anchor="start" x="2367.5" y="-198" font-family="Helvetica,sans-Serif" font-weight="bold" font-size="10.00">Cache</text>
<text text-anchor="start" x="2310" y="-188" font-family="Helvetica,sans-Serif" font-size="10.00"> &#160;&#160;&#160;&#160;&#160;&#160;&#160;&#160;&#160;&#160;&#160;&#160;&#160;&#160;&#160;&#160;&#160;&#160;&#160;&#160;</text>
<text text-anchor="start" x="2374" y="-188" font-family="Helvetica,sans-Serif" font-size="9.00" fill="#b71c1c">✗ NEVER WARMED</text>
<text text-anchor="start" x="2301" y="-178.8" font-family="Helvetica,sans-Serif" font-size="9.00" fill="#b71c1c"> &#160;&#160;&#160;&#160;&#160;&#160;&#160;&#160;&#160;&#160;&#160;&#160;&#160;&#160;&#160;&#160;&#160;&#160;&#160;&#160;Written but never read</text>
<text text-anchor="start" x="2306.5" y="-169.8" font-family="Helvetica,sans-Serif" font-size="9.00" fill="#b71c1c"> &#160;&#160;&#160;&#160;&#160;&#160;&#160;&#160;&#160;&#160;&#160;&#160;&#160;&#160;&#160;&#160;&#160;&#160;&#160;&#160;100% cold miss rate</text>
</g>
<!-- order_api&#45;&gt;cache -->
<g id="edge7" class="edge">
<title>order_api&#45;&gt;cache</title>
<path fill="none" stroke="#ef9a9a" stroke-dasharray="5,2" d="M955.78,-285.94C985.13,-268.39 1032,-241.85 1075,-224 1129.02,-201.57 1142.51,-186 1201,-186 1201,-186 1201,-186 2047,-186 2126.18,-186 2215.85,-186 2282.7,-186"/>
<polygon fill="#ef9a9a" stroke="#ef9a9a" points="2282.81,-189.5 2292.81,-186 2282.81,-182.5 2282.81,-189.5"/>
<text text-anchor="middle" x="1631" y="-198.8" font-family="Helvetica,sans-Serif" font-size="9.00">write&#45;only</text>
<text text-anchor="middle" x="1631" y="-188.8" font-family="Helvetica,sans-Serif" font-size="9.00">(never read)</text>
</g>
<!-- auth_svc&#45;&gt;order_api -->
<g id="edge5" class="edge">
<title>auth_svc&#45;&gt;order_api</title>
<path fill="none" stroke="#555555" d="M727.58,-283.24C770.2,-287.73 818.05,-292.78 855.91,-296.77"/>
<polygon fill="#555555" stroke="#555555" points="856,-300.3 866.31,-297.86 856.73,-293.34 856,-300.3"/>
<text text-anchor="middle" x="797" y="-295.8" font-family="Helvetica,sans-Serif" font-size="9.00">authorized</text>
</g>
<!-- ext_idp -->
<g id="node4" class="node">
<title>ext_idp</title>
<path fill="#ffccbc" stroke="#bf360c" d="M985,-237C985,-237 866,-237 866,-237 860,-237 854,-231 854,-225 854,-225 854,-213 854,-213 854,-207 860,-201 866,-201 866,-201 985,-201 985,-201 991,-201 997,-207 997,-213 997,-213 997,-225 997,-225 997,-231 991,-237 985,-237"/>
<text text-anchor="start" x="890.5" y="-226" font-family="Helvetica,sans-Serif" font-weight="bold" font-size="10.00">External IdP</text>
<text text-anchor="start" x="862" y="-216.8" font-family="Helvetica,sans-Serif" font-size="9.00">Auth0 / undocumented dep</text>
<text text-anchor="start" x="865" y="-207.8" font-family="Helvetica,sans-Serif" font-size="9.00"> &#160;&#160;&#160;&#160;&#160;&#160;&#160;&#160;&#160;&#160;&#160;&#160;&#160;&#160;&#160;&#160;</text>
<text text-anchor="start" x="917" y="-207.8" font-family="Helvetica,sans-Serif" font-weight="bold" font-size="9.00">NOT in&#45;house</text>
</g>
<!-- auth_svc&#45;&gt;ext_idp -->
<g id="edge4" class="edge">
<title>auth_svc&#45;&gt;ext_idp</title>
<path fill="none" stroke="#e65100" stroke-dasharray="5,2" d="M727.15,-253.46C765.43,-246.78 807.98,-239.35 843.74,-233.1"/>
<polygon fill="#e65100" stroke="#e65100" points="844.39,-236.54 853.64,-231.37 843.18,-229.65 844.39,-236.54"/>
<text text-anchor="middle" x="797" y="-257.8" font-family="Helvetica,sans-Serif" font-size="9.00">delegates JWT</text>
<text text-anchor="middle" x="797" y="-247.8" font-family="Helvetica,sans-Serif" font-size="9.00">validation</text>
</g>
<!-- inventory_svc -->
<g id="node6" class="node">
<title>inventory_svc</title>
<path fill="#c8e6c9" stroke="black" d="M1548,-359C1548,-359 1455,-359 1455,-359 1449,-359 1443,-353 1443,-347 1443,-347 1443,-335 1443,-335 1443,-329 1449,-323 1455,-323 1455,-323 1548,-323 1548,-323 1554,-323 1560,-329 1560,-335 1560,-335 1560,-347 1560,-347 1560,-353 1554,-359 1548,-359"/>
<text text-anchor="start" x="1451" y="-343.5" font-family="Helvetica,sans-Serif" font-weight="bold" font-size="10.00">Inventory Service</text>
<text text-anchor="start" x="1471.5" y="-334.3" font-family="Helvetica,sans-Serif" font-size="9.00">Checks stock</text>
</g>
<!-- order_validator&#45;&gt;inventory_svc -->
<g id="edge8" class="edge">
<title>order_validator&#45;&gt;inventory_svc</title>
<path fill="none" stroke="#555555" d="M1255.16,-341C1304.48,-341 1378.74,-341 1432.64,-341"/>
<polygon fill="#555555" stroke="#555555" points="1432.8,-344.5 1442.8,-341 1432.8,-337.5 1432.8,-344.5"/>
<text text-anchor="middle" x="1373.5" y="-343.8" font-family="Helvetica,sans-Serif" font-size="9.00">check stock</text>
</g>
<!-- pricing_engine -->
<g id="node7" class="node">
<title>pricing_engine</title>
<path fill="#c8e6c9" stroke="black" d="M1804.5,-358C1804.5,-358 1729.5,-358 1729.5,-358 1723.5,-358 1717.5,-352 1717.5,-346 1717.5,-346 1717.5,-334 1717.5,-334 1717.5,-328 1723.5,-322 1729.5,-322 1729.5,-322 1804.5,-322 1804.5,-322 1810.5,-322 1816.5,-328 1816.5,-334 1816.5,-334 1816.5,-346 1816.5,-346 1816.5,-352 1810.5,-358 1804.5,-358"/>
<text text-anchor="start" x="1725.5" y="-342.5" font-family="Helvetica,sans-Serif" font-weight="bold" font-size="10.00">Pricing Engine</text>
<text text-anchor="start" x="1727.5" y="-333.3" font-family="Helvetica,sans-Serif" font-size="9.00">Applies discounts</text>
</g>
<!-- inventory_svc&#45;&gt;pricing_engine -->
<g id="edge9" class="edge">
<title>inventory_svc&#45;&gt;pricing_engine</title>
<path fill="none" stroke="#555555" d="M1560,-340.78C1603.6,-340.62 1663.31,-340.39 1707.22,-340.22"/>
<polygon fill="#555555" stroke="#555555" points="1707.47,-343.72 1717.46,-340.18 1707.44,-336.72 1707.47,-343.72"/>
<text text-anchor="middle" x="1631" y="-342.8" font-family="Helvetica,sans-Serif" font-size="9.00">priced</text>
</g>
<!-- payment_svc -->
<g id="node8" class="node">
<title>payment_svc</title>
<path fill="#ffcdd2" stroke="#c62828" stroke-width="2" d="M2149,-358.5C2149,-358.5 1943,-358.5 1943,-358.5 1937,-358.5 1931,-352.5 1931,-346.5 1931,-346.5 1931,-333.5 1931,-333.5 1931,-327.5 1937,-321.5 1943,-321.5 1943,-321.5 2149,-321.5 2149,-321.5 2155,-321.5 2161,-327.5 2161,-333.5 2161,-333.5 2161,-346.5 2161,-346.5 2161,-352.5 2155,-358.5 2149,-358.5"/>
<text text-anchor="start" x="1998" y="-347.5" font-family="Helvetica,sans-Serif" font-weight="bold" font-size="10.00">Payment Service</text>
<text text-anchor="start" x="1965" y="-337.5" font-family="Helvetica,sans-Serif" font-size="10.00"> &#160;&#160;&#160;&#160;&#160;&#160;&#160;&#160;&#160;&#160;&#160;&#160;&#160;&#160;&#160;&#160;&#160;&#160;&#160;&#160;&#160;&#160;&#160;&#160;</text>
<text text-anchor="start" x="2041" y="-337.5" font-family="Helvetica,sans-Serif" font-size="9.00" fill="#b71c1c">✗ NO RETRY LOGIC</text>
<text text-anchor="start" x="1939" y="-328.3" font-family="Helvetica,sans-Serif" font-size="9.00" fill="#b71c1c"> &#160;&#160;&#160;&#160;&#160;&#160;&#160;&#160;&#160;&#160;&#160;&#160;&#160;&#160;&#160;&#160;&#160;&#160;&#160;&#160;&#160;&#160;&#160;&#160;Transient failures → silent drop</text>
</g>
<!-- pricing_engine&#45;&gt;payment_svc -->
<g id="edge10" class="edge">
<title>pricing_engine&#45;&gt;payment_svc</title>
<path fill="none" stroke="#555555" d="M1816.57,-340C1845.5,-340 1883.66,-340 1920.48,-340"/>
<polygon fill="#555555" stroke="#555555" points="1920.82,-343.5 1930.82,-340 1920.82,-336.5 1920.82,-343.5"/>
<text text-anchor="middle" x="1890" y="-342.8" font-family="Helvetica,sans-Serif" font-size="9.00">charge</text>
</g>
<!-- retry_logic -->
<g id="node9" class="node">
<title>retry_logic</title>
<polygon fill="#eeeeee" stroke="#9e9e9e" stroke-width="2" stroke-dasharray="5,2" points="1321,-287 1083,-287 1083,-241 1321,-241 1321,-287"/>
<text text-anchor="start" x="1169.5" y="-276" font-family="Helvetica,sans-Serif" font-weight="bold" font-size="10.00" fill="#9e9e9e">Retry Logic</text>
<text text-anchor="start" x="1131" y="-266" font-family="Helvetica,sans-Serif" font-size="10.00" fill="#9e9e9e"> &#160;&#160;&#160;&#160;&#160;&#160;&#160;&#160;&#160;&#160;&#160;&#160;&#160;&#160;&#160;&#160;&#160;&#160;&#160;&#160;&#160;&#160;&#160;&#160;</text>
<text text-anchor="start" x="1207" y="-266" font-family="Helvetica,sans-Serif" font-size="9.00" fill="#9e9e9e">☠ DEAD CODE</text>
<text text-anchor="start" x="1091" y="-256.8" font-family="Helvetica,sans-Serif" font-size="9.00" fill="#9e9e9e"> &#160;&#160;&#160;&#160;&#160;&#160;&#160;&#160;&#160;&#160;&#160;&#160;&#160;&#160;&#160;&#160;&#160;&#160;&#160;&#160;&#160;&#160;&#160;&#160;Module exists but never invoked</text>
<text text-anchor="start" x="1100.5" y="-247.8" font-family="Helvetica,sans-Serif" font-size="9.00" fill="#9e9e9e"> &#160;&#160;&#160;&#160;&#160;&#160;&#160;&#160;&#160;&#160;&#160;&#160;&#160;&#160;&#160;&#160;&#160;&#160;&#160;&#160;&#160;&#160;&#160;&#160;Unreachable from any caller</text>
</g>
<!-- payment_svc&#45;&gt;retry_logic -->
<g id="edge17" class="edge">
<title>payment_svc&#45;&gt;retry_logic</title>
<path fill="none" stroke="#bdbdbd" stroke-dasharray="5,2" d="M1956.56,-321.43C1923.01,-315 1884.37,-308.33 1849,-304 1670.18,-282.12 1461.97,-271.96 1331.32,-267.42"/>
<polygon fill="#bdbdbd" stroke="#bdbdbd" points="1331.38,-263.92 1321.27,-267.07 1331.14,-270.91 1331.38,-263.92"/>
<text text-anchor="middle" x="1631" y="-297.8" font-family="Helvetica,sans-Serif" font-size="9.00">should call</text>
<text text-anchor="middle" x="1631" y="-287.8" font-family="Helvetica,sans-Serif" font-size="9.00">(never does)</text>
</g>
<!-- order_db -->
<g id="node13" class="node">
<title>order_db</title>
<path fill="#e1bee7" stroke="black" d="M2422,-424.24C2422,-426.11 2405.19,-427.63 2384.5,-427.63 2363.81,-427.63 2347,-426.11 2347,-424.24 2347,-424.24 2347,-393.76 2347,-393.76 2347,-391.89 2363.81,-390.37 2384.5,-390.37 2405.19,-390.37 2422,-391.89 2422,-393.76 2422,-393.76 2422,-424.24 2422,-424.24"/>
<path fill="none" stroke="black" d="M2422,-424.24C2422,-422.37 2405.19,-420.85 2384.5,-420.85 2363.81,-420.85 2347,-422.37 2347,-424.24"/>
<text text-anchor="start" x="2355" y="-411.5" font-family="Helvetica,sans-Serif" font-weight="bold" font-size="10.00">Orders DB</text>
<text text-anchor="start" x="2358.5" y="-402.3" font-family="Helvetica,sans-Serif" font-size="9.00">PostgreSQL</text>
</g>
<!-- payment_svc&#45;&gt;order_db -->
<g id="edge11" class="edge">
<title>payment_svc&#45;&gt;order_db</title>
<path fill="none" stroke="#555555" d="M2137.62,-358.58C2202.04,-371.79 2285.91,-388.99 2337.17,-399.5"/>
<polygon fill="#555555" stroke="#555555" points="2336.47,-402.93 2346.97,-401.51 2337.88,-396.07 2336.47,-402.93"/>
<text text-anchor="middle" x="2218" y="-382.8" font-family="Helvetica,sans-Serif" font-size="9.00">record</text>
</g>
<!-- event_queue -->
<g id="node15" class="node">
<title>event_queue</title>
<path fill="#ffcdd2" stroke="#c62828" stroke-width="2" d="M2494,-348.98C2494,-352.16 2444.92,-354.75 2384.5,-354.75 2324.08,-354.75 2275,-352.16 2275,-348.98 2275,-348.98 2275,-297.02 2275,-297.02 2275,-293.84 2324.08,-291.25 2384.5,-291.25 2444.92,-291.25 2494,-293.84 2494,-297.02 2494,-297.02 2494,-348.98 2494,-348.98"/>
<path fill="none" stroke="#c62828" stroke-width="2" d="M2494,-348.98C2494,-345.79 2444.92,-343.2 2384.5,-343.2 2324.08,-343.2 2275,-345.79 2275,-348.98"/>
<text text-anchor="start" x="2349" y="-335" font-family="Helvetica,sans-Serif" font-weight="bold" font-size="10.00">Event Queue</text>
<text text-anchor="start" x="2307.5" y="-325" font-family="Helvetica,sans-Serif" font-size="10.00"> &#160;&#160;&#160;&#160;&#160;&#160;&#160;&#160;&#160;&#160;&#160;&#160;&#160;&#160;&#160;&#160;&#160;&#160;&#160;&#160;</text>
<text text-anchor="start" x="2371.5" y="-325" font-family="Helvetica,sans-Serif" font-size="9.00" fill="#b71c1c">✗ SYNC NOT ASYNC</text>
<text text-anchor="start" x="2283.5" y="-315.8" font-family="Helvetica,sans-Serif" font-size="9.00" fill="#b71c1c"> &#160;&#160;&#160;&#160;&#160;&#160;&#160;&#160;&#160;&#160;&#160;&#160;&#160;&#160;&#160;&#160;&#160;&#160;&#160;&#160;Blocking call on payment path</text>
<text text-anchor="start" x="2283" y="-306.8" font-family="Helvetica,sans-Serif" font-size="9.00" fill="#b71c1c"> &#160;&#160;&#160;&#160;&#160;&#160;&#160;&#160;&#160;&#160;&#160;&#160;&#160;&#160;&#160;&#160;&#160;&#160;&#160;&#160;Kafka SDK used synchronously</text>
</g>
<!-- payment_svc&#45;&gt;event_queue -->
<g id="edge12" class="edge">
<title>payment_svc&#45;&gt;event_queue</title>
<path fill="none" stroke="#c62828" stroke-width="2" d="M2161.39,-334.22C2194.63,-332.54 2231.01,-330.7 2264.52,-329.01"/>
<polygon fill="#c62828" stroke="#c62828" stroke-width="2" points="2265.01,-332.49 2274.82,-328.49 2264.66,-325.5 2265.01,-332.49"/>
<text text-anchor="middle" x="2218" y="-334.8" font-family="Helvetica,sans-Serif" font-size="9.00">BLOCKING call</text>
</g>
<!-- findings -->
<g id="node18" class="node">
<title>findings</title>
<polygon fill="#ffebee" stroke="#b71c1c" points="386,-210 16,-210 16,-16 386,-16 386,-210"/>
<polygon fill="#ffcdd2" stroke="transparent" points="26,-183 26,-204 238,-204 238,-183 26,-183"/>
<polygon fill="none" stroke="#b71c1c" points="26,-183 26,-204 238,-204 238,-183 26,-183"/>
<text text-anchor="start" x="110.5" y="-192" font-family="Helvetica,sans-Serif" font-weight="bold" font-size="10.00">Finding</text>
<polygon fill="#ffcdd2" stroke="transparent" points="240,-183 240,-204 376,-204 376,-183 240,-183"/>
<polygon fill="none" stroke="#b71c1c" points="240,-183 240,-204 376,-204 376,-183 240,-183"/>
<text text-anchor="start" x="288" y="-192" font-family="Helvetica,sans-Serif" font-weight="bold" font-size="10.00">Impact</text>
<polygon fill="none" stroke="#b71c1c" points="26,-160 26,-181 238,-181 238,-160 26,-160"/>
<text text-anchor="start" x="31" y="-168" font-family="Helvetica,sans-Serif" font-size="10.00">✗ payment_svc: no retry logic</text>
<polygon fill="none" stroke="#b71c1c" points="240,-160 240,-181 376,-181 376,-160 240,-160"/>
<text text-anchor="start" x="245" y="-168" font-family="Helvetica,sans-Serif" font-size="10.00">Silent transaction drops</text>
<polygon fill="none" stroke="#b71c1c" points="26,-137 26,-158 238,-158 238,-137 26,-137"/>
<text text-anchor="start" x="31" y="-145" font-family="Helvetica,sans-Serif" font-size="10.00">✗ event_queue: synchronous not async</text>
<polygon fill="none" stroke="#b71c1c" points="240,-137 240,-158 376,-158 376,-137 240,-137"/>
<text text-anchor="start" x="245" y="-145" font-family="Helvetica,sans-Serif" font-size="10.00">Blocks payment thread</text>
<polygon fill="none" stroke="#b71c1c" points="26,-114 26,-135 238,-135 238,-114 26,-114"/>
<text text-anchor="start" x="31" y="-122" font-family="Helvetica,sans-Serif" font-size="10.00">✗ cache: write&#45;only, never read</text>
<polygon fill="none" stroke="#b71c1c" points="240,-114 240,-135 376,-135 376,-114 240,-114"/>
<text text-anchor="start" x="245" y="-122" font-family="Helvetica,sans-Serif" font-size="10.00">Wasted CPU + memory</text>
<polygon fill="none" stroke="#b71c1c" points="26,-91 26,-112 238,-112 238,-91 26,-91"/>
<text text-anchor="start" x="31" y="-99" font-family="Helvetica,sans-Serif" font-size="10.00">⚠ auth_svc: undocumented IdP dep</text>
<polygon fill="none" stroke="#b71c1c" points="240,-91 240,-112 376,-112 376,-91 240,-91"/>
<text text-anchor="start" x="245" y="-99" font-family="Helvetica,sans-Serif" font-size="10.00">Hidden outage risk</text>
<polygon fill="none" stroke="#b71c1c" points="26,-68 26,-89 238,-89 238,-68 26,-68"/>
<text text-anchor="start" x="31" y="-76" font-family="Helvetica,sans-Serif" font-size="10.00">⚠ notification_svc: SMS silently removed</text>
<polygon fill="none" stroke="#b71c1c" points="240,-68 240,-89 376,-89 376,-68 240,-68"/>
<text text-anchor="start" x="245" y="-76" font-family="Helvetica,sans-Serif" font-size="10.00">Broken customer promise</text>
<polygon fill="none" stroke="#b71c1c" points="26,-45 26,-66 238,-66 238,-45 26,-45"/>
<text text-anchor="start" x="31" y="-53" font-family="Helvetica,sans-Serif" font-size="10.00">☠ retry_logic: dead code module</text>
<polygon fill="none" stroke="#b71c1c" points="240,-45 240,-66 376,-66 376,-45 240,-45"/>
<text text-anchor="start" x="245" y="-53" font-family="Helvetica,sans-Serif" font-size="10.00">Maintenance confusion</text>
<polygon fill="none" stroke="#b71c1c" points="26,-22 26,-43 238,-43 238,-22 26,-22"/>
<text text-anchor="start" x="31" y="-30" font-family="Helvetica,sans-Serif" font-size="10.00">☠ analytics cluster: disconnected</text>
<polygon fill="none" stroke="#b71c1c" points="240,-22 240,-43 376,-43 376,-22 240,-22"/>
<text text-anchor="start" x="245" y="-30" font-family="Helvetica,sans-Serif" font-size="10.00">Stale reporting data</text>
</g>
<!-- payment_svc&#45;&gt;findings -->
<g id="edge18" class="edge">
<title>payment_svc&#45;&gt;findings</title>
<path fill="none" stroke="#b71c1c" stroke-dasharray="1,5" d="M2019.16,-321.32C1959.51,-279.46 1806.11,-178.91 1660,-142 1219.1,-30.62 679.13,-61.26 396.17,-89.46"/>
<polygon fill="#b71c1c" stroke="#b71c1c" points="395.82,-85.98 386.22,-90.46 396.52,-92.94 395.82,-85.98"/>
<text text-anchor="middle" x="1202" y="-94.8" font-family="Helvetica,sans-Serif" font-size="9.00">7 issues</text>
<text text-anchor="middle" x="1202" y="-84.8" font-family="Helvetica,sans-Serif" font-size="9.00">found</text>
</g>
<!-- fulfilment_svc -->
<g id="node10" class="node">
<title>fulfilment_svc</title>
<path fill="#ffe0b2" stroke="black" d="M2726,-341C2726,-341 2622,-341 2622,-341 2616,-341 2610,-335 2610,-329 2610,-329 2610,-317 2610,-317 2610,-311 2616,-305 2622,-305 2622,-305 2726,-305 2726,-305 2732,-305 2738,-311 2738,-317 2738,-317 2738,-329 2738,-329 2738,-335 2732,-341 2726,-341"/>
<text text-anchor="start" x="2622.5" y="-325.5" font-family="Helvetica,sans-Serif" font-weight="bold" font-size="10.00">Fulfilment Service</text>
<text text-anchor="start" x="2618" y="-316.3" font-family="Helvetica,sans-Serif" font-size="9.00">Creates shipment record</text>
</g>
<!-- shipping_api -->
<g id="node11" class="node">
<title>shipping_api</title>
<path fill="#ffccbc" stroke="black" d="M3007,-295C3007,-295 2941,-295 2941,-295 2935,-295 2929,-289 2929,-283 2929,-283 2929,-271 2929,-271 2929,-265 2935,-259 2941,-259 2941,-259 3007,-259 3007,-259 3013,-259 3019,-265 3019,-271 3019,-271 3019,-283 3019,-283 3019,-289 3013,-295 3007,-295"/>
<text text-anchor="start" x="2937" y="-279.5" font-family="Helvetica,sans-Serif" font-weight="bold" font-size="10.00">Shipping API</text>
<text text-anchor="start" x="2951.5" y="-270.3" font-family="Helvetica,sans-Serif" font-size="9.00">(external)</text>
</g>
<!-- fulfilment_svc&#45;&gt;shipping_api -->
<g id="edge14" class="edge">
<title>fulfilment_svc&#45;&gt;shipping_api</title>
<path fill="none" stroke="#555555" d="M2738.2,-313.24C2791.74,-304.98 2867.72,-293.25 2918.6,-285.4"/>
<polygon fill="#555555" stroke="#555555" points="2919.39,-288.82 2928.74,-283.83 2918.32,-281.9 2919.39,-288.82"/>
<text text-anchor="middle" x="2784.5" y="-311.8" font-family="Helvetica,sans-Serif" font-size="9.00">shipment</text>
</g>
<!-- notification_svc -->
<g id="node12" class="node">
<title>notification_svc</title>
<path fill="#ffe0b2" stroke="#e65100" stroke-width="2" d="M3105,-368.5C3105,-368.5 2843,-368.5 2843,-368.5 2837,-368.5 2831,-362.5 2831,-356.5 2831,-356.5 2831,-343.5 2831,-343.5 2831,-337.5 2837,-331.5 2843,-331.5 2843,-331.5 3105,-331.5 3105,-331.5 3111,-331.5 3117,-337.5 3117,-343.5 3117,-343.5 3117,-356.5 3117,-356.5 3117,-362.5 3111,-368.5 3105,-368.5"/>
<text text-anchor="start" x="2918" y="-357.5" font-family="Helvetica,sans-Serif" font-weight="bold" font-size="10.00">Notification Service</text>
<text text-anchor="start" x="2902" y="-347.5" font-family="Helvetica,sans-Serif" font-size="10.00"> &#160;&#160;&#160;&#160;&#160;&#160;&#160;&#160;&#160;&#160;&#160;&#160;&#160;&#160;&#160;&#160;&#160;&#160;&#160;&#160;&#160;&#160;&#160;&#160;&#160;</text>
<text text-anchor="start" x="2981" y="-347.5" font-family="Helvetica,sans-Serif" font-size="9.00" fill="#e65100">⚠ EMAIL ONLY</text>
<text text-anchor="start" x="2839" y="-338.3" font-family="Helvetica,sans-Serif" font-size="9.00" fill="#e65100"> &#160;&#160;&#160;&#160;&#160;&#160;&#160;&#160;&#160;&#160;&#160;&#160;&#160;&#160;&#160;&#160;&#160;&#160;&#160;&#160;&#160;&#160;&#160;&#160;&#160;SMS path removed but callers unchanged</text>
</g>
<!-- fulfilment_svc&#45;&gt;notification_svc -->
<g id="edge15" class="edge">
<title>fulfilment_svc&#45;&gt;notification_svc</title>
<path fill="none" stroke="#555555" d="M2738.2,-328.73C2762.5,-330.93 2791.42,-333.55 2820.51,-336.18"/>
<polygon fill="#555555" stroke="#555555" points="2820.53,-339.7 2830.8,-337.12 2821.16,-332.73 2820.53,-339.7"/>
<text text-anchor="middle" x="2784.5" y="-336.8" font-family="Helvetica,sans-Serif" font-size="9.00">notify</text>
</g>
<!-- cache&#45;&gt;cache -->
<g id="edge16" class="edge">
<title>cache&#45;&gt;cache</title>
<path fill="none" stroke="#9e9e9e" stroke-dasharray="5,2" d="M2355.2,-217.65C2348.96,-236.23 2358.72,-253.62 2384.5,-253.62 2405.44,-253.62 2415.82,-242.14 2415.62,-227.87"/>
<polygon fill="#9e9e9e" stroke="#9e9e9e" points="2419,-226.88 2413.8,-217.65 2412.11,-228.11 2419,-226.88"/>
<text text-anchor="middle" x="2384.5" y="-266.43" font-family="Helvetica,sans-Serif" font-size="9.00">write&#45;only</text>
<text text-anchor="middle" x="2384.5" y="-256.43" font-family="Helvetica,sans-Serif" font-size="9.00">no readers</text>
</g>
<!-- event_queue&#45;&gt;fulfilment_svc -->
<g id="edge13" class="edge">
<title>event_queue&#45;&gt;fulfilment_svc</title>
<path fill="none" stroke="#555555" d="M2494.19,-323C2529.35,-323 2567.48,-323 2599.46,-323"/>
<polygon fill="#555555" stroke="#555555" points="2599.62,-326.5 2609.62,-323 2599.62,-319.5 2599.62,-326.5"/>
<text text-anchor="middle" x="2552" y="-335.8" font-family="Helvetica,sans-Serif" font-size="9.00">triggers</text>
<text text-anchor="middle" x="2552" y="-325.8" font-family="Helvetica,sans-Serif" font-size="9.00">(synchronous)</text>
</g>
<!-- analytics_svc -->
<g id="node16" class="node">
<title>analytics_svc</title>
<polygon fill="#eeeeee" stroke="#9e9e9e" stroke-dasharray="5,2" points="311.5,-466 90.5,-466 90.5,-420 311.5,-420 311.5,-466"/>
<text text-anchor="start" x="151.5" y="-455" font-family="Helvetica,sans-Serif" font-weight="bold" font-size="10.00" fill="#9e9e9e">Analytics Service</text>
<text text-anchor="start" x="101" y="-445" font-family="Helvetica,sans-Serif" font-size="10.00" fill="#9e9e9e"> &#160;&#160;&#160;&#160;&#160;&#160;&#160;&#160;&#160;&#160;&#160;&#160;&#160;&#160;&#160;&#160;&#160;&#160;&#160;&#160;&#160;&#160;</text>
<text text-anchor="start" x="171" y="-445" font-family="Helvetica,sans-Serif" font-size="9.00" fill="#9e9e9e">☠ NEVER RECEIVES EVENTS</text>
<text text-anchor="start" x="98.5" y="-435.8" font-family="Helvetica,sans-Serif" font-size="9.00" fill="#9e9e9e"> &#160;&#160;&#160;&#160;&#160;&#160;&#160;&#160;&#160;&#160;&#160;&#160;&#160;&#160;&#160;&#160;&#160;&#160;&#160;&#160;&#160;&#160;event_queue → analytics path</text>
<text text-anchor="start" x="107.5" y="-426.8" font-family="Helvetica,sans-Serif" font-size="9.00" fill="#9e9e9e"> &#160;&#160;&#160;&#160;&#160;&#160;&#160;&#160;&#160;&#160;&#160;&#160;&#160;&#160;&#160;&#160;&#160;&#160;&#160;&#160;&#160;&#160;removed in commit a3f2c</text>
</g>
<!-- reporting_db -->
<g id="node17" class="node">
<title>reporting_db</title>
<path fill="#eeeeee" stroke="#9e9e9e" d="M740,-458.55C740,-460.45 686.21,-462 620,-462 553.79,-462 500,-460.45 500,-458.55 500,-458.55 500,-427.45 500,-427.45 500,-425.55 553.79,-424 620,-424 686.21,-424 740,-425.55 740,-427.45 740,-427.45 740,-458.55 740,-458.55"/>
<path fill="none" stroke="#9e9e9e" d="M740,-458.55C740,-456.64 686.21,-455.09 620,-455.09 553.79,-455.09 500,-456.64 500,-458.55"/>
<text text-anchor="start" x="582" y="-446" font-family="Helvetica,sans-Serif" font-weight="bold" font-size="10.00">Reporting DB</text>
<text text-anchor="start" x="508" y="-436" font-family="Helvetica,sans-Serif" font-size="10.00"> &#160;&#160;&#160;&#160;&#160;&#160;&#160;&#160;&#160;&#160;&#160;&#160;&#160;&#160;&#160;&#160;&#160;&#160;&#160;&#160;&#160;&#160;</text>
<text text-anchor="start" x="578" y="-436" font-family="Helvetica,sans-Serif" font-size="9.00" fill="#9e9e9e">☠ STALE — last write 47 days ago</text>
</g>
<!-- analytics_svc&#45;&gt;reporting_db -->
<g id="edge1" class="edge">
<title>analytics_svc&#45;&gt;reporting_db</title>
<path fill="none" stroke="#bdbdbd" stroke-dasharray="5,2" d="M311.56,-443C366.2,-443 432.63,-443 489.74,-443"/>
<polygon fill="#bdbdbd" stroke="#bdbdbd" points="489.92,-446.5 499.92,-443 489.92,-439.5 489.92,-446.5"/>
</g>
<!-- l_ok -->
<g id="node19" class="node">
<title>l_ok</title>
<path fill="#c8e6c9" stroke="#2e7d32" d="M262.17,-535C262.17,-535 139.83,-535 139.83,-535 136.17,-535 132.5,-531.33 132.5,-527.67 132.5,-527.67 132.5,-520.33 132.5,-520.33 132.5,-516.67 136.17,-513 139.83,-513 139.83,-513 262.17,-513 262.17,-513 265.83,-513 269.5,-516.67 269.5,-520.33 269.5,-520.33 269.5,-527.67 269.5,-527.67 269.5,-531.33 265.83,-535 262.17,-535"/>
<text text-anchor="middle" x="201" y="-521.8" font-family="Helvetica,sans-Serif" font-size="9.00">Verified correct</text>
</g>
<!-- l_warn -->
<g id="node20" class="node">
<title>l_warn</title>
<path fill="#ffe0b2" stroke="#e65100" d="M681.17,-535C681.17,-535 558.83,-535 558.83,-535 555.17,-535 551.5,-531.33 551.5,-527.67 551.5,-527.67 551.5,-520.33 551.5,-520.33 551.5,-516.67 555.17,-513 558.83,-513 558.83,-513 681.17,-513 681.17,-513 684.83,-513 688.5,-516.67 688.5,-520.33 688.5,-520.33 688.5,-527.67 688.5,-527.67 688.5,-531.33 684.83,-535 681.17,-535"/>
<text text-anchor="middle" x="620" y="-521.8" font-family="Helvetica,sans-Serif" font-size="9.00">⚠ Differs from belief</text>
</g>
<!-- l_ok&#45;&gt;l_warn -->
<!-- l_error -->
<g id="node21" class="node">
<title>l_error</title>
<path fill="#ffcdd2" stroke="#c62828" d="M986.67,-535C986.67,-535 864.33,-535 864.33,-535 860.67,-535 857,-531.33 857,-527.67 857,-527.67 857,-520.33 857,-520.33 857,-516.67 860.67,-513 864.33,-513 864.33,-513 986.67,-513 986.67,-513 990.33,-513 994,-516.67 994,-520.33 994,-520.33 994,-527.67 994,-527.67 994,-531.33 990.33,-535 986.67,-535"/>
<text text-anchor="middle" x="925.5" y="-521.8" font-family="Helvetica,sans-Serif" font-size="9.00">✗ Missing / wrong</text>
</g>
<!-- l_warn&#45;&gt;l_error -->
<!-- l_dead -->
<g id="node22" class="node">
<title>l_dead</title>
<polygon fill="#eeeeee" stroke="#9e9e9e" stroke-dasharray="5,2" points="1270.5,-535 1133.5,-535 1133.5,-513 1270.5,-513 1270.5,-535"/>
<text text-anchor="middle" x="1202" y="-521.8" font-family="Helvetica,sans-Serif" font-size="9.00">☠ Dead code / orphaned</text>
</g>
<!-- l_error&#45;&gt;l_dead -->
<!-- l_e_solid -->
<g id="node23" class="node">
<title>l_e_solid</title>
<polygon fill="lightgrey" stroke="transparent" points="1577,-535 1426,-535 1426,-513 1577,-513 1577,-535"/>
<text text-anchor="middle" x="1501.5" y="-521.8" font-family="Helvetica,sans-Serif" font-size="9.00">─── Live call / data flow</text>
</g>
<!-- l_dead&#45;&gt;l_e_solid -->
<!-- l_e_dashed -->
<g id="node24" class="node">
<title>l_e_dashed</title>
<polygon fill="lightgrey" stroke="transparent" points="1849,-535 1685,-535 1685,-513 1849,-513 1849,-535"/>
<text text-anchor="middle" x="1767" y="-521.8" font-family="Helvetica,sans-Serif" font-size="9.00">&#45; &#45; Dead / conditional / delegated</text>
</g>
<!-- l_e_solid&#45;&gt;l_e_dashed -->
<!-- l_e_dotted -->
<g id="node25" class="node">
<title>l_e_dotted</title>
<polygon fill="lightgrey" stroke="transparent" points="2121.5,-535 1970.5,-535 1970.5,-513 2121.5,-513 2121.5,-535"/>
<text text-anchor="middle" x="2046" y="-521.8" font-family="Helvetica,sans-Serif" font-size="9.00">···· Reference / annotation</text>
</g>
<!-- l_e_dashed&#45;&gt;l_e_dotted -->
<!-- l_e_bold -->
<g id="node26" class="node">
<title>l_e_bold</title>
<polygon fill="lightgrey" stroke="transparent" points="2460,-535 2309,-535 2309,-513 2460,-513 2460,-535"/>
<text text-anchor="middle" x="2384.5" y="-521.8" font-family="Helvetica,sans-Serif" font-size="9.00">━━━ Blocking / critical path</text>
</g>
<!-- l_e_dotted&#45;&gt;l_e_bold -->
</g>
</svg>
