<?xml version="1.0" encoding="UTF-8" standalone="no"?>
<!DOCTYPE svg PUBLIC "-//W3C//DTD SVG 1.1//EN"
 "http://www.w3.org/Graphics/SVG/1.1/DTD/svg11.dtd">
<!-- Generated by graphviz version 2.43.0 (0)
 -->
<!-- Title: multiscale_overview Pages: 1 -->
<svg width="1404pt" height="790pt"
 viewBox="0.00 0.00 1404.40 789.65" xmlns="http://www.w3.org/2000/svg" xmlns:xlink="http://www.w3.org/1999/xlink">
<g id="graph0" class="graph" transform="scale(1 1) rotate(0) translate(43.2 746.45)">
<title>multiscale_overview</title>
<polygon fill="white" stroke="transparent" points="-43.2,43.2 -43.2,-746.45 1361.2,-746.45 1361.2,43.2 -43.2,43.2"/>
<text text-anchor="start" x="532.5" y="-689.05" font-family="Helvetica,sans-Serif" font-weight="bold" font-size="14.00">CloudSaaS Platform — Overview</text>
<text text-anchor="start" x="414.5" y="-675.05" font-family="Helvetica,sans-Serif" font-size="14.00"> &#160;&#160;&#160;&#160;&#160;&#160;&#160;&#160;&#160;&#160;</text>
<text text-anchor="start" x="464.5" y="-675.05" font-family="Helvetica,sans-Serif" font-size="11.00">System&#45;level view: 5 subsystems · Key data flows · See detail files for internals</text>
<g id="clust1" class="cluster">
<title>cluster_external</title>
<path fill="#eceff1" stroke="#607d8b" d="M595,-561.25C595,-561.25 957,-561.25 957,-561.25 963,-561.25 969,-567.25 969,-573.25 969,-573.25 969,-647.25 969,-647.25 969,-653.25 963,-659.25 957,-659.25 957,-659.25 595,-659.25 595,-659.25 589,-659.25 583,-653.25 583,-647.25 583,-647.25 583,-573.25 583,-573.25 583,-567.25 589,-561.25 595,-561.25"/>
<text text-anchor="start" x="742.5" y="-645.05" font-family="Helvetica,sans-Serif" font-weight="bold" font-size="14.00">External</text>
</g>
<g id="clust2" class="cluster">
<title>cluster_gateway</title>
<path fill="#e3f2fd" stroke="#1565c0" stroke-width="2" d="M660,-404.25C660,-404.25 786,-404.25 786,-404.25 792,-404.25 798,-410.25 798,-416.25 798,-416.25 798,-506.25 798,-506.25 798,-512.25 792,-518.25 786,-518.25 786,-518.25 660,-518.25 660,-518.25 654,-518.25 648,-512.25 648,-506.25 648,-506.25 648,-416.25 648,-416.25 648,-410.25 654,-404.25 660,-404.25"/>
<text text-anchor="start" x="659.5" y="-504.05" font-family="Helvetica,sans-Serif" font-weight="bold" font-size="14.00">Gateway &amp; Auth</text>
<text text-anchor="start" x="656" y="-494.05" font-family="Helvetica,sans-Serif" font-size="9.00">see: 04b&#45;multiscale&#45;detail.dot</text>
</g>
<g id="clust3" class="cluster">
<title>cluster_platform</title>
<path fill="#e8f5e9" stroke="#2e7d32" stroke-width="2" d="M894,-263.25C894,-263.25 1139,-263.25 1139,-263.25 1145,-263.25 1151,-269.25 1151,-275.25 1151,-275.25 1151,-490.25 1151,-490.25 1151,-496.25 1145,-502.25 1139,-502.25 1139,-502.25 894,-502.25 894,-502.25 888,-502.25 882,-496.25 882,-490.25 882,-490.25 882,-275.25 882,-275.25 882,-269.25 888,-263.25 894,-263.25"/>
<text text-anchor="start" x="961.5" y="-488.05" font-family="Helvetica,sans-Serif" font-weight="bold" font-size="14.00">Core Platform</text>
</g>
<g id="clust4" class="cluster">
<title>cluster_product</title>
<path fill="#fff3e0" stroke="#e65100" stroke-width="2" d="M459,-263.25C459,-263.25 862,-263.25 862,-263.25 868,-263.25 874,-269.25 874,-275.25 874,-275.25 874,-349.25 874,-349.25 874,-355.25 868,-361.25 862,-361.25 862,-361.25 459,-361.25 459,-361.25 453,-361.25 447,-355.25 447,-349.25 447,-349.25 447,-275.25 447,-275.25 447,-269.25 453,-263.25 459,-263.25"/>
<text text-anchor="start" x="597.5" y="-347.05" font-family="Helvetica,sans-Serif" font-weight="bold" font-size="14.00">Product Domain</text>
</g>
<g id="clust5" class="cluster">
<title>cluster_data</title>
<path fill="#f3e5f5" stroke="#6a1b9a" stroke-width="2" d="M602,-8C602,-8 944,-8 944,-8 950,-8 956,-14 956,-20 956,-20 956,-208.25 956,-208.25 956,-214.25 950,-220.25 944,-220.25 944,-220.25 602,-220.25 602,-220.25 596,-220.25 590,-214.25 590,-208.25 590,-208.25 590,-20 590,-20 590,-14 596,-8 602,-8"/>
<text text-anchor="start" x="730" y="-206.05" font-family="Helvetica,sans-Serif" font-weight="bold" font-size="14.00">Data Layer</text>
</g>
<g id="clust6" class="cluster">
<title>cluster_obs</title>
<path fill="#e0f2f1" stroke="#00695c" stroke-width="2" d="M20,-121.69C20,-121.69 403,-121.69 403,-121.69 409,-121.69 415,-127.69 415,-133.69 415,-133.69 415,-207.69 415,-207.69 415,-213.69 409,-219.69 403,-219.69 403,-219.69 20,-219.69 20,-219.69 14,-219.69 8,-213.69 8,-207.69 8,-207.69 8,-133.69 8,-133.69 8,-127.69 14,-121.69 20,-121.69"/>
<text text-anchor="start" x="159" y="-205.49" font-family="Helvetica,sans-Serif" font-weight="bold" font-size="14.00">Observability</text>
</g>
<g id="clust7" class="cluster">
<title>cluster_legend</title>
<path fill="#fafafa" stroke="#9e9e9e" d="M1190,-15.56C1190,-15.56 1298,-15.56 1298,-15.56 1304,-15.56 1310,-21.56 1310,-27.56 1310,-27.56 1310,-632.25 1310,-632.25 1310,-638.25 1304,-644.25 1298,-644.25 1298,-644.25 1190,-644.25 1190,-644.25 1184,-644.25 1178,-638.25 1178,-632.25 1178,-632.25 1178,-27.56 1178,-27.56 1178,-21.56 1184,-15.56 1190,-15.56"/>
<text text-anchor="start" x="1223" y="-633.25" font-family="Helvetica,sans-Serif" font-weight="bold" font-size="10.00">Legend</text>
</g>
<!-- web_client -->
<g id="node1" class="node">
<title>web_client</title>
<path fill="#cfd8dc" stroke="black" d="M657,-605.25C657,-605.25 603,-605.25 603,-605.25 597,-605.25 591,-599.25 591,-593.25 591,-593.25 591,-581.25 591,-581.25 591,-575.25 597,-569.25 603,-569.25 603,-569.25 657,-569.25 657,-569.25 663,-569.25 669,-575.25 669,-581.25 669,-581.25 669,-593.25 669,-593.25 669,-599.25 663,-605.25 657,-605.25"/>
<text text-anchor="start" x="599" y="-589.75" font-family="Helvetica,sans-Serif" font-weight="bold" font-size="10.00">Web Client</text>
<text text-anchor="start" x="607" y="-580.55" font-family="Helvetica,sans-Serif" font-size="9.00">React SPA</text>
</g>
<!-- gw_node -->
<g id="node4" class="node">
<title>gw_node</title>
<path fill="#bbdefb" stroke="black" d="M770,-448.25C770,-448.25 676,-448.25 676,-448.25 670,-448.25 664,-442.25 664,-436.25 664,-436.25 664,-424.25 664,-424.25 664,-418.25 670,-412.25 676,-412.25 676,-412.25 770,-412.25 770,-412.25 776,-412.25 782,-418.25 782,-424.25 782,-424.25 782,-436.25 782,-436.25 782,-442.25 776,-448.25 770,-448.25"/>
<text text-anchor="start" x="687" y="-437.25" font-family="Helvetica,sans-Serif" font-weight="bold" font-size="10.00">API Gateway</text>
<text text-anchor="start" x="672" y="-428.05" font-family="Helvetica,sans-Serif" font-size="9.00">Rate limiting · Routing</text>
<text text-anchor="start" x="678" y="-419.05" font-family="Helvetica,sans-Serif" font-size="9.00">JWT validation · TLS</text>
</g>
<!-- web_client&#45;&gt;gw_node -->
<g id="edge1" class="edge">
<title>web_client&#45;&gt;gw_node</title>
<path fill="none" stroke="#555555" stroke-width="2" d="M640.31,-569.07C656.58,-541.95 688.32,-489.05 707.39,-457.26"/>
<polygon fill="#555555" stroke="#555555" stroke-width="2" points="710.5,-458.88 712.65,-448.51 704.5,-455.28 710.5,-458.88"/>
<text text-anchor="middle" x="679.5" y="-529.05" font-family="Helvetica,sans-Serif" font-size="9.00">HTTPS</text>
</g>
<!-- mobile_app -->
<g id="node2" class="node">
<title>mobile_app</title>
<path fill="#cfd8dc" stroke="black" d="M781.5,-605.25C781.5,-605.25 724.5,-605.25 724.5,-605.25 718.5,-605.25 712.5,-599.25 712.5,-593.25 712.5,-593.25 712.5,-581.25 712.5,-581.25 712.5,-575.25 718.5,-569.25 724.5,-569.25 724.5,-569.25 781.5,-569.25 781.5,-569.25 787.5,-569.25 793.5,-575.25 793.5,-581.25 793.5,-581.25 793.5,-593.25 793.5,-593.25 793.5,-599.25 787.5,-605.25 781.5,-605.25"/>
<text text-anchor="start" x="720.5" y="-589.75" font-family="Helvetica,sans-Serif" font-weight="bold" font-size="10.00">Mobile App</text>
<text text-anchor="start" x="723" y="-580.55" font-family="Helvetica,sans-Serif" font-size="9.00">iOS / Android</text>
</g>
<!-- mobile_app&#45;&gt;gw_node -->
<g id="edge2" class="edge">
<title>mobile_app&#45;&gt;gw_node</title>
<path fill="none" stroke="#555555" stroke-width="2" d="M749.67,-569.07C744.49,-542.3 734.45,-490.41 728.27,-458.5"/>
<polygon fill="#555555" stroke="#555555" stroke-width="2" points="731.68,-457.66 726.34,-448.51 724.8,-458.99 731.68,-457.66"/>
<text text-anchor="middle" x="757.5" y="-529.05" font-family="Helvetica,sans-Serif" font-size="9.00">HTTPS</text>
</g>
<!-- partner_api -->
<g id="node3" class="node">
<title>partner_api</title>
<path fill="#cfd8dc" stroke="black" d="M949,-605.25C949,-605.25 849,-605.25 849,-605.25 843,-605.25 837,-599.25 837,-593.25 837,-593.25 837,-581.25 837,-581.25 837,-575.25 843,-569.25 849,-569.25 849,-569.25 949,-569.25 949,-569.25 955,-569.25 961,-575.25 961,-581.25 961,-581.25 961,-593.25 961,-593.25 961,-599.25 955,-605.25 949,-605.25"/>
<text text-anchor="start" x="863.5" y="-589.75" font-family="Helvetica,sans-Serif" font-weight="bold" font-size="10.00">Partner APIs</text>
<text text-anchor="start" x="845" y="-580.55" font-family="Helvetica,sans-Serif" font-size="9.00">Third&#45;party integrations</text>
</g>
<!-- partner_api&#45;&gt;gw_node -->
<g id="edge3" class="edge">
<title>partner_api&#45;&gt;gw_node</title>
<path fill="none" stroke="#555555" stroke-dasharray="5,2" d="M887.55,-569.2C878.65,-556.61 865.58,-539.43 852,-526.25 823.28,-498.37 786.08,-471.81 759.01,-453.9"/>
<polygon fill="#555555" stroke="#555555" points="760.89,-450.94 750.6,-448.4 757.05,-456.8 760.89,-450.94"/>
<text text-anchor="middle" x="889" y="-529.05" font-family="Helvetica,sans-Serif" font-size="9.00">HTTPS/mTLS</text>
</g>
<!-- user_svc -->
<g id="node5" class="node">
<title>user_svc</title>
<path fill="#c8e6c9" stroke="black" d="M985.5,-307.25C985.5,-307.25 920.5,-307.25 920.5,-307.25 914.5,-307.25 908.5,-301.25 908.5,-295.25 908.5,-295.25 908.5,-283.25 908.5,-283.25 908.5,-277.25 914.5,-271.25 920.5,-271.25 920.5,-271.25 985.5,-271.25 985.5,-271.25 991.5,-271.25 997.5,-277.25 997.5,-283.25 997.5,-283.25 997.5,-295.25 997.5,-295.25 997.5,-301.25 991.5,-307.25 985.5,-307.25"/>
<text text-anchor="start" x="916.5" y="-291.75" font-family="Helvetica,sans-Serif" font-weight="bold" font-size="10.00">User Service</text>
<text text-anchor="start" x="921.5" y="-282.55" font-family="Helvetica,sans-Serif" font-size="9.00">Profiles · Orgs</text>
</g>
<!-- gw_node&#45;&gt;user_svc -->
<g id="edge4" class="edge">
<title>gw_node&#45;&gt;user_svc</title>
<path fill="none" stroke="#555555" stroke-width="2" d="M777.95,-412.22C810.43,-400.7 851.44,-383.51 884,-361.25 902.68,-348.48 920.39,-330.07 933.19,-315.2"/>
<polygon fill="#555555" stroke="#555555" stroke-width="2" points="936.02,-317.27 939.77,-307.36 930.66,-312.77 936.02,-317.27"/>
<text text-anchor="middle" x="882" y="-372.05" font-family="Helvetica,sans-Serif" font-size="9.00">authn</text>
</g>
<!-- tenant_svc -->
<g id="node6" class="node">
<title>tenant_svc</title>
<path fill="#c8e6c9" stroke="black" d="M1131,-448.25C1131,-448.25 1041,-448.25 1041,-448.25 1035,-448.25 1029,-442.25 1029,-436.25 1029,-436.25 1029,-424.25 1029,-424.25 1029,-418.25 1035,-412.25 1041,-412.25 1041,-412.25 1131,-412.25 1131,-412.25 1137,-412.25 1143,-418.25 1143,-424.25 1143,-424.25 1143,-436.25 1143,-436.25 1143,-442.25 1137,-448.25 1131,-448.25"/>
<text text-anchor="start" x="1044" y="-432.75" font-family="Helvetica,sans-Serif" font-weight="bold" font-size="10.00">Tenant Service</text>
<text text-anchor="start" x="1037" y="-423.55" font-family="Helvetica,sans-Serif" font-size="9.00">Multi&#45;tenancy · Billing</text>
</g>
<!-- gw_node&#45;&gt;tenant_svc -->
<g id="edge5" class="edge">
<title>gw_node&#45;&gt;tenant_svc</title>
<path fill="none" stroke="#555555" d="M747.81,-448.33C776.19,-467.78 824.83,-497.52 872,-509.25 930.23,-523.73 951.57,-532.21 1007,-509.25 1032.64,-498.63 1054.3,-475.2 1068.42,-456.6"/>
<polygon fill="#555555" stroke="#555555" points="1071.29,-458.6 1074.36,-448.46 1065.64,-454.47 1071.29,-458.6"/>
<text text-anchor="middle" x="838" y="-529.05" font-family="Helvetica,sans-Serif" font-size="9.00">authz</text>
</g>
<!-- catalog_svc -->
<g id="node8" class="node">
<title>catalog_svc</title>
<path fill="#ffe0b2" stroke="black" d="M549.5,-307.25C549.5,-307.25 466.5,-307.25 466.5,-307.25 460.5,-307.25 454.5,-301.25 454.5,-295.25 454.5,-295.25 454.5,-283.25 454.5,-283.25 454.5,-277.25 460.5,-271.25 466.5,-271.25 466.5,-271.25 549.5,-271.25 549.5,-271.25 555.5,-271.25 561.5,-277.25 561.5,-283.25 561.5,-283.25 561.5,-295.25 561.5,-295.25 561.5,-301.25 555.5,-307.25 549.5,-307.25"/>
<text text-anchor="start" x="462.5" y="-291.75" font-family="Helvetica,sans-Serif" font-weight="bold" font-size="10.00">Catalog Service</text>
<text text-anchor="start" x="468" y="-282.55" font-family="Helvetica,sans-Serif" font-size="9.00">Products · Pricing</text>
</g>
<!-- gw_node&#45;&gt;catalog_svc -->
<g id="edge6" class="edge">
<title>gw_node&#45;&gt;catalog_svc</title>
<path fill="none" stroke="#555555" stroke-width="2" d="M679.48,-412.21C650.85,-400.04 613.22,-382.15 583,-361.25 563.54,-347.79 544.2,-329.33 530.04,-314.61"/>
<polygon fill="#555555" stroke="#555555" stroke-width="2" points="532.55,-312.17 523.14,-307.3 527.46,-316.97 532.55,-312.17"/>
<text text-anchor="middle" x="623.5" y="-372.05" font-family="Helvetica,sans-Serif" font-size="9.00">route</text>
</g>
<!-- order_svc -->
<g id="node9" class="node">
<title>order_svc</title>
<path fill="#ffe0b2" stroke="black" d="M693.5,-307.25C693.5,-307.25 616.5,-307.25 616.5,-307.25 610.5,-307.25 604.5,-301.25 604.5,-295.25 604.5,-295.25 604.5,-283.25 604.5,-283.25 604.5,-277.25 610.5,-271.25 616.5,-271.25 616.5,-271.25 693.5,-271.25 693.5,-271.25 699.5,-271.25 705.5,-277.25 705.5,-283.25 705.5,-283.25 705.5,-295.25 705.5,-295.25 705.5,-301.25 699.5,-307.25 693.5,-307.25"/>
<text text-anchor="start" x="615" y="-291.75" font-family="Helvetica,sans-Serif" font-weight="bold" font-size="10.00">Order Service</text>
<text text-anchor="start" x="612.5" y="-282.55" font-family="Helvetica,sans-Serif" font-size="9.00">Orders · Fulfilment</text>
</g>
<!-- gw_node&#45;&gt;order_svc -->
<g id="edge7" class="edge">
<title>gw_node&#45;&gt;order_svc</title>
<path fill="none" stroke="#555555" stroke-width="2" d="M714.66,-412.21C702.99,-388.34 681.66,-344.75 667.92,-316.66"/>
<polygon fill="#555555" stroke="#555555" stroke-width="2" points="670.94,-314.88 663.41,-307.43 664.66,-317.95 670.94,-314.88"/>
<text text-anchor="middle" x="709.5" y="-372.05" font-family="Helvetica,sans-Serif" font-size="9.00">route</text>
</g>
<!-- metrics -->
<g id="node15" class="node">
<title>metrics</title>
<path fill="#b2dfdb" stroke="black" d="M75.5,-165.69C75.5,-165.69 28.5,-165.69 28.5,-165.69 22.5,-165.69 16.5,-159.69 16.5,-153.69 16.5,-153.69 16.5,-141.69 16.5,-141.69 16.5,-135.69 22.5,-129.69 28.5,-129.69 28.5,-129.69 75.5,-129.69 75.5,-129.69 81.5,-129.69 87.5,-135.69 87.5,-141.69 87.5,-141.69 87.5,-153.69 87.5,-153.69 87.5,-159.69 81.5,-165.69 75.5,-165.69"/>
<text text-anchor="start" x="30.5" y="-150.19" font-family="Helvetica,sans-Serif" font-weight="bold" font-size="10.00">Metrics</text>
<text text-anchor="start" x="24.5" y="-140.99" font-family="Helvetica,sans-Serif" font-size="9.00">Prometheus</text>
</g>
<!-- gw_node&#45;&gt;metrics -->
<g id="edge20" class="edge">
<title>gw_node&#45;&gt;metrics</title>
<path fill="none" stroke="#80cbc4" stroke-dasharray="1,5" d="M663.89,-429.29C577.86,-427.32 414.73,-415.89 289,-361.25 195.8,-320.75 181.15,-291.82 109,-220.25 94.71,-206.08 80.6,-188.4 70,-174.17"/>
<polygon fill="#80cbc4" stroke="#80cbc4" points="72.61,-171.81 63.88,-165.81 66.96,-175.94 72.61,-171.81"/>
</g>
<!-- log_agg -->
<g id="node17" class="node">
<title>log_agg</title>
<path fill="#b2dfdb" stroke="black" d="M229.5,-165.69C229.5,-165.69 142.5,-165.69 142.5,-165.69 136.5,-165.69 130.5,-159.69 130.5,-153.69 130.5,-153.69 130.5,-141.69 130.5,-141.69 130.5,-135.69 136.5,-129.69 142.5,-129.69 142.5,-129.69 229.5,-129.69 229.5,-129.69 235.5,-129.69 241.5,-135.69 241.5,-141.69 241.5,-141.69 241.5,-153.69 241.5,-153.69 241.5,-159.69 235.5,-165.69 229.5,-165.69"/>
<text text-anchor="start" x="138.5" y="-150.19" font-family="Helvetica,sans-Serif" font-weight="bold" font-size="10.00">Log Aggregation</text>
<text text-anchor="start" x="155" y="-140.99" font-family="Helvetica,sans-Serif" font-size="9.00">Loki · Grafana</text>
</g>
<!-- gw_node&#45;&gt;log_agg -->
<g id="edge22" class="edge">
<title>gw_node&#45;&gt;log_agg</title>
<path fill="none" stroke="#80cbc4" stroke-dasharray="1,5" d="M663.96,-423.06C604.22,-415.04 510.45,-397.52 437,-361.25 339.19,-312.96 247.59,-218.38 207.39,-173.48"/>
<polygon fill="#80cbc4" stroke="#80cbc4" points="209.97,-171.11 200.72,-165.95 204.73,-175.76 209.97,-171.11"/>
</g>
<!-- primary_db -->
<g id="node11" class="node">
<title>primary_db</title>
<path fill="#e1bee7" stroke="black" d="M948,-162.93C948,-164.79 927.38,-166.31 902,-166.31 876.62,-166.31 856,-164.79 856,-162.93 856,-162.93 856,-132.45 856,-132.45 856,-130.58 876.62,-129.06 902,-129.06 927.38,-129.06 948,-130.58 948,-132.45 948,-132.45 948,-162.93 948,-162.93"/>
<path fill="none" stroke="black" d="M948,-162.93C948,-161.06 927.38,-159.54 902,-159.54 876.62,-159.54 856,-161.06 856,-162.93"/>
<text text-anchor="start" x="869" y="-150.19" font-family="Helvetica,sans-Serif" font-weight="bold" font-size="10.00">Primary DB</text>
<text text-anchor="start" x="864" y="-140.99" font-family="Helvetica,sans-Serif" font-size="9.00">PostgreSQL (HA)</text>
</g>
<!-- user_svc&#45;&gt;primary_db -->
<g id="edge8" class="edge">
<title>user_svc&#45;&gt;primary_db</title>
<path fill="none" stroke="#555555" d="M955.13,-271.07C956.06,-258.86 956.15,-242.23 952,-228.25 946.21,-208.77 934.22,-189.41 923.43,-174.67"/>
<polygon fill="#555555" stroke="#555555" points="926.11,-172.41 917.27,-166.55 920.53,-176.64 926.11,-172.41"/>
<text text-anchor="middle" x="961.5" y="-231.05" font-family="Helvetica,sans-Serif" font-size="9.00">r/w</text>
</g>
<!-- tenant_svc&#45;&gt;primary_db -->
<g id="edge9" class="edge">
<title>tenant_svc&#45;&gt;primary_db</title>
<path fill="none" stroke="#555555" d="M1081.62,-412.12C1073.06,-380.71 1052.01,-312.58 1019,-263.25 995.17,-227.65 958.86,-194.26 933.01,-172.82"/>
<polygon fill="#555555" stroke="#555555" points="934.98,-169.91 925.02,-166.29 930.55,-175.33 934.98,-169.91"/>
<text text-anchor="middle" x="1072.5" y="-287.05" font-family="Helvetica,sans-Serif" font-size="9.00">r/w</text>
</g>
<!-- feature_flags -->
<g id="node7" class="node">
<title>feature_flags</title>
<path fill="#c8e6c9" stroke="black" d="M973.5,-448.25C973.5,-448.25 902.5,-448.25 902.5,-448.25 896.5,-448.25 890.5,-442.25 890.5,-436.25 890.5,-436.25 890.5,-424.25 890.5,-424.25 890.5,-418.25 896.5,-412.25 902.5,-412.25 902.5,-412.25 973.5,-412.25 973.5,-412.25 979.5,-412.25 985.5,-418.25 985.5,-424.25 985.5,-424.25 985.5,-436.25 985.5,-436.25 985.5,-442.25 979.5,-448.25 973.5,-448.25"/>
<text text-anchor="start" x="898.5" y="-432.75" font-family="Helvetica,sans-Serif" font-weight="bold" font-size="10.00">Feature Flags</text>
<text text-anchor="start" x="905" y="-423.55" font-family="Helvetica,sans-Serif" font-size="9.00">Rollout control</text>
</g>
<!-- feature_flags&#45;&gt;gw_node -->
<g id="edge17" class="edge">
<title>feature_flags&#45;&gt;gw_node</title>
<path fill="none" stroke="#555555" stroke-dasharray="1,5" d="M890.31,-430.25C861.49,-430.25 824.25,-430.25 792.23,-430.25"/>
<polygon fill="#555555" stroke="#555555" points="792.03,-426.75 782.03,-430.25 792.03,-433.75 792.03,-426.75"/>
<text text-anchor="middle" x="836.25" y="-436.05" font-family="Helvetica,sans-Serif" font-size="9.00">config</text>
</g>
<!-- feature_flags&#45;&gt;user_svc -->
<g id="edge18" class="edge">
<title>feature_flags&#45;&gt;user_svc</title>
<path fill="none" stroke="#555555" stroke-dasharray="1,5" d="M939.84,-412.21C942.39,-388.55 947.04,-345.51 950.07,-317.4"/>
<polygon fill="#555555" stroke="#555555" points="953.55,-317.75 951.15,-307.43 946.59,-317 953.55,-317.75"/>
<text text-anchor="middle" x="958.5" y="-372.05" font-family="Helvetica,sans-Serif" font-size="9.00">config</text>
</g>
<!-- read_replica -->
<g id="node12" class="node">
<title>read_replica</title>
<path fill="#e1bee7" stroke="black" d="M821.5,-49.8C821.5,-51.67 799.76,-53.19 773,-53.19 746.24,-53.19 724.5,-51.67 724.5,-49.8 724.5,-49.8 724.5,-19.32 724.5,-19.32 724.5,-17.46 746.24,-15.94 773,-15.94 799.76,-15.94 821.5,-17.46 821.5,-19.32 821.5,-19.32 821.5,-49.8 821.5,-49.8"/>
<path fill="none" stroke="black" d="M821.5,-49.8C821.5,-47.93 799.76,-46.41 773,-46.41 746.24,-46.41 724.5,-47.93 724.5,-49.8"/>
<text text-anchor="start" x="732.5" y="-37.06" font-family="Helvetica,sans-Serif" font-weight="bold" font-size="10.00">Read Replicas</text>
<text text-anchor="start" x="734.5" y="-27.86" font-family="Helvetica,sans-Serif" font-size="9.00">3x · auto&#45;failover</text>
</g>
<!-- catalog_svc&#45;&gt;read_replica -->
<g id="edge10" class="edge">
<title>catalog_svc&#45;&gt;read_replica</title>
<path fill="none" stroke="#555555" d="M508.19,-271.03C509.47,-237.91 516.87,-164.82 556,-121.69 597.15,-76.33 665.31,-54.51 714.27,-44.25"/>
<polygon fill="#555555" stroke="#555555" points="714.98,-47.68 724.1,-42.29 713.61,-40.81 714.98,-47.68"/>
<text text-anchor="middle" x="566.5" y="-145.49" font-family="Helvetica,sans-Serif" font-size="9.00">read</text>
</g>
<!-- order_svc&#45;&gt;primary_db -->
<g id="edge11" class="edge">
<title>order_svc&#45;&gt;primary_db</title>
<path fill="none" stroke="#555555" stroke-width="2" d="M686.1,-271.12C712.08,-257.53 750.46,-239.07 786,-228.25 807.11,-221.82 815.53,-230.64 835,-220.25 855.02,-209.57 872.36,-190.61 884.38,-174.88"/>
<polygon fill="#555555" stroke="#555555" stroke-width="2" points="887.4,-176.69 890.49,-166.56 881.75,-172.54 887.4,-176.69"/>
<text text-anchor="middle" x="793.5" y="-231.05" font-family="Helvetica,sans-Serif" font-size="9.00">r/w</text>
</g>
<!-- cache_layer -->
<g id="node13" class="node">
<title>cache_layer</title>
<path fill="#ce93d8" stroke="black" d="M684,-162.93C684,-164.79 664.73,-166.31 641,-166.31 617.27,-166.31 598,-164.79 598,-162.93 598,-162.93 598,-132.45 598,-132.45 598,-130.58 617.27,-129.06 641,-129.06 664.73,-129.06 684,-130.58 684,-132.45 684,-132.45 684,-162.93 684,-162.93"/>
<path fill="none" stroke="black" d="M684,-162.93C684,-161.06 664.73,-159.54 641,-159.54 617.27,-159.54 598,-161.06 598,-162.93"/>
<text text-anchor="start" x="606" y="-150.19" font-family="Helvetica,sans-Serif" font-weight="bold" font-size="10.00">Cache Layer</text>
<text text-anchor="start" x="611.5" y="-140.99" font-family="Helvetica,sans-Serif" font-size="9.00">Redis Cluster</text>
</g>
<!-- order_svc&#45;&gt;cache_layer -->
<g id="edge12" class="edge">
<title>order_svc&#45;&gt;cache_layer</title>
<path fill="none" stroke="#555555" d="M646.71,-271.11C642.6,-261.66 638.08,-249.58 636,-238.25 632.23,-217.73 633.78,-194.16 636.11,-176.36"/>
<polygon fill="#555555" stroke="#555555" points="639.59,-176.75 637.57,-166.35 632.66,-175.73 639.59,-176.75"/>
<text text-anchor="middle" x="652.5" y="-231.05" font-family="Helvetica,sans-Serif" font-size="9.00">session</text>
</g>
<!-- event_bus -->
<g id="node14" class="node">
<title>event_bus</title>
<path fill="#ce93d8" stroke="black" d="M813,-162.93C813,-164.79 793.73,-166.31 770,-166.31 746.27,-166.31 727,-164.79 727,-162.93 727,-162.93 727,-132.45 727,-132.45 727,-130.58 746.27,-129.06 770,-129.06 793.73,-129.06 813,-130.58 813,-132.45 813,-132.45 813,-162.93 813,-162.93"/>
<path fill="none" stroke="black" d="M813,-162.93C813,-161.06 793.73,-159.54 770,-159.54 746.27,-159.54 727,-161.06 727,-162.93"/>
<text text-anchor="start" x="742" y="-150.19" font-family="Helvetica,sans-Serif" font-weight="bold" font-size="10.00">Event Bus</text>
<text text-anchor="start" x="735" y="-140.99" font-family="Helvetica,sans-Serif" font-size="9.00">Kafka · 8 topics</text>
</g>
<!-- order_svc&#45;&gt;event_bus -->
<g id="edge13" class="edge">
<title>order_svc&#45;&gt;event_bus</title>
<path fill="none" stroke="#555555" stroke-width="2" d="M669.1,-271.14C689.08,-246.89 725.77,-202.36 748.97,-174.2"/>
<polygon fill="#555555" stroke="#555555" stroke-width="2" points="751.76,-176.32 755.42,-166.38 746.36,-171.87 751.76,-176.32"/>
<text text-anchor="middle" x="712.5" y="-231.05" font-family="Helvetica,sans-Serif" font-size="9.00">emit</text>
</g>
<!-- tracing -->
<g id="node16" class="node">
<title>tracing</title>
<path fill="#b2dfdb" stroke="black" d="M395,-165.69C395,-165.69 297,-165.69 297,-165.69 291,-165.69 285,-159.69 285,-153.69 285,-153.69 285,-141.69 285,-141.69 285,-135.69 291,-129.69 297,-129.69 297,-129.69 395,-129.69 395,-129.69 401,-129.69 407,-135.69 407,-141.69 407,-141.69 407,-153.69 407,-153.69 407,-159.69 401,-165.69 395,-165.69"/>
<text text-anchor="start" x="324.5" y="-150.19" font-family="Helvetica,sans-Serif" font-weight="bold" font-size="10.00">Tracing</text>
<text text-anchor="start" x="293" y="-140.99" font-family="Helvetica,sans-Serif" font-size="9.00">Jaeger · OpenTelemetry</text>
</g>
<!-- order_svc&#45;&gt;tracing -->
<g id="edge21" class="edge">
<title>order_svc&#45;&gt;tracing</title>
<path fill="none" stroke="#80cbc4" stroke-dasharray="1,5" d="M630.99,-271.23C609.54,-257.03 576.71,-237.63 545,-228.25 500.12,-214.97 483.75,-236.88 440,-220.25 413.07,-210.01 387.39,-189.46 369.69,-172.99"/>
<polygon fill="#80cbc4" stroke="#80cbc4" points="371.79,-170.16 362.15,-165.77 366.95,-175.22 371.79,-170.16"/>
</g>
<!-- inventory_svc -->
<g id="node10" class="node">
<title>inventory_svc</title>
<path fill="#ffe0b2" stroke="black" d="M853.5,-307.25C853.5,-307.25 760.5,-307.25 760.5,-307.25 754.5,-307.25 748.5,-301.25 748.5,-295.25 748.5,-295.25 748.5,-283.25 748.5,-283.25 748.5,-277.25 754.5,-271.25 760.5,-271.25 760.5,-271.25 853.5,-271.25 853.5,-271.25 859.5,-271.25 865.5,-277.25 865.5,-283.25 865.5,-283.25 865.5,-295.25 865.5,-295.25 865.5,-301.25 859.5,-307.25 853.5,-307.25"/>
<text text-anchor="start" x="756.5" y="-291.75" font-family="Helvetica,sans-Serif" font-weight="bold" font-size="10.00">Inventory Service</text>
<text text-anchor="start" x="780" y="-282.55" font-family="Helvetica,sans-Serif" font-size="9.00">Stock levels</text>
</g>
<!-- inventory_svc&#45;&gt;primary_db -->
<g id="edge14" class="edge">
<title>inventory_svc&#45;&gt;primary_db</title>
<path fill="none" stroke="#555555" d="M824.27,-271.02C833.1,-261.74 843.71,-249.84 852,-238.25 866.29,-218.27 879.7,-193.82 889.03,-175.51"/>
<polygon fill="#555555" stroke="#555555" points="892.16,-177.06 893.52,-166.56 885.91,-173.93 892.16,-177.06"/>
<text text-anchor="middle" x="865.5" y="-231.05" font-family="Helvetica,sans-Serif" font-size="9.00">r/w</text>
</g>
<!-- primary_db&#45;&gt;read_replica -->
<g id="edge19" class="edge">
<title>primary_db&#45;&gt;read_replica</title>
<path fill="none" stroke="#9e9e9e" stroke-dasharray="5,2" d="M881.56,-129.08C859.99,-110.49 825.81,-81.06 801.58,-60.18"/>
<polygon fill="#9e9e9e" stroke="#9e9e9e" points="803.63,-57.33 793.77,-53.46 799.06,-62.63 803.63,-57.33"/>
<text text-anchor="middle" x="865" y="-88.92" font-family="Helvetica,sans-Serif" font-size="9.00">replication</text>
</g>
<!-- event_bus&#45;&gt;catalog_svc -->
<g id="edge15" class="edge">
<title>event_bus&#45;&gt;catalog_svc</title>
<path fill="none" stroke="#555555" stroke-dasharray="5,2" d="M759.84,-166.35C748.93,-183.44 729.91,-208.44 706,-220.25 685.22,-230.52 623.98,-220.9 602,-228.25 578.01,-236.26 554.03,-251.72 536.29,-264.94"/>
<polygon fill="#555555" stroke="#555555" points="533.93,-262.35 528.12,-271.21 538.18,-267.9 533.93,-262.35"/>
<text text-anchor="middle" x="613" y="-231.05" font-family="Helvetica,sans-Serif" font-size="9.00">sync</text>
</g>
<!-- event_bus&#45;&gt;inventory_svc -->
<g id="edge16" class="edge">
<title>event_bus&#45;&gt;inventory_svc</title>
<path fill="none" stroke="#555555" stroke-dasharray="5,2" d="M781.06,-166.53C790.05,-182.14 802.03,-205.79 807,-228.25 809.34,-238.82 809.78,-250.69 809.47,-261.07"/>
<polygon fill="#555555" stroke="#555555" points="805.97,-261.06 808.94,-271.23 812.96,-261.43 805.97,-261.06"/>
<text text-anchor="middle" x="825" y="-231.05" font-family="Helvetica,sans-Serif" font-size="9.00">restock</text>
</g>
<!-- l_svc -->
<g id="node18" class="node">
<title>l_svc</title>
<path fill="#c8e6c9" stroke="black" d="M1294.17,-598.25C1294.17,-598.25 1193.83,-598.25 1193.83,-598.25 1190.17,-598.25 1186.5,-594.58 1186.5,-590.92 1186.5,-590.92 1186.5,-583.58 1186.5,-583.58 1186.5,-579.92 1190.17,-576.25 1193.83,-576.25 1193.83,-576.25 1294.17,-576.25 1294.17,-576.25 1297.83,-576.25 1301.5,-579.92 1301.5,-583.58 1301.5,-583.58 1301.5,-590.92 1301.5,-590.92 1301.5,-594.58 1297.83,-598.25 1294.17,-598.25"/>
<text text-anchor="middle" x="1244" y="-585.05" font-family="Helvetica,sans-Serif" font-size="9.00">Service</text>
</g>
<!-- l_store -->
<g id="node19" class="node">
<title>l_store</title>
<path fill="#e1bee7" stroke="black" d="M1301.5,-440.27C1301.5,-441.5 1275.73,-442.5 1244,-442.5 1212.27,-442.5 1186.5,-441.5 1186.5,-440.27 1186.5,-440.27 1186.5,-420.23 1186.5,-420.23 1186.5,-419 1212.27,-418 1244,-418 1275.73,-418 1301.5,-419 1301.5,-420.23 1301.5,-420.23 1301.5,-440.27 1301.5,-440.27"/>
<path fill="none" stroke="black" d="M1301.5,-440.27C1301.5,-439.04 1275.73,-438.05 1244,-438.05 1212.27,-438.05 1186.5,-439.04 1186.5,-440.27"/>
<text text-anchor="middle" x="1244" y="-428.05" font-family="Helvetica,sans-Serif" font-size="9.00">Data store</text>
</g>
<!-- l_svc&#45;&gt;l_store -->
<!-- l_sync -->
<g id="node20" class="node">
<title>l_sync</title>
<polygon fill="white" stroke="transparent" points="1301.5,-300.25 1186.5,-300.25 1186.5,-278.25 1301.5,-278.25 1301.5,-300.25"/>
<text text-anchor="middle" x="1244" y="-287.05" font-family="Helvetica,sans-Serif" font-size="9.00">Sync call</text>
</g>
<!-- l_store&#45;&gt;l_sync -->
<!-- l_async -->
<g id="node21" class="node">
<title>l_async</title>
<polygon fill="white" stroke="transparent" points="1301.5,-158.69 1186.5,-158.69 1186.5,-136.69 1301.5,-136.69 1301.5,-158.69"/>
<text text-anchor="middle" x="1244" y="-145.49" font-family="Helvetica,sans-Serif" font-size="9.00">Async / event</text>
</g>
<!-- l_sync&#45;&gt;l_async -->
<!-- l_cfg -->
<g id="node22" class="node">
<title>l_cfg</title>
<polygon fill="white" stroke="transparent" points="1301.5,-45.56 1186.5,-45.56 1186.5,-23.56 1301.5,-23.56 1301.5,-45.56"/>
<text text-anchor="middle" x="1244" y="-32.36" font-family="Helvetica,sans-Serif" font-size="9.00">Config signal</text>
</g>
<!-- l_async&#45;&gt;l_cfg -->
</g>
</svg>
