<?xml version="1.0" encoding="UTF-8" standalone="no"?>
<!DOCTYPE svg PUBLIC "-//W3C//DTD SVG 1.1//EN"
 "http://www.w3.org/Graphics/SVG/1.1/DTD/svg11.dtd">
<!-- Generated by graphviz version 2.43.0 (0)
 -->
<!-- Title: multiscale_detail Pages: 1 -->
<svg width="3503pt" height="841pt"
 viewBox="0.00 0.00 3502.90 841.40" xmlns="http://www.w3.org/2000/svg" xmlns:xlink="http://www.w3.org/1999/xlink">
<g id="graph0" class="graph" transform="scale(1 1) rotate(0) translate(43.2 798.2)">
<title>multiscale_detail</title>
<polygon fill="white" stroke="transparent" points="-43.2,43.2 -43.2,-798.2 3459.7,-798.2 3459.7,43.2 -43.2,43.2"/>
<text text-anchor="start" x="1529.75" y="-740.8" font-family="Helvetica,sans-Serif" font-weight="bold" font-size="14.00">CloudSaaS Platform — Gateway &amp; Auth Detail</text>
<text text-anchor="start" x="1505.25" y="-726.8" font-family="Helvetica,sans-Serif" font-size="14.00"> &#160;&#160;&#160;&#160;&#160;&#160;&#160;&#160;&#160;&#160;</text>
<text text-anchor="start" x="1555.25" y="-726.8" font-family="Helvetica,sans-Serif" font-size="11.00">Zoom&#45;in: cluster_gateway from overview · Full internal structure</text>
<g id="clust1" class="cluster">
<title>cluster_external</title>
<path fill="#eceff1" stroke="#607d8b" stroke-dasharray="5,2" d="M12,-413C12,-413 201,-413 201,-413 207,-413 213,-419 213,-425 213,-425 213,-620 213,-620 213,-626 207,-632 201,-632 201,-632 12,-632 12,-632 6,-632 0,-626 0,-620 0,-620 0,-425 0,-425 0,-419 6,-413 12,-413"/>
<text text-anchor="start" x="8" y="-617.8" font-family="Helvetica,sans-Serif" font-weight="bold" font-size="14.00">External (from overview)</text>
</g>
<g id="clust2" class="cluster">
<title>cluster_tls</title>
<path fill="#f5f5f5" stroke="#78909c" d="M307.5,-484C307.5,-484 485.5,-484 485.5,-484 491.5,-484 497.5,-490 497.5,-496 497.5,-496 497.5,-549 497.5,-549 497.5,-555 491.5,-561 485.5,-561 485.5,-561 307.5,-561 307.5,-561 301.5,-561 295.5,-555 295.5,-549 295.5,-549 295.5,-496 295.5,-496 295.5,-490 301.5,-484 307.5,-484"/>
<text text-anchor="start" x="333" y="-546.8" font-family="Helvetica,sans-Serif" font-weight="bold" font-size="14.00">TLS Termination</text>
</g>
<g id="clust3" class="cluster">
<title>cluster_ingress</title>
<path fill="#eceff1" stroke="#37474f" d="M587.5,-457C587.5,-457 1133.5,-457 1133.5,-457 1139.5,-457 1145.5,-463 1145.5,-469 1145.5,-469 1145.5,-576 1145.5,-576 1145.5,-582 1139.5,-588 1133.5,-588 1133.5,-588 587.5,-588 587.5,-588 581.5,-588 575.5,-582 575.5,-576 575.5,-576 575.5,-469 575.5,-469 575.5,-463 581.5,-457 587.5,-457"/>
<text text-anchor="start" x="796" y="-573.8" font-family="Helvetica,sans-Serif" font-weight="bold" font-size="14.00">Ingress Controls</text>
</g>
<g id="clust4" class="cluster">
<title>cluster_auth</title>
<path fill="#e3f2fd" stroke="#1565c0" stroke-width="2" d="M1246.5,-187C1246.5,-187 2363,-187 2363,-187 2369,-187 2375,-193 2375,-199 2375,-199 2375,-464 2375,-464 2375,-470 2369,-476 2363,-476 2363,-476 1246.5,-476 1246.5,-476 1240.5,-476 1234.5,-470 1234.5,-464 1234.5,-464 1234.5,-199 1234.5,-199 1234.5,-193 1240.5,-187 1246.5,-187"/>
<text text-anchor="start" x="1712.75" y="-461.8" font-family="Helvetica,sans-Serif" font-weight="bold" font-size="14.00">Authentication Pipeline</text>
</g>
<g id="clust5" class="cluster">
<title>cluster_authz</title>
<path fill="#e8f5e9" stroke="#2e7d32" stroke-width="2" d="M2188.5,-8C2188.5,-8 2997.5,-8 2997.5,-8 3003.5,-8 3009.5,-14 3009.5,-20 3009.5,-20 3009.5,-167 3009.5,-167 3009.5,-173 3003.5,-179 2997.5,-179 2997.5,-179 2188.5,-179 2188.5,-179 2182.5,-179 2176.5,-173 2176.5,-167 2176.5,-167 2176.5,-20 2176.5,-20 2176.5,-14 2182.5,-8 2188.5,-8"/>
<text text-anchor="start" x="2498.5" y="-164.8" font-family="Helvetica,sans-Serif" font-weight="bold" font-size="14.00">Authorization &amp; Routing</text>
</g>
<g id="clust6" class="cluster">
<title>cluster_downstream</title>
<path fill="#eceff1" stroke="#607d8b" stroke-dasharray="5,2" d="M3111.5,-27C3111.5,-27 3404.5,-27 3404.5,-27 3410.5,-27 3416.5,-33 3416.5,-39 3416.5,-39 3416.5,-234 3416.5,-234 3416.5,-240 3410.5,-246 3404.5,-246 3404.5,-246 3111.5,-246 3111.5,-246 3105.5,-246 3099.5,-240 3099.5,-234 3099.5,-234 3099.5,-39 3099.5,-39 3099.5,-33 3105.5,-27 3111.5,-27"/>
<text text-anchor="start" x="3107.5" y="-231.8" font-family="Helvetica,sans-Serif" font-weight="bold" font-size="14.00">Downstream Services (from overview)</text>
</g>
<g id="clust7" class="cluster">
<title>cluster_legend</title>
<path fill="#fafafa" stroke="#9e9e9e" d="M49.5,-640C49.5,-640 1410,-640 1410,-640 1416,-640 1422,-646 1422,-652 1422,-652 1422,-699 1422,-699 1422,-705 1416,-711 1410,-711 1410,-711 49.5,-711 49.5,-711 43.5,-711 37.5,-705 37.5,-699 37.5,-699 37.5,-652 37.5,-652 37.5,-646 43.5,-640 49.5,-640"/>
<text text-anchor="start" x="708.75" y="-700" font-family="Helvetica,sans-Serif" font-weight="bold" font-size="10.00">Legend</text>
</g>
<!-- web_client -->
<g id="node1" class="node">
<title>web_client</title>
<path fill="#cfd8dc" stroke="black" d="M133.5,-601C133.5,-601 79.5,-601 79.5,-601 73.5,-601 67.5,-595 67.5,-589 67.5,-589 67.5,-577 67.5,-577 67.5,-571 73.5,-565 79.5,-565 79.5,-565 133.5,-565 133.5,-565 139.5,-565 145.5,-571 145.5,-577 145.5,-577 145.5,-589 145.5,-589 145.5,-595 139.5,-601 133.5,-601"/>
<text text-anchor="start" x="75.5" y="-581.5" font-family="Helvetica,sans-Serif" font-weight="bold" font-size="10.00">Web Client</text>
</g>
<!-- tls_terminator -->
<g id="node4" class="node">
<title>tls_terminator</title>
<path fill="#eceff1" stroke="black" d="M477.5,-529.5C477.5,-529.5 315.5,-529.5 315.5,-529.5 309.5,-529.5 303.5,-523.5 303.5,-517.5 303.5,-517.5 303.5,-504.5 303.5,-504.5 303.5,-498.5 309.5,-492.5 315.5,-492.5 315.5,-492.5 477.5,-492.5 477.5,-492.5 483.5,-492.5 489.5,-498.5 489.5,-504.5 489.5,-504.5 489.5,-517.5 489.5,-517.5 489.5,-523.5 483.5,-529.5 477.5,-529.5"/>
<text text-anchor="start" x="353.5" y="-518.5" font-family="Helvetica,sans-Serif" font-weight="bold" font-size="10.00">TLS Terminator</text>
<text text-anchor="start" x="311.5" y="-508.5" font-family="Helvetica,sans-Serif" font-size="10.00"> &#160;&#160;&#160;&#160;&#160;&#160;&#160;&#160;&#160;&#160;&#160;&#160;&#160;&#160;&#160;&#160;&#160;&#160;&#160;&#160;&#160;&#160;&#160;&#160;</text>
<text text-anchor="start" x="387.5" y="-508.5" font-family="Helvetica,sans-Serif" font-size="9.00">nginx · Let&#39;s Encrypt</text>
<text text-anchor="start" x="329.5" y="-499.3" font-family="Helvetica,sans-Serif" font-size="9.00"> &#160;&#160;&#160;&#160;&#160;&#160;&#160;&#160;&#160;&#160;&#160;&#160;&#160;&#160;&#160;&#160;&#160;&#160;&#160;&#160;&#160;&#160;&#160;&#160;TLSv1.3 only</text>
</g>
<!-- web_client&#45;&gt;tls_terminator -->
<g id="edge1" class="edge">
<title>web_client&#45;&gt;tls_terminator</title>
<path fill="none" stroke="#555555" stroke-width="2" d="M145.74,-573.44C187.82,-562.92 256.75,-545.69 311.54,-531.99"/>
<polygon fill="#555555" stroke="#555555" stroke-width="2" points="312.4,-535.38 321.25,-529.56 310.7,-528.59 312.4,-535.38"/>
<text text-anchor="middle" x="258" y="-551.8" font-family="Helvetica,sans-Serif" font-size="9.00">TLSv1.3</text>
</g>
<!-- mobile_app -->
<g id="node2" class="node">
<title>mobile_app</title>
<path fill="#cfd8dc" stroke="black" d="M135,-529C135,-529 78,-529 78,-529 72,-529 66,-523 66,-517 66,-517 66,-505 66,-505 66,-499 72,-493 78,-493 78,-493 135,-493 135,-493 141,-493 147,-499 147,-505 147,-505 147,-517 147,-517 147,-523 141,-529 135,-529"/>
<text text-anchor="start" x="74" y="-509.5" font-family="Helvetica,sans-Serif" font-weight="bold" font-size="10.00">Mobile App</text>
</g>
<!-- mobile_app&#45;&gt;tls_terminator -->
<g id="edge2" class="edge">
<title>mobile_app&#45;&gt;tls_terminator</title>
<path fill="none" stroke="#555555" stroke-width="2" d="M147.24,-511C184.78,-511 242.68,-511 293.13,-511"/>
<polygon fill="#555555" stroke="#555555" stroke-width="2" points="293.44,-514.5 303.44,-511 293.44,-507.5 293.44,-514.5"/>
<text text-anchor="middle" x="258" y="-513.8" font-family="Helvetica,sans-Serif" font-size="9.00">TLSv1.3</text>
</g>
<!-- partner_api -->
<g id="node3" class="node">
<title>partner_api</title>
<path fill="#cfd8dc" stroke="black" d="M138,-457C138,-457 75,-457 75,-457 69,-457 63,-451 63,-445 63,-445 63,-433 63,-433 63,-427 69,-421 75,-421 75,-421 138,-421 138,-421 144,-421 150,-427 150,-433 150,-433 150,-445 150,-445 150,-451 144,-457 138,-457"/>
<text text-anchor="start" x="71" y="-437.5" font-family="Helvetica,sans-Serif" font-weight="bold" font-size="10.00">Partner APIs</text>
</g>
<!-- partner_api&#45;&gt;tls_terminator -->
<g id="edge3" class="edge">
<title>partner_api&#45;&gt;tls_terminator</title>
<path fill="none" stroke="#555555" stroke-dasharray="5,2" d="M150.31,-449.7C192.72,-460.3 258.81,-476.83 311.69,-490.05"/>
<polygon fill="#555555" stroke="#555555" points="310.85,-493.45 321.4,-492.48 312.55,-486.65 310.85,-493.45"/>
<text text-anchor="middle" x="258" y="-481.8" font-family="Helvetica,sans-Serif" font-size="9.00">mTLS</text>
</g>
<!-- waf -->
<g id="node6" class="node">
<title>waf</title>
<polygon fill="#fff9c4" stroke="#f9a825" points="721.5,-557 583.5,-511 721.5,-465 859.5,-511 721.5,-557"/>
<text text-anchor="start" x="709" y="-523" font-family="Helvetica,sans-Serif" font-weight="bold" font-size="10.00">WAF</text>
<text text-anchor="start" x="660.5" y="-513" font-family="Helvetica,sans-Serif" font-size="10.00"> &#160;&#160;&#160;&#160;&#160;&#160;&#160;&#160;&#160;&#160;&#160;&#160;</text>
<text text-anchor="start" x="700.5" y="-513" font-family="Helvetica,sans-Serif" font-size="9.00">ModSecurity rules</text>
<text text-anchor="start" x="675" y="-503.8" font-family="Helvetica,sans-Serif" font-size="9.00"> &#160;&#160;&#160;&#160;&#160;&#160;&#160;&#160;&#160;&#160;&#160;&#160;OWASP CRS</text>
<text text-anchor="start" x="662.5" y="-494.8" font-family="Helvetica,sans-Serif" font-size="9.00"> &#160;&#160;&#160;&#160;&#160;&#160;&#160;&#160;&#160;&#160;&#160;&#160;Block / log / allow</text>
</g>
<!-- tls_terminator&#45;&gt;waf -->
<g id="edge4" class="edge">
<title>tls_terminator&#45;&gt;waf</title>
<path fill="none" stroke="#555555" d="M489.63,-511C515.73,-511 544.82,-511 573.31,-511"/>
<polygon fill="#555555" stroke="#555555" points="573.36,-514.5 583.36,-511 573.36,-507.5 573.36,-514.5"/>
<text text-anchor="middle" x="536.5" y="-513.8" font-family="Helvetica,sans-Serif" font-size="9.00">plaintext</text>
</g>
<!-- rate_limiter -->
<g id="node5" class="node">
<title>rate_limiter</title>
<path fill="#cfd8dc" stroke="black" d="M1125.5,-520C1125.5,-520 959.5,-520 959.5,-520 953.5,-520 947.5,-514 947.5,-508 947.5,-508 947.5,-486 947.5,-486 947.5,-480 953.5,-474 959.5,-474 959.5,-474 1125.5,-474 1125.5,-474 1131.5,-474 1137.5,-480 1137.5,-486 1137.5,-486 1137.5,-508 1137.5,-508 1137.5,-514 1131.5,-520 1125.5,-520"/>
<text text-anchor="start" x="1007.5" y="-509" font-family="Helvetica,sans-Serif" font-weight="bold" font-size="10.00">Rate Limiter</text>
<text text-anchor="start" x="955.5" y="-499" font-family="Helvetica,sans-Serif" font-size="10.00"> &#160;&#160;&#160;&#160;&#160;&#160;&#160;&#160;&#160;&#160;&#160;&#160;&#160;&#160;&#160;&#160;&#160;&#160;&#160;&#160;&#160;</text>
<text text-anchor="start" x="1022.5" y="-499" font-family="Helvetica,sans-Serif" font-size="9.00">Token bucket algorithm</text>
<text text-anchor="start" x="972.5" y="-489.8" font-family="Helvetica,sans-Serif" font-size="9.00"> &#160;&#160;&#160;&#160;&#160;&#160;&#160;&#160;&#160;&#160;&#160;&#160;&#160;&#160;&#160;&#160;&#160;&#160;&#160;&#160;&#160;Per&#45;tenant limits</text>
<text text-anchor="start" x="958" y="-480.8" font-family="Helvetica,sans-Serif" font-size="9.00"> &#160;&#160;&#160;&#160;&#160;&#160;&#160;&#160;&#160;&#160;&#160;&#160;&#160;&#160;&#160;&#160;&#160;&#160;&#160;&#160;&#160;Redis&#45;backed counters</text>
</g>
<!-- token_extractor -->
<g id="node7" class="node">
<title>token_extractor</title>
<path fill="#bbdefb" stroke="black" d="M1451.5,-317.5C1451.5,-317.5 1254.5,-317.5 1254.5,-317.5 1248.5,-317.5 1242.5,-311.5 1242.5,-305.5 1242.5,-305.5 1242.5,-292.5 1242.5,-292.5 1242.5,-286.5 1248.5,-280.5 1254.5,-280.5 1254.5,-280.5 1451.5,-280.5 1451.5,-280.5 1457.5,-280.5 1463.5,-286.5 1463.5,-292.5 1463.5,-292.5 1463.5,-305.5 1463.5,-305.5 1463.5,-311.5 1457.5,-317.5 1451.5,-317.5"/>
<text text-anchor="start" x="1308.5" y="-306.5" font-family="Helvetica,sans-Serif" font-weight="bold" font-size="10.00">Token Extractor</text>
<text text-anchor="start" x="1252.5" y="-296.5" font-family="Helvetica,sans-Serif" font-size="10.00"> &#160;&#160;&#160;&#160;&#160;&#160;&#160;&#160;&#160;&#160;&#160;&#160;&#160;&#160;&#160;&#160;&#160;&#160;&#160;&#160;&#160;&#160;&#160;&#160;&#160;</text>
<text text-anchor="start" x="1331.5" y="-296.5" font-family="Helvetica,sans-Serif" font-size="9.00">Parse Authorization header</text>
<text text-anchor="start" x="1250.5" y="-287.3" font-family="Helvetica,sans-Serif" font-size="9.00"> &#160;&#160;&#160;&#160;&#160;&#160;&#160;&#160;&#160;&#160;&#160;&#160;&#160;&#160;&#160;&#160;&#160;&#160;&#160;&#160;&#160;&#160;&#160;&#160;&#160;Bearer / API&#45;key / mTLS cert</text>
</g>
<!-- rate_limiter&#45;&gt;token_extractor -->
<g id="edge7" class="edge">
<title>rate_limiter&#45;&gt;token_extractor</title>
<path fill="none" stroke="#555555" d="M1079.49,-473.9C1138.3,-436.15 1254.43,-361.62 1314.32,-323.19"/>
<polygon fill="#555555" stroke="#555555" points="1316.55,-325.91 1323.08,-317.56 1312.77,-320.02 1316.55,-325.91"/>
<text text-anchor="middle" x="1190" y="-417.8" font-family="Helvetica,sans-Serif" font-size="9.00">within limit</text>
</g>
<!-- rate_limited -->
<g id="node22" class="node">
<title>rate_limited</title>
<path fill="#ffcdd2" stroke="#c62828" d="M1415.5,-520C1415.5,-520 1290.5,-520 1290.5,-520 1284.5,-520 1278.5,-514 1278.5,-508 1278.5,-508 1278.5,-496 1278.5,-496 1278.5,-490 1284.5,-484 1290.5,-484 1290.5,-484 1415.5,-484 1415.5,-484 1421.5,-484 1427.5,-490 1427.5,-496 1427.5,-496 1427.5,-508 1427.5,-508 1427.5,-514 1421.5,-520 1415.5,-520"/>
<text text-anchor="start" x="1286.5" y="-504.5" font-family="Helvetica,sans-Serif" font-weight="bold" font-size="10.00">429 Too Many Requests</text>
<text text-anchor="start" x="1311" y="-495.3" font-family="Helvetica,sans-Serif" font-size="9.00">Retry&#45;After header</text>
</g>
<!-- rate_limiter&#45;&gt;rate_limited -->
<g id="edge8" class="edge">
<title>rate_limiter&#45;&gt;rate_limited</title>
<path fill="none" stroke="#c62828" stroke-dasharray="5,2" d="M1137.74,-498.53C1179.39,-499.2 1227.96,-499.99 1268.32,-500.64"/>
<polygon fill="#c62828" stroke="#c62828" points="1268.34,-504.14 1278.39,-500.81 1268.45,-497.15 1268.34,-504.14"/>
<text text-anchor="middle" x="1190" y="-501.8" font-family="Helvetica,sans-Serif" font-size="9.00">exceeded</text>
</g>
<!-- waf&#45;&gt;rate_limiter -->
<g id="edge5" class="edge">
<title>waf&#45;&gt;rate_limiter</title>
<path fill="none" stroke="#555555" d="M844.01,-505.67C874.57,-504.33 907.1,-502.9 936.75,-501.6"/>
<polygon fill="#555555" stroke="#555555" points="937.28,-505.08 947.11,-501.14 936.97,-498.08 937.28,-505.08"/>
<text text-anchor="middle" x="903.5" y="-505.8" font-family="Helvetica,sans-Serif" font-size="9.00">allowed</text>
</g>
<!-- auth_denied -->
<g id="node21" class="node">
<title>auth_denied</title>
<path fill="#ffcdd2" stroke="#c62828" d="M2626.5,-348C2626.5,-348 2534.5,-348 2534.5,-348 2528.5,-348 2522.5,-342 2522.5,-336 2522.5,-336 2522.5,-324 2522.5,-324 2522.5,-318 2528.5,-312 2534.5,-312 2534.5,-312 2626.5,-312 2626.5,-312 2632.5,-312 2638.5,-318 2638.5,-324 2638.5,-324 2638.5,-336 2638.5,-336 2638.5,-342 2632.5,-348 2626.5,-348"/>
<text text-anchor="start" x="2554.5" y="-332.5" font-family="Helvetica,sans-Serif" font-weight="bold" font-size="10.00">401 / 403</text>
<text text-anchor="start" x="2530.5" y="-323.3" font-family="Helvetica,sans-Serif" font-size="9.00">Return error response</text>
</g>
<!-- waf&#45;&gt;auth_denied -->
<g id="edge6" class="edge">
<title>waf&#45;&gt;auth_denied</title>
<path fill="none" stroke="#c62828" stroke-dasharray="5,2" d="M792.64,-533.38C856.74,-551.84 954.51,-575 1041.5,-575 1041.5,-575 1041.5,-575 2284,-575 2419.61,-575 2526.34,-420.2 2564.42,-356.69"/>
<polygon fill="#c62828" stroke="#c62828" points="2567.47,-358.41 2569.54,-348.02 2561.44,-354.85 2567.47,-358.41"/>
<text text-anchor="middle" x="1668" y="-577.8" font-family="Helvetica,sans-Serif" font-size="9.00">blocked</text>
</g>
<!-- token_type_gate -->
<g id="node8" class="node">
<title>token_type_gate</title>
<polygon fill="#fff9c4" stroke="#f9a825" points="1668,-317 1605.63,-299 1668,-281 1730.37,-299 1668,-317"/>
<text text-anchor="middle" x="1668" y="-296.5" font-family="Helvetica,sans-Serif" font-size="10.00">Token Type?</text>
</g>
<!-- token_extractor&#45;&gt;token_type_gate -->
<g id="edge9" class="edge">
<title>token_extractor&#45;&gt;token_type_gate</title>
<path fill="none" stroke="#555555" d="M1463.91,-299C1507.41,-299 1556.19,-299 1595.04,-299"/>
<polygon fill="#555555" stroke="#555555" points="1595.2,-302.5 1605.2,-299 1595.2,-295.5 1595.2,-302.5"/>
</g>
<!-- auth_cache -->
<g id="node12" class="node">
<title>auth_cache</title>
<path fill="#b3e5fc" stroke="black" d="M1760.5,-240.76C1760.5,-243.31 1719.04,-245.38 1668,-245.38 1616.96,-245.38 1575.5,-243.31 1575.5,-240.76 1575.5,-240.76 1575.5,-199.24 1575.5,-199.24 1575.5,-196.69 1616.96,-194.62 1668,-194.62 1719.04,-194.62 1760.5,-196.69 1760.5,-199.24 1760.5,-199.24 1760.5,-240.76 1760.5,-240.76"/>
<path fill="none" stroke="black" d="M1760.5,-240.76C1760.5,-238.22 1719.04,-236.15 1668,-236.15 1616.96,-236.15 1575.5,-238.22 1575.5,-240.76"/>
<text text-anchor="start" x="1636" y="-227.5" font-family="Helvetica,sans-Serif" font-weight="bold" font-size="10.00">Auth Cache</text>
<text text-anchor="start" x="1595" y="-217.5" font-family="Helvetica,sans-Serif" font-size="10.00"> &#160;&#160;&#160;&#160;&#160;&#160;&#160;&#160;&#160;&#160;&#160;&#160;&#160;&#160;&#160;&#160;&#160;&#160;&#160;&#160;</text>
<text text-anchor="start" x="1659" y="-217.5" font-family="Helvetica,sans-Serif" font-size="9.00">Redis · TTL: 5 min</text>
<text text-anchor="start" x="1583.5" y="-208.3" font-family="Helvetica,sans-Serif" font-size="9.00"> &#160;&#160;&#160;&#160;&#160;&#160;&#160;&#160;&#160;&#160;&#160;&#160;&#160;&#160;&#160;&#160;&#160;&#160;&#160;&#160;Cache validated tokens</text>
</g>
<!-- token_extractor&#45;&gt;auth_cache -->
<g id="edge10" class="edge">
<title>token_extractor&#45;&gt;auth_cache</title>
<path fill="none" stroke="#555555" stroke-dasharray="5,2" d="M1427.38,-280.48C1468.54,-270.09 1520.51,-256.97 1565.51,-245.61"/>
<polygon fill="#555555" stroke="#555555" points="1566.46,-248.98 1575.3,-243.14 1564.75,-242.2 1566.46,-248.98"/>
<text text-anchor="middle" x="1519.5" y="-266.8" font-family="Helvetica,sans-Serif" font-size="9.00">cache check</text>
</g>
<!-- jwt_validator -->
<g id="node9" class="node">
<title>jwt_validator</title>
<path fill="#bbdefb" stroke="black" d="M2057.5,-324C2057.5,-324 1881.5,-324 1881.5,-324 1875.5,-324 1869.5,-318 1869.5,-312 1869.5,-312 1869.5,-290 1869.5,-290 1869.5,-284 1875.5,-278 1881.5,-278 1881.5,-278 2057.5,-278 2057.5,-278 2063.5,-278 2069.5,-284 2069.5,-290 2069.5,-290 2069.5,-312 2069.5,-312 2069.5,-318 2063.5,-324 2057.5,-324"/>
<text text-anchor="start" x="1930" y="-313" font-family="Helvetica,sans-Serif" font-weight="bold" font-size="10.00">JWT Validator</text>
<text text-anchor="start" x="1879" y="-303" font-family="Helvetica,sans-Serif" font-size="10.00"> &#160;&#160;&#160;&#160;&#160;&#160;&#160;&#160;&#160;&#160;&#160;&#160;&#160;&#160;&#160;&#160;&#160;&#160;&#160;&#160;&#160;&#160;&#160;</text>
<text text-anchor="start" x="1952" y="-303" font-family="Helvetica,sans-Serif" font-size="9.00">Verify signature · expiry</text>
<text text-anchor="start" x="1894" y="-293.8" font-family="Helvetica,sans-Serif" font-size="9.00"> &#160;&#160;&#160;&#160;&#160;&#160;&#160;&#160;&#160;&#160;&#160;&#160;&#160;&#160;&#160;&#160;&#160;&#160;&#160;&#160;&#160;&#160;&#160;Claims extraction</text>
<text text-anchor="start" x="1877.5" y="-284.8" font-family="Helvetica,sans-Serif" font-size="9.00"> &#160;&#160;&#160;&#160;&#160;&#160;&#160;&#160;&#160;&#160;&#160;&#160;&#160;&#160;&#160;&#160;&#160;&#160;&#160;&#160;&#160;&#160;&#160;JWKS endpoint (cached)</text>
</g>
<!-- token_type_gate&#45;&gt;jwt_validator -->
<g id="edge12" class="edge">
<title>token_type_gate&#45;&gt;jwt_validator</title>
<path fill="none" stroke="#555555" d="M1707.01,-292.14C1730.18,-288.31 1760.45,-283.93 1787.5,-282 1810.8,-280.34 1835.74,-281.22 1859.43,-283.32"/>
<polygon fill="#555555" stroke="#555555" points="1859.21,-286.81 1869.5,-284.28 1859.88,-279.84 1859.21,-286.81"/>
<text text-anchor="middle" x="1811" y="-284.8" font-family="Helvetica,sans-Serif" font-size="9.00">JWT</text>
</g>
<!-- apikey_validator -->
<g id="node10" class="node">
<title>apikey_validator</title>
<path fill="#bbdefb" stroke="black" d="M2065.5,-406C2065.5,-406 1873.5,-406 1873.5,-406 1867.5,-406 1861.5,-400 1861.5,-394 1861.5,-394 1861.5,-372 1861.5,-372 1861.5,-366 1867.5,-360 1873.5,-360 1873.5,-360 2065.5,-360 2065.5,-360 2071.5,-360 2077.5,-366 2077.5,-372 2077.5,-372 2077.5,-394 2077.5,-394 2077.5,-400 2071.5,-406 2065.5,-406"/>
<text text-anchor="start" x="1919" y="-395" font-family="Helvetica,sans-Serif" font-weight="bold" font-size="10.00">API&#45;Key Validator</text>
<text text-anchor="start" x="1869.5" y="-385" font-family="Helvetica,sans-Serif" font-size="10.00"> &#160;&#160;&#160;&#160;&#160;&#160;&#160;&#160;&#160;&#160;&#160;&#160;&#160;&#160;&#160;&#160;&#160;&#160;&#160;&#160;&#160;&#160;&#160;&#160;&#160;&#160;</text>
<text text-anchor="start" x="1951.5" y="-385" font-family="Helvetica,sans-Serif" font-size="9.00">Hash&#45;compare against DB</text>
<text text-anchor="start" x="1900" y="-375.8" font-family="Helvetica,sans-Serif" font-size="9.00"> &#160;&#160;&#160;&#160;&#160;&#160;&#160;&#160;&#160;&#160;&#160;&#160;&#160;&#160;&#160;&#160;&#160;&#160;&#160;&#160;&#160;&#160;&#160;&#160;&#160;&#160;Scope check</text>
<text text-anchor="start" x="1887.5" y="-366.8" font-family="Helvetica,sans-Serif" font-size="9.00"> &#160;&#160;&#160;&#160;&#160;&#160;&#160;&#160;&#160;&#160;&#160;&#160;&#160;&#160;&#160;&#160;&#160;&#160;&#160;&#160;&#160;&#160;&#160;&#160;&#160;&#160;Rate quota lookup</text>
</g>
<!-- token_type_gate&#45;&gt;apikey_validator -->
<g id="edge13" class="edge">
<title>token_type_gate&#45;&gt;apikey_validator</title>
<path fill="none" stroke="#555555" d="M1708.54,-305.35C1742.33,-311.2 1792.07,-320.81 1834.5,-333 1847.57,-336.76 1873.99,-346.45 1899.95,-356.32"/>
<polygon fill="#555555" stroke="#555555" points="1898.87,-359.66 1909.46,-359.95 1901.37,-353.12 1898.87,-359.66"/>
<text text-anchor="middle" x="1811" y="-335.8" font-family="Helvetica,sans-Serif" font-size="9.00">API&#45;Key</text>
</g>
<!-- mtls_validator -->
<g id="node11" class="node">
<title>mtls_validator</title>
<path fill="#bbdefb" stroke="black" d="M2052,-241.5C2052,-241.5 1887,-241.5 1887,-241.5 1881,-241.5 1875,-235.5 1875,-229.5 1875,-229.5 1875,-216.5 1875,-216.5 1875,-210.5 1881,-204.5 1887,-204.5 1887,-204.5 2052,-204.5 2052,-204.5 2058,-204.5 2064,-210.5 2064,-216.5 2064,-216.5 2064,-229.5 2064,-229.5 2064,-235.5 2058,-241.5 2052,-241.5"/>
<text text-anchor="start" x="1912" y="-230.5" font-family="Helvetica,sans-Serif" font-weight="bold" font-size="10.00">mTLS Cert Validator</text>
<text text-anchor="start" x="1883" y="-220.5" font-family="Helvetica,sans-Serif" font-size="10.00"> &#160;&#160;&#160;&#160;&#160;&#160;&#160;&#160;&#160;&#160;&#160;&#160;&#160;&#160;&#160;&#160;&#160;&#160;&#160;&#160;&#160;&#160;&#160;&#160;</text>
<text text-anchor="start" x="1959" y="-220.5" font-family="Helvetica,sans-Serif" font-size="9.00">Partner API path only</text>
<text text-anchor="start" x="1889.5" y="-211.3" font-family="Helvetica,sans-Serif" font-size="9.00"> &#160;&#160;&#160;&#160;&#160;&#160;&#160;&#160;&#160;&#160;&#160;&#160;&#160;&#160;&#160;&#160;&#160;&#160;&#160;&#160;&#160;&#160;&#160;&#160;Client cert pinning</text>
</g>
<!-- token_type_gate&#45;&gt;mtls_validator -->
<g id="edge14" class="edge">
<title>token_type_gate&#45;&gt;mtls_validator</title>
<path fill="none" stroke="#555555" d="M1697.52,-289.3C1721.4,-281.37 1756.45,-270.18 1787.5,-262 1812.34,-255.46 1839.3,-249.21 1864.64,-243.69"/>
<polygon fill="#555555" stroke="#555555" points="1865.6,-247.07 1874.64,-241.54 1864.13,-240.22 1865.6,-247.07"/>
<text text-anchor="middle" x="1811" y="-264.8" font-family="Helvetica,sans-Serif" font-size="9.00">mTLS cert</text>
</g>
<!-- jwt_validator&#45;&gt;auth_cache -->
<g id="edge29" class="edge">
<title>jwt_validator&#45;&gt;auth_cache</title>
<path fill="none" stroke="#a5d6a7" stroke-dasharray="5,2" d="M1911.66,-324.13C1866.31,-340.85 1807.22,-358.21 1787.5,-344 1756.72,-321.81 1785.71,-291.36 1760.5,-263 1756.29,-258.26 1751.45,-254.01 1746.24,-250.19"/>
<polygon fill="#a5d6a7" stroke="#a5d6a7" points="1748.04,-247.19 1737.78,-244.55 1744.16,-253.02 1748.04,-247.19"/>
<text text-anchor="middle" x="1811" y="-351.8" font-family="Helvetica,sans-Serif" font-size="9.00">cache</text>
</g>
<!-- jwks_store -->
<g id="node13" class="node">
<title>jwks_store</title>
<path fill="#b3e5fc" stroke="black" d="M2367,-421.76C2367,-424.31 2329.35,-426.38 2283,-426.38 2236.65,-426.38 2199,-424.31 2199,-421.76 2199,-421.76 2199,-380.24 2199,-380.24 2199,-377.69 2236.65,-375.62 2283,-375.62 2329.35,-375.62 2367,-377.69 2367,-380.24 2367,-380.24 2367,-421.76 2367,-421.76"/>
<path fill="none" stroke="black" d="M2367,-421.76C2367,-419.22 2329.35,-417.15 2283,-417.15 2236.65,-417.15 2199,-419.22 2199,-421.76"/>
<text text-anchor="start" x="2250.5" y="-408.5" font-family="Helvetica,sans-Serif" font-weight="bold" font-size="10.00">JWKS Store</text>
<text text-anchor="start" x="2207" y="-398.5" font-family="Helvetica,sans-Serif" font-size="10.00"> &#160;&#160;&#160;&#160;&#160;&#160;&#160;&#160;&#160;&#160;&#160;&#160;&#160;&#160;&#160;&#160;&#160;&#160;&#160;&#160;</text>
<text text-anchor="start" x="2271" y="-398.5" font-family="Helvetica,sans-Serif" font-size="9.00">Cached public keys</text>
<text text-anchor="start" x="2211.5" y="-389.3" font-family="Helvetica,sans-Serif" font-size="9.00"> &#160;&#160;&#160;&#160;&#160;&#160;&#160;&#160;&#160;&#160;&#160;&#160;&#160;&#160;&#160;&#160;&#160;&#160;&#160;&#160;Refresh: every 1h</text>
</g>
<!-- jwt_validator&#45;&gt;jwks_store -->
<g id="edge15" class="edge">
<title>jwt_validator&#45;&gt;jwks_store</title>
<path fill="none" stroke="#555555" stroke-dasharray="5,2" d="M2034.07,-324.01C2048.48,-329.59 2063.62,-335.76 2077.5,-342 2089.83,-347.54 2091.87,-351.2 2104.5,-356 2131.23,-366.16 2161.09,-374.74 2188.58,-381.59"/>
<polygon fill="#555555" stroke="#555555" points="2188.05,-385.06 2198.59,-384.04 2189.71,-378.26 2188.05,-385.06"/>
<text text-anchor="middle" x="2131" y="-375.8" font-family="Helvetica,sans-Serif" font-size="9.00">verify sig</text>
</g>
<!-- authz_engine -->
<g id="node14" class="node">
<title>authz_engine</title>
<path fill="#c8e6c9" stroke="black" d="M2369.5,-148C2369.5,-148 2196.5,-148 2196.5,-148 2190.5,-148 2184.5,-142 2184.5,-136 2184.5,-136 2184.5,-114 2184.5,-114 2184.5,-108 2190.5,-102 2196.5,-102 2196.5,-102 2369.5,-102 2369.5,-102 2375.5,-102 2381.5,-108 2381.5,-114 2381.5,-114 2381.5,-136 2381.5,-136 2381.5,-142 2375.5,-148 2369.5,-148"/>
<text text-anchor="start" x="2246" y="-137" font-family="Helvetica,sans-Serif" font-weight="bold" font-size="10.00">Authz Engine</text>
<text text-anchor="start" x="2192.5" y="-127" font-family="Helvetica,sans-Serif" font-size="10.00"> &#160;&#160;&#160;&#160;&#160;&#160;&#160;&#160;&#160;&#160;&#160;&#160;&#160;&#160;&#160;&#160;&#160;&#160;&#160;&#160;&#160;&#160;</text>
<text text-anchor="start" x="2262.5" y="-127" font-family="Helvetica,sans-Serif" font-size="9.00">OPA (Open Policy Agent)</text>
<text text-anchor="start" x="2198.5" y="-117.8" font-family="Helvetica,sans-Serif" font-size="9.00"> &#160;&#160;&#160;&#160;&#160;&#160;&#160;&#160;&#160;&#160;&#160;&#160;&#160;&#160;&#160;&#160;&#160;&#160;&#160;&#160;&#160;&#160;Tenant isolation check</text>
<text text-anchor="start" x="2197" y="-108.8" font-family="Helvetica,sans-Serif" font-size="9.00"> &#160;&#160;&#160;&#160;&#160;&#160;&#160;&#160;&#160;&#160;&#160;&#160;&#160;&#160;&#160;&#160;&#160;&#160;&#160;&#160;&#160;&#160;RBAC policy evaluation</text>
</g>
<!-- jwt_validator&#45;&gt;authz_engine -->
<g id="edge16" class="edge">
<title>jwt_validator&#45;&gt;authz_engine</title>
<path fill="none" stroke="#555555" d="M2054.64,-277.92C2063.13,-273.04 2071.01,-267.14 2077.5,-260 2107.61,-226.9 2071.91,-193.67 2104.5,-163 2123.44,-145.17 2148.62,-134.89 2174.05,-129.14"/>
<polygon fill="#555555" stroke="#555555" points="2175.07,-132.51 2184.17,-127.08 2173.68,-125.65 2175.07,-132.51"/>
<text text-anchor="middle" x="2131" y="-165.8" font-family="Helvetica,sans-Serif" font-size="9.00">valid claims</text>
</g>
<!-- jwt_validator&#45;&gt;auth_denied -->
<g id="edge17" class="edge">
<title>jwt_validator&#45;&gt;auth_denied</title>
<path fill="none" stroke="#c62828" stroke-dasharray="5,2" d="M2069.7,-305.72C2194.43,-311.66 2405.18,-321.7 2512.44,-326.81"/>
<polygon fill="#c62828" stroke="#c62828" points="2512.34,-330.31 2522.49,-327.29 2512.67,-323.31 2512.34,-330.31"/>
<text text-anchor="middle" x="2283" y="-322.8" font-family="Helvetica,sans-Serif" font-size="9.00">invalid/expired</text>
</g>
<!-- apikey_validator&#45;&gt;auth_cache -->
<g id="edge30" class="edge">
<title>apikey_validator&#45;&gt;auth_cache</title>
<path fill="none" stroke="#a5d6a7" stroke-dasharray="5,2" d="M1861.06,-394.96C1834.5,-392.66 1807.86,-385.18 1787.5,-368 1750.67,-336.93 1791.23,-300.11 1760.5,-263 1756.63,-258.32 1752.13,-254.13 1747.25,-250.36"/>
<polygon fill="#a5d6a7" stroke="#a5d6a7" points="1748.92,-247.26 1738.71,-244.43 1744.93,-253.01 1748.92,-247.26"/>
<text text-anchor="middle" x="1811" y="-391.8" font-family="Helvetica,sans-Serif" font-size="9.00">cache</text>
</g>
<!-- apikey_validator&#45;&gt;authz_engine -->
<g id="edge18" class="edge">
<title>apikey_validator&#45;&gt;authz_engine</title>
<path fill="none" stroke="#555555" d="M2049.01,-359.98C2059.21,-355.03 2069.03,-349.09 2077.5,-342 2142.79,-287.36 2114.01,-235.82 2176.5,-178 2187.07,-168.22 2199.79,-159.81 2212.68,-152.76"/>
<polygon fill="#555555" stroke="#555555" points="2214.37,-155.83 2221.61,-148.1 2211.13,-149.63 2214.37,-155.83"/>
<text text-anchor="middle" x="2131" y="-314.8" font-family="Helvetica,sans-Serif" font-size="9.00">valid key</text>
</g>
<!-- apikey_validator&#45;&gt;auth_denied -->
<g id="edge19" class="edge">
<title>apikey_validator&#45;&gt;auth_denied</title>
<path fill="none" stroke="#c62828" stroke-dasharray="5,2" d="M2027.84,-406.02C2108.05,-434.95 2257.8,-477.07 2381.5,-444 2446.24,-426.69 2511.77,-382.58 2548.85,-354.57"/>
<polygon fill="#c62828" stroke="#c62828" points="2551.39,-357.03 2557.2,-348.17 2547.14,-351.48 2551.39,-357.03"/>
<text text-anchor="middle" x="2283" y="-458.8" font-family="Helvetica,sans-Serif" font-size="9.00">invalid key</text>
</g>
<!-- mtls_validator&#45;&gt;authz_engine -->
<g id="edge20" class="edge">
<title>mtls_validator&#45;&gt;authz_engine</title>
<path fill="none" stroke="#555555" d="M1985.39,-204.33C2007.88,-177.82 2053.34,-130.44 2104.5,-112 2126.37,-104.12 2150.73,-101.99 2174.21,-102.92"/>
<polygon fill="#555555" stroke="#555555" points="2174.02,-106.42 2184.21,-103.5 2174.43,-99.43 2174.02,-106.42"/>
<text text-anchor="middle" x="2131" y="-114.8" font-family="Helvetica,sans-Serif" font-size="9.00">cert valid</text>
</g>
<!-- mtls_validator&#45;&gt;auth_denied -->
<g id="edge21" class="edge">
<title>mtls_validator&#45;&gt;auth_denied</title>
<path fill="none" stroke="#c62828" stroke-dasharray="5,2" d="M2064.06,-238.07C2147.43,-251.65 2272.73,-272.43 2381.5,-292 2425.14,-299.85 2474.07,-309.24 2512.38,-316.72"/>
<polygon fill="#c62828" stroke="#c62828" points="2511.89,-320.19 2522.38,-318.67 2513.24,-313.32 2511.89,-320.19"/>
<text text-anchor="middle" x="2283" y="-294.8" font-family="Helvetica,sans-Serif" font-size="9.00">cert rejected</text>
</g>
<!-- auth_cache&#45;&gt;authz_engine -->
<g id="edge11" class="edge">
<title>auth_cache&#45;&gt;authz_engine</title>
<path fill="none" stroke="#90caf9" stroke-dasharray="5,2" d="M1732.67,-195.22C1816.4,-164.08 1968.84,-112.38 2104.5,-93 2136.67,-88.41 2171.92,-92.79 2202.47,-99.64"/>
<polygon fill="#90caf9" stroke="#90caf9" points="2201.68,-103.05 2212.22,-101.94 2203.29,-96.23 2201.68,-103.05"/>
<text text-anchor="middle" x="1969.5" y="-152.8" font-family="Helvetica,sans-Serif" font-size="9.00">hit: skip validate</text>
</g>
<!-- route_table -->
<g id="node15" class="node">
<title>route_table</title>
<path fill="#c8e6c9" stroke="black" d="M2664.5,-148C2664.5,-148 2496.5,-148 2496.5,-148 2490.5,-148 2484.5,-142 2484.5,-136 2484.5,-136 2484.5,-114 2484.5,-114 2484.5,-108 2490.5,-102 2496.5,-102 2496.5,-102 2664.5,-102 2664.5,-102 2670.5,-102 2676.5,-108 2676.5,-114 2676.5,-114 2676.5,-136 2676.5,-136 2676.5,-142 2670.5,-148 2664.5,-148"/>
<text text-anchor="start" x="2547" y="-137" font-family="Helvetica,sans-Serif" font-weight="bold" font-size="10.00">Route Table</text>
<text text-anchor="start" x="2492.5" y="-127" font-family="Helvetica,sans-Serif" font-size="10.00"> &#160;&#160;&#160;&#160;&#160;&#160;&#160;&#160;&#160;&#160;&#160;&#160;&#160;&#160;&#160;&#160;&#160;&#160;&#160;&#160;&#160;</text>
<text text-anchor="start" x="2559.5" y="-127" font-family="Helvetica,sans-Serif" font-size="9.00">Path → service mapping</text>
<text text-anchor="start" x="2500.5" y="-117.8" font-family="Helvetica,sans-Serif" font-size="9.00"> &#160;&#160;&#160;&#160;&#160;&#160;&#160;&#160;&#160;&#160;&#160;&#160;&#160;&#160;&#160;&#160;&#160;&#160;&#160;&#160;&#160;Version routing (A/B)</text>
<text text-anchor="start" x="2498" y="-108.8" font-family="Helvetica,sans-Serif" font-size="9.00"> &#160;&#160;&#160;&#160;&#160;&#160;&#160;&#160;&#160;&#160;&#160;&#160;&#160;&#160;&#160;&#160;&#160;&#160;&#160;&#160;&#160;Feature&#45;flag overrides</text>
</g>
<!-- authz_engine&#45;&gt;route_table -->
<g id="edge23" class="edge">
<title>authz_engine&#45;&gt;route_table</title>
<path fill="none" stroke="#555555" d="M2381.58,-125C2411.26,-125 2444,-125 2474.17,-125"/>
<polygon fill="#555555" stroke="#555555" points="2474.29,-128.5 2484.29,-125 2474.29,-121.5 2474.29,-128.5"/>
<text text-anchor="middle" x="2433" y="-127.8" font-family="Helvetica,sans-Serif" font-size="9.00">authorized</text>
</g>
<!-- policy_store -->
<g id="node17" class="node">
<title>policy_store</title>
<path fill="#a5d6a7" stroke="black" d="M2670,-61.76C2670,-64.31 2629.88,-66.38 2580.5,-66.38 2531.12,-66.38 2491,-64.31 2491,-61.76 2491,-61.76 2491,-20.24 2491,-20.24 2491,-17.69 2531.12,-15.62 2580.5,-15.62 2629.88,-15.62 2670,-17.69 2670,-20.24 2670,-20.24 2670,-61.76 2670,-61.76"/>
<path fill="none" stroke="black" d="M2670,-61.76C2670,-59.22 2629.88,-57.15 2580.5,-57.15 2531.12,-57.15 2491,-59.22 2491,-61.76"/>
<text text-anchor="start" x="2545.5" y="-48.5" font-family="Helvetica,sans-Serif" font-weight="bold" font-size="10.00">Policy Store</text>
<text text-anchor="start" x="2504" y="-38.5" font-family="Helvetica,sans-Serif" font-size="10.00"> &#160;&#160;&#160;&#160;&#160;&#160;&#160;&#160;&#160;&#160;&#160;&#160;&#160;&#160;&#160;&#160;&#160;&#160;&#160;&#160;&#160;&#160;</text>
<text text-anchor="start" x="2574" y="-38.5" font-family="Helvetica,sans-Serif" font-size="9.00">OPA bundles in S3</text>
<text text-anchor="start" x="2499" y="-29.3" font-family="Helvetica,sans-Serif" font-size="9.00"> &#160;&#160;&#160;&#160;&#160;&#160;&#160;&#160;&#160;&#160;&#160;&#160;&#160;&#160;&#160;&#160;&#160;&#160;&#160;&#160;&#160;&#160;Hot&#45;reload every 30s</text>
</g>
<!-- authz_engine&#45;&gt;policy_store -->
<g id="edge22" class="edge">
<title>authz_engine&#45;&gt;policy_store</title>
<path fill="none" stroke="#555555" stroke-dasharray="5,2" d="M2365.14,-101.94C2402.78,-91.23 2447.72,-78.46 2486.71,-67.38"/>
<polygon fill="#555555" stroke="#555555" points="2487.83,-70.7 2496.49,-64.6 2485.91,-63.97 2487.83,-70.7"/>
<text text-anchor="middle" x="2433" y="-90.8" font-family="Helvetica,sans-Serif" font-size="9.00">eval policy</text>
</g>
<!-- authz_engine&#45;&gt;auth_denied -->
<g id="edge24" class="edge">
<title>authz_engine&#45;&gt;auth_denied</title>
<path fill="none" stroke="#c62828" stroke-dasharray="5,2" d="M2342.46,-148.01C2377.39,-163.1 2421.78,-184.7 2457.5,-210 2496.61,-237.7 2534.87,-278.14 2557.83,-304.26"/>
<polygon fill="#c62828" stroke="#c62828" points="2555.24,-306.63 2564.44,-311.88 2560.53,-302.04 2555.24,-306.63"/>
<text text-anchor="middle" x="2433" y="-212.8" font-family="Helvetica,sans-Serif" font-size="9.00">denied</text>
</g>
<!-- request_enricher -->
<g id="node16" class="node">
<title>request_enricher</title>
<path fill="#c8e6c9" stroke="black" d="M2989.5,-148C2989.5,-148 2807.5,-148 2807.5,-148 2801.5,-148 2795.5,-142 2795.5,-136 2795.5,-136 2795.5,-114 2795.5,-114 2795.5,-108 2801.5,-102 2807.5,-102 2807.5,-102 2989.5,-102 2989.5,-102 2995.5,-102 3001.5,-108 3001.5,-114 3001.5,-114 3001.5,-136 3001.5,-136 3001.5,-142 2995.5,-148 2989.5,-148"/>
<text text-anchor="start" x="2850" y="-137" font-family="Helvetica,sans-Serif" font-weight="bold" font-size="10.00">Request Enricher</text>
<text text-anchor="start" x="2823.5" y="-127" font-family="Helvetica,sans-Serif" font-size="10.00"> &#160;&#160;&#160;&#160;&#160;&#160;&#160;&#160;&#160;&#160;&#160;&#160;&#160;&#160;&#160;&#160;&#160;&#160;&#160;&#160;&#160;&#160;&#160;&#160;&#160;&#160;</text>
<text text-anchor="start" x="2905.5" y="-127" font-family="Helvetica,sans-Serif" font-size="9.00">Inject headers:</text>
<text text-anchor="start" x="2807" y="-117.8" font-family="Helvetica,sans-Serif" font-size="9.00"> &#160;&#160;&#160;&#160;&#160;&#160;&#160;&#160;&#160;&#160;&#160;&#160;&#160;&#160;&#160;&#160;&#160;&#160;&#160;&#160;&#160;&#160;&#160;&#160;&#160;&#160;X&#45;Tenant&#45;ID · X&#45;User&#45;ID</text>
<text text-anchor="start" x="2803.5" y="-108.8" font-family="Helvetica,sans-Serif" font-size="9.00"> &#160;&#160;&#160;&#160;&#160;&#160;&#160;&#160;&#160;&#160;&#160;&#160;&#160;&#160;&#160;&#160;&#160;&#160;&#160;&#160;&#160;&#160;&#160;&#160;&#160;&#160;X&#45;Scopes · X&#45;Request&#45;ID</text>
</g>
<!-- route_table&#45;&gt;request_enricher -->
<g id="edge25" class="edge">
<title>route_table&#45;&gt;request_enricher</title>
<path fill="none" stroke="#555555" d="M2676.74,-125C2710.81,-125 2749.53,-125 2784.93,-125"/>
<polygon fill="#555555" stroke="#555555" points="2785.31,-128.5 2795.31,-125 2785.31,-121.5 2785.31,-128.5"/>
<text text-anchor="middle" x="2736" y="-127.8" font-family="Helvetica,sans-Serif" font-size="9.00">route selected</text>
</g>
<!-- user_svc -->
<g id="node18" class="node">
<title>user_svc</title>
<path fill="#cfd8dc" stroke="black" d="M3290.5,-215C3290.5,-215 3225.5,-215 3225.5,-215 3219.5,-215 3213.5,-209 3213.5,-203 3213.5,-203 3213.5,-191 3213.5,-191 3213.5,-185 3219.5,-179 3225.5,-179 3225.5,-179 3290.5,-179 3290.5,-179 3296.5,-179 3302.5,-185 3302.5,-191 3302.5,-191 3302.5,-203 3302.5,-203 3302.5,-209 3296.5,-215 3290.5,-215"/>
<text text-anchor="start" x="3221.5" y="-195.5" font-family="Helvetica,sans-Serif" font-weight="bold" font-size="10.00">User Service</text>
</g>
<!-- request_enricher&#45;&gt;user_svc -->
<g id="edge26" class="edge">
<title>request_enricher&#45;&gt;user_svc</title>
<path fill="none" stroke="#555555" d="M3001.95,-145.63C3067.66,-158.87 3150.3,-175.51 3203.39,-186.2"/>
<polygon fill="#555555" stroke="#555555" points="3202.78,-189.65 3213.28,-188.19 3204.16,-182.79 3202.78,-189.65"/>
<text text-anchor="middle" x="3054.5" y="-163.8" font-family="Helvetica,sans-Serif" font-size="9.00">if /users/*</text>
</g>
<!-- catalog_svc -->
<g id="node19" class="node">
<title>catalog_svc</title>
<path fill="#cfd8dc" stroke="black" d="M3299.5,-143C3299.5,-143 3216.5,-143 3216.5,-143 3210.5,-143 3204.5,-137 3204.5,-131 3204.5,-131 3204.5,-119 3204.5,-119 3204.5,-113 3210.5,-107 3216.5,-107 3216.5,-107 3299.5,-107 3299.5,-107 3305.5,-107 3311.5,-113 3311.5,-119 3311.5,-119 3311.5,-131 3311.5,-131 3311.5,-137 3305.5,-143 3299.5,-143"/>
<text text-anchor="start" x="3212.5" y="-123.5" font-family="Helvetica,sans-Serif" font-weight="bold" font-size="10.00">Catalog Service</text>
</g>
<!-- request_enricher&#45;&gt;catalog_svc -->
<g id="edge27" class="edge">
<title>request_enricher&#45;&gt;catalog_svc</title>
<path fill="none" stroke="#555555" d="M3001.95,-125C3063.84,-125 3140.77,-125 3193.86,-125"/>
<polygon fill="#555555" stroke="#555555" points="3194.15,-128.5 3204.15,-125 3194.15,-121.5 3194.15,-128.5"/>
<text text-anchor="middle" x="3054.5" y="-127.8" font-family="Helvetica,sans-Serif" font-size="9.00">if /catalog/*</text>
</g>
<!-- order_svc -->
<g id="node20" class="node">
<title>order_svc</title>
<path fill="#cfd8dc" stroke="black" d="M3294,-71C3294,-71 3222,-71 3222,-71 3216,-71 3210,-65 3210,-59 3210,-59 3210,-47 3210,-47 3210,-41 3216,-35 3222,-35 3222,-35 3294,-35 3294,-35 3300,-35 3306,-41 3306,-47 3306,-47 3306,-59 3306,-59 3306,-65 3300,-71 3294,-71"/>
<text text-anchor="start" x="3218" y="-51.5" font-family="Helvetica,sans-Serif" font-weight="bold" font-size="10.00">Order Service</text>
</g>
<!-- request_enricher&#45;&gt;order_svc -->
<g id="edge28" class="edge">
<title>request_enricher&#45;&gt;order_svc</title>
<path fill="none" stroke="#555555" d="M3001.95,-104.37C3066.3,-91.41 3146.9,-75.17 3200.07,-64.47"/>
<polygon fill="#555555" stroke="#555555" points="3200.88,-67.87 3209.99,-62.47 3199.5,-61.01 3200.88,-67.87"/>
<text text-anchor="middle" x="3054.5" y="-99.8" font-family="Helvetica,sans-Serif" font-size="9.00">if /orders/*</text>
</g>
<!-- l_svc -->
<g id="node23" class="node">
<title>l_svc</title>
<path fill="#bbdefb" stroke="black" d="M160.17,-677C160.17,-677 52.83,-677 52.83,-677 49.17,-677 45.5,-673.33 45.5,-669.67 45.5,-669.67 45.5,-662.33 45.5,-662.33 45.5,-658.67 49.17,-655 52.83,-655 52.83,-655 160.17,-655 160.17,-655 163.83,-655 167.5,-658.67 167.5,-662.33 167.5,-662.33 167.5,-669.67 167.5,-669.67 167.5,-673.33 163.83,-677 160.17,-677"/>
<text text-anchor="middle" x="106.5" y="-663.8" font-family="Helvetica,sans-Serif" font-size="9.00">Service</text>
</g>
<!-- l_gate -->
<g id="node24" class="node">
<title>l_gate</title>
<polygon fill="#fff9c4" stroke="#f9a825" points="396.5,-684 319.5,-666 396.5,-648 473.5,-666 396.5,-684"/>
<text text-anchor="middle" x="396.5" y="-663.8" font-family="Helvetica,sans-Serif" font-size="9.00">Decision gate</text>
</g>
<!-- l_svc&#45;&gt;l_gate -->
<!-- l_store -->
<g id="node25" class="node">
<title>l_store</title>
<path fill="#b3e5fc" stroke="black" d="M782.5,-676.02C782.5,-677.25 755.16,-678.25 721.5,-678.25 687.84,-678.25 660.5,-677.25 660.5,-676.02 660.5,-676.02 660.5,-655.98 660.5,-655.98 660.5,-654.75 687.84,-653.75 721.5,-653.75 755.16,-653.75 782.5,-654.75 782.5,-655.98 782.5,-655.98 782.5,-676.02 782.5,-676.02"/>
<path fill="none" stroke="black" d="M782.5,-676.02C782.5,-674.79 755.16,-673.8 721.5,-673.8 687.84,-673.8 660.5,-674.79 660.5,-676.02"/>
<text text-anchor="middle" x="721.5" y="-663.8" font-family="Helvetica,sans-Serif" font-size="9.00">Data store</text>
</g>
<!-- l_gate&#45;&gt;l_store -->
<!-- l_bound -->
<g id="node26" class="node">
<title>l_bound</title>
<path fill="#cfd8dc" stroke="black" d="M1107.17,-677C1107.17,-677 977.83,-677 977.83,-677 974.17,-677 970.5,-673.33 970.5,-669.67 970.5,-669.67 970.5,-662.33 970.5,-662.33 970.5,-658.67 974.17,-655 977.83,-655 977.83,-655 1107.17,-655 1107.17,-655 1110.83,-655 1114.5,-658.67 1114.5,-662.33 1114.5,-662.33 1114.5,-669.67 1114.5,-669.67 1114.5,-673.33 1110.83,-677 1107.17,-677"/>
<text text-anchor="middle" x="1042.5" y="-663.8" font-family="Helvetica,sans-Serif" font-size="9.00">Boundary (from overview)</text>
</g>
<!-- l_store&#45;&gt;l_bound -->
<!-- l_error -->
<g id="node27" class="node">
<title>l_error</title>
<path fill="#ffcdd2" stroke="#c62828" d="M1406.67,-677C1406.67,-677 1299.33,-677 1299.33,-677 1295.67,-677 1292,-673.33 1292,-669.67 1292,-669.67 1292,-662.33 1292,-662.33 1292,-658.67 1295.67,-655 1299.33,-655 1299.33,-655 1406.67,-655 1406.67,-655 1410.33,-655 1414,-658.67 1414,-662.33 1414,-662.33 1414,-669.67 1414,-669.67 1414,-673.33 1410.33,-677 1406.67,-677"/>
<text text-anchor="middle" x="1353" y="-663.8" font-family="Helvetica,sans-Serif" font-size="9.00">Error response</text>
</g>
<!-- l_bound&#45;&gt;l_error -->
</g>
</svg>
