<?xml version="1.0" encoding="UTF-8" standalone="no"?>
<!DOCTYPE svg PUBLIC "-//W3C//DTD SVG 1.1//EN"
 "http://www.w3.org/Graphics/SVG/1.1/DTD/svg11.dtd">
<!-- Generated by graphviz version 2.43.0 (0)
 -->
<!-- Title: bundle_validation_recipes Pages: 1 -->
<svg width="1778pt" height="1564pt"
 viewBox="0.00 0.00 1778.00 1564.38" xmlns="http://www.w3.org/2000/svg" xmlns:xlink="http://www.w3.org/1999/xlink">
<g id="graph0" class="graph" transform="scale(1 1) rotate(0) translate(36 1528.38)">
<title>bundle_validation_recipes</title>
<polygon fill="white" stroke="transparent" points="-36,36 -36,-1528.38 1742,-1528.38 1742,36 -36,36"/>
<text text-anchor="start" x="658" y="-1478.18" font-family="Helvetica,sans-Serif" font-weight="bold" font-size="14.00">Amplifier Foundation — Bundle Validation Recipes</text>
<g id="clust1" class="cluster">
<title>cluster_validate_bundle</title>
<path fill="#e3f2fd" stroke="#2196f3" stroke-width="2" d="M20,-962C20,-962 297,-962 297,-962 303,-962 309,-968 309,-974 309,-974 309,-1415.38 309,-1415.38 309,-1421.38 303,-1427.38 297,-1427.38 297,-1427.38 20,-1427.38 20,-1427.38 14,-1427.38 8,-1421.38 8,-1415.38 8,-1415.38 8,-974 8,-974 8,-968 14,-962 20,-962"/>
<text text-anchor="start" x="67" y="-1414.78" font-family="Helvetica,sans-Serif" font-weight="bold" font-size="12.00">validate&#45;bundle.yaml</text>
<text text-anchor="start" x="209" y="-1414.78" font-family="Helvetica,sans-Serif" font-size="12.00"> v2.0.0</text>
<text text-anchor="start" x="16" y="-1402.78" font-family="Helvetica,sans-Serif" font-style="italic" font-size="12.00">Multi&#45;Bundle Validator with Dependency Tracing</text>
</g>
<g id="clust2" class="cluster">
<title>cluster_validate_single</title>
<path fill="#fff3e0" stroke="#ff9800" stroke-width="2" stroke-dasharray="5,2" d="M329,-726C329,-726 549,-726 549,-726 555,-726 561,-732 561,-738 561,-738 561,-1051 561,-1051 561,-1057 555,-1063 549,-1063 549,-1063 329,-1063 329,-1063 323,-1063 317,-1057 317,-1051 317,-1051 317,-738 317,-738 317,-732 323,-726 329,-726"/>
<text text-anchor="start" x="325" y="-1050.4" font-family="Helvetica,sans-Serif" font-weight="bold" font-size="12.00">validate&#45;single&#45;bundle.yaml</text>
<text text-anchor="start" x="512" y="-1050.4" font-family="Helvetica,sans-Serif" font-size="12.00"> v2.0.0</text>
<text text-anchor="start" x="330" y="-1038.4" font-family="Helvetica,sans-Serif" font-style="italic" font-size="12.00">Single Bundle Validator (Sub&#45;Recipe)</text>
</g>
<g id="clust3" class="cluster">
<title>cluster_validate_repo</title>
<path fill="#e8f5e9" stroke="#4caf50" stroke-width="2" d="M581,-8C581,-8 1498,-8 1498,-8 1504,-8 1510,-14 1510,-20 1510,-20 1510,-1449.38 1510,-1449.38 1510,-1455.38 1504,-1461.38 1498,-1461.38 1498,-1461.38 581,-1461.38 581,-1461.38 575,-1461.38 569,-1455.38 569,-1449.38 569,-1449.38 569,-20 569,-20 569,-14 575,-8 581,-8"/>
<text text-anchor="start" x="930" y="-1448.78" font-family="Helvetica,sans-Serif" font-weight="bold" font-size="12.00">validate&#45;bundle&#45;repo.yaml</text>
<text text-anchor="start" x="1108" y="-1448.78" font-family="Helvetica,sans-Serif" font-size="12.00"> v3.2.0</text>
<text text-anchor="start" x="887" y="-1436.78" font-family="Helvetica,sans-Serif" font-style="italic" font-size="12.00">Repository&#45;Wide Structural Validator (Independent)</text>
</g>
<g id="clust4" class="cluster">
<title>cluster_phase0</title>
<path fill="#eceff1" stroke="#78909c" stroke-width="2" d="M955,-1326.38C955,-1326.38 1105,-1326.38 1105,-1326.38 1111,-1326.38 1117,-1332.38 1117,-1338.38 1117,-1338.38 1117,-1409.38 1117,-1409.38 1117,-1415.38 1111,-1421.38 1105,-1421.38 1105,-1421.38 955,-1421.38 955,-1421.38 949,-1421.38 943,-1415.38 943,-1409.38 943,-1409.38 943,-1338.38 943,-1338.38 943,-1332.38 949,-1326.38 955,-1326.38"/>
<text text-anchor="middle" x="1030" y="-1407.78" font-family="Helvetica,sans-Serif" font-size="12.00">Phase 0: Environment</text>
</g>
<g id="clust5" class="cluster">
<title>cluster_packaging</title>
<path fill="#eceff1" stroke="#78909c" stroke-width="2" d="M935,-962C935,-962 1237,-962 1237,-962 1243,-962 1249,-968 1249,-974 1249,-974 1249,-1291.38 1249,-1291.38 1249,-1297.38 1243,-1303.38 1237,-1303.38 1237,-1303.38 935,-1303.38 935,-1303.38 929,-1303.38 923,-1297.38 923,-1291.38 923,-1291.38 923,-974 923,-974 923,-968 929,-962 935,-962"/>
<text text-anchor="middle" x="1086" y="-1289.78" font-family="Helvetica,sans-Serif" font-size="12.00">Phase 0.5–0.7: Packaging</text>
</g>
<g id="clust6" class="cluster">
<title>cluster_phase1</title>
<path fill="#eceff1" stroke="#78909c" stroke-width="2" d="M1013,-839C1013,-839 1147,-839 1147,-839 1153,-839 1159,-845 1159,-851 1159,-851 1159,-922 1159,-922 1159,-928 1153,-934 1147,-934 1147,-934 1013,-934 1013,-934 1007,-934 1001,-928 1001,-922 1001,-922 1001,-851 1001,-851 1001,-845 1007,-839 1013,-839"/>
<text text-anchor="middle" x="1080" y="-920.4" font-family="Helvetica,sans-Serif" font-size="12.00">Phase 1: Discovery</text>
</g>
<g id="clust7" class="cluster">
<title>cluster_phase2</title>
<path fill="#eceff1" stroke="#78909c" stroke-width="2" d="M589,-633C589,-633 1460,-633 1460,-633 1466,-633 1472,-639 1472,-645 1472,-645 1472,-804 1472,-804 1472,-810 1466,-816 1460,-816 1460,-816 589,-816 589,-816 583,-816 577,-810 577,-804 577,-804 577,-645 577,-645 577,-639 583,-633 589,-633"/>
<text text-anchor="middle" x="1024.5" y="-802.4" font-family="Helvetica,sans-Serif" font-size="12.00">Phase 2: Validation Battery</text>
</g>
<g id="clust8" class="cluster">
<title>cluster_quality</title>
<path fill="#eceff1" stroke="#78909c" stroke-width="2" d="M1012,-515C1012,-515 1194,-515 1194,-515 1200,-515 1206,-521 1206,-527 1206,-527 1206,-598 1206,-598 1206,-604 1200,-610 1194,-610 1194,-610 1012,-610 1012,-610 1006,-610 1000,-604 1000,-598 1000,-598 1000,-527 1000,-527 1000,-521 1006,-515 1012,-515"/>
<text text-anchor="middle" x="1103" y="-596.4" font-family="Helvetica,sans-Serif" font-size="12.00">Phase 2.6: Quality Classification</text>
</g>
<g id="clust9" class="cluster">
<title>cluster_phase3</title>
<path fill="#eceff1" stroke="#78909c" stroke-width="2" d="M898,-16C898,-16 1335,-16 1335,-16 1341,-16 1347,-22 1347,-28 1347,-28 1347,-480 1347,-480 1347,-486 1341,-492 1335,-492 1335,-492 898,-492 898,-492 892,-492 886,-486 886,-480 886,-480 886,-28 886,-28 886,-22 892,-16 898,-16"/>
<text text-anchor="middle" x="1116.5" y="-478.4" font-family="Helvetica,sans-Serif" font-size="12.00">Phase 3: Reporting</text>
</g>
<g id="clust10" class="cluster">
<title>cluster_legend</title>
<path fill="#fafafa" stroke="#9e9e9e" d="M1530,-744C1530,-744 1686,-744 1686,-744 1692,-744 1698,-750 1698,-756 1698,-756 1698,-1390.38 1698,-1390.38 1698,-1396.38 1692,-1402.38 1686,-1402.38 1686,-1402.38 1530,-1402.38 1530,-1402.38 1524,-1402.38 1518,-1396.38 1518,-1390.38 1518,-1390.38 1518,-756 1518,-756 1518,-750 1524,-744 1530,-744"/>
<text text-anchor="start" x="1585.5" y="-1390.58" font-family="Helvetica,sans-Serif" font-weight="bold" font-size="11.00">Legend</text>
</g>
<!-- vb_env -->
<g id="node1" class="node">
<title>vb_env</title>
<polygon fill="#bbdefb" stroke="black" points="244.5,-1387.38 119.5,-1387.38 119.5,-1339.38 244.5,-1339.38 244.5,-1387.38"/>
<text text-anchor="start" x="127.5" y="-1376.38" font-family="Helvetica,sans-Serif" font-weight="bold" font-size="10.00">environment&#45;check</text>
<text text-anchor="start" x="137.5" y="-1366.38" font-family="Helvetica,sans-Serif" font-size="10.00">Check/auto&#45;install</text>
<text text-anchor="start" x="131" y="-1356.38" font-family="Helvetica,sans-Serif" font-size="10.00">amplifier_foundation</text>
<text text-anchor="start" x="148" y="-1346.38" font-family="Helvetica,sans-Serif" font-style="italic" font-size="10.00">timeout: 180s</text>
</g>
<!-- vb_discover -->
<g id="node2" class="node">
<title>vb_discover</title>
<polygon fill="#bbdefb" stroke="black" points="246,-1274.38 118,-1274.38 118,-1226.38 246,-1226.38 246,-1274.38"/>
<text text-anchor="start" x="132.5" y="-1263.38" font-family="Helvetica,sans-Serif" font-weight="bold" font-size="10.00">discover&#45;bundles</text>
<text text-anchor="start" x="127.5" y="-1253.38" font-family="Helvetica,sans-Serif" font-size="10.00">Find root bundle.md +</text>
<text text-anchor="start" x="126" y="-1243.38" font-family="Helvetica,sans-Serif" font-size="10.00">/bundles/* standalones</text>
<text text-anchor="start" x="151" y="-1233.38" font-family="Helvetica,sans-Serif" font-style="italic" font-size="10.00">timeout: 30s</text>
</g>
<!-- vb_env&#45;&gt;vb_discover -->
<g id="edge1" class="edge">
<title>vb_env&#45;&gt;vb_discover</title>
<path fill="none" stroke="black" d="M182,-1339.11C182,-1323.43 182,-1302.48 182,-1284.99"/>
<polygon fill="black" stroke="black" points="185.5,-1284.62 182,-1274.62 178.5,-1284.62 185.5,-1284.62"/>
</g>
<!-- vb_foreach -->
<g id="node3" class="node">
<title>vb_foreach</title>
<polygon fill="#e1bee7" stroke="black" points="301.42,-1142.19 241.71,-1181.58 122.29,-1181.58 62.58,-1142.19 122.29,-1102.81 241.71,-1102.81 301.42,-1142.19"/>
<text text-anchor="start" x="133.5" y="-1155.19" font-family="Helvetica,sans-Serif" font-weight="bold" font-size="10.00">validate&#45;bundles</text>
<text text-anchor="start" x="117" y="-1145.19" font-family="Helvetica,sans-Serif" font-size="10.00">foreach: discovery.bundles</text>
<text text-anchor="start" x="123" y="-1135.19" font-family="Helvetica,sans-Serif" font-size="10.00">collect → bundle_results</text>
<text text-anchor="start" x="119.5" y="-1125.19" font-family="Helvetica,sans-Serif" font-style="italic" font-size="10.00">sequential, timeout: 600s</text>
</g>
<!-- vb_discover&#45;&gt;vb_foreach -->
<g id="edge2" class="edge">
<title>vb_discover&#45;&gt;vb_foreach</title>
<path fill="none" stroke="black" d="M182,-1226.34C182,-1216.14 182,-1203.74 182,-1191.66"/>
<polygon fill="black" stroke="black" points="185.5,-1191.64 182,-1181.64 178.5,-1191.64 185.5,-1191.64"/>
</g>
<!-- vb_synth -->
<g id="node4" class="node">
<title>vb_synth</title>
<polygon fill="#c8e6c9" stroke="black" points="250,-1018 114,-1018 114,-970 250,-970 250,-1018"/>
<text text-anchor="start" x="131.5" y="-1007" font-family="Helvetica,sans-Serif" font-weight="bold" font-size="10.00">synthesize&#45;report</text>
<text text-anchor="start" x="122" y="-997" font-family="Helvetica,sans-Serif" font-size="10.00">foundation:zen&#45;architect</text>
<text text-anchor="start" x="144" y="-987" font-family="Helvetica,sans-Serif" font-size="10.00">ANALYZE mode</text>
<text text-anchor="start" x="148" y="-977" font-family="Helvetica,sans-Serif" font-style="italic" font-size="10.00">timeout: 300s</text>
</g>
<!-- vb_foreach&#45;&gt;vb_synth -->
<g id="edge3" class="edge">
<title>vb_foreach&#45;&gt;vb_synth</title>
<path fill="none" stroke="black" d="M182,-1102.78C182,-1079.66 182,-1050.52 182,-1028.36"/>
<polygon fill="black" stroke="black" points="185.5,-1028.11 182,-1018.11 178.5,-1028.11 185.5,-1028.11"/>
</g>
<!-- vs_trace -->
<g id="node5" class="node">
<title>vs_trace</title>
<polygon fill="#ffe0b2" stroke="black" points="458.5,-1023 325.5,-1023 325.5,-965 458.5,-965 458.5,-1023"/>
<text text-anchor="start" x="335.5" y="-1012" font-family="Helvetica,sans-Serif" font-weight="bold" font-size="10.00">trace&#45;dependencies</text>
<text text-anchor="start" x="344" y="-1002" font-family="Helvetica,sans-Serif" font-size="10.00">Walk includes: DAG</text>
<text text-anchor="start" x="333.5" y="-992" font-family="Helvetica,sans-Serif" font-size="10.00">Resolve local behaviors</text>
<text text-anchor="start" x="345" y="-982" font-family="Helvetica,sans-Serif" font-size="10.00">Extract @mentions</text>
<text text-anchor="start" x="361" y="-972" font-family="Helvetica,sans-Serif" font-style="italic" font-size="10.00">timeout: 60s</text>
</g>
<!-- vb_foreach&#45;&gt;vs_trace -->
<g id="edge6" class="edge">
<title>vb_foreach&#45;&gt;vs_trace</title>
<path fill="none" stroke="#ff9800" stroke-width="2" stroke-dasharray="5,2" d="M248.18,-1107.02C268.14,-1095.84 289.97,-1082.73 309.69,-1068.94"/>
<polygon fill="#ff9800" stroke="#ff9800" stroke-width="2" points="311.9,-1071.66 318,-1063 307.83,-1065.97 311.9,-1071.66"/>
<text text-anchor="middle" x="346.5" y="-1073.8" font-family="Helvetica,sans-Serif" font-size="9.00"> &#160;calls per bundle &#160;</text>
</g>
<!-- vs_context -->
<g id="node6" class="node">
<title>vs_context</title>
<polygon fill="#ffe0b2" stroke="black" points="455.5,-905 328.5,-905 328.5,-847 455.5,-847 455.5,-905"/>
<text text-anchor="start" x="345" y="-894" font-family="Helvetica,sans-Serif" font-weight="bold" font-size="10.00">context&#45;analysis</text>
<text text-anchor="start" x="336.5" y="-884" font-family="Helvetica,sans-Serif" font-size="10.00">Token counting (len//4)</text>
<text text-anchor="start" x="343.5" y="-874" font-family="Helvetica,sans-Serif" font-size="10.00">Per&#45;file: ⚠4K / 🚫8K</text>
<text text-anchor="start" x="346" y="-864" font-family="Helvetica,sans-Serif" font-size="10.00">Total: ⚠8K / 🚫16K</text>
<text text-anchor="start" x="361" y="-854" font-family="Helvetica,sans-Serif" font-style="italic" font-size="10.00">timeout: 60s</text>
</g>
<!-- vs_trace&#45;&gt;vs_context -->
<g id="edge4" class="edge">
<title>vs_trace&#45;&gt;vs_context</title>
<path fill="none" stroke="black" d="M392,-964.92C392,-950.07 392,-931.61 392,-915.45"/>
<polygon fill="black" stroke="black" points="395.5,-915.22 392,-905.22 388.5,-915.22 395.5,-915.22"/>
</g>
<!-- vs_report -->
<g id="node7" class="node">
<title>vs_report</title>
<polygon fill="#c8e6c9" stroke="black" points="461,-792 325,-792 325,-734 461,-734 461,-792"/>
<text text-anchor="start" x="347" y="-781" font-family="Helvetica,sans-Serif" font-weight="bold" font-size="10.00">generate&#45;report</text>
<text text-anchor="start" x="333" y="-771" font-family="Helvetica,sans-Serif" font-size="10.00">foundation:zen&#45;architect</text>
<text text-anchor="start" x="355" y="-761" font-family="Helvetica,sans-Serif" font-size="10.00">ANALYZE mode</text>
<text text-anchor="start" x="333" y="-751" font-family="Helvetica,sans-Serif" font-size="10.00">Verdict: PASS/FAIL/WARN</text>
<text text-anchor="start" x="359" y="-741" font-family="Helvetica,sans-Serif" font-style="italic" font-size="10.00">timeout: 180s</text>
</g>
<!-- vs_context&#45;&gt;vs_report -->
<g id="edge5" class="edge">
<title>vs_context&#45;&gt;vs_report</title>
<path fill="none" stroke="black" d="M392.25,-846.99C392.37,-833.45 392.52,-816.99 392.65,-802.31"/>
<polygon fill="black" stroke="black" points="396.16,-802.03 392.75,-792 389.16,-801.97 396.16,-802.03"/>
</g>
<!-- vr_env -->
<g id="node8" class="node">
<title>vr_env</title>
<polygon fill="#bbdefb" stroke="black" points="1109,-1392.38 951,-1392.38 951,-1334.38 1109,-1334.38 1109,-1392.38"/>
<text text-anchor="start" x="975.5" y="-1381.38" font-family="Helvetica,sans-Serif" font-weight="bold" font-size="10.00">environment&#45;check</text>
<text text-anchor="start" x="959" y="-1371.38" font-family="Helvetica,sans-Serif" font-size="10.00">Detect foundation, hatchling,</text>
<text text-anchor="start" x="980.5" y="-1361.38" font-family="Helvetica,sans-Serif" font-size="10.00">pip wheel capability</text>
<text text-anchor="start" x="983" y="-1351.38" font-family="Helvetica,sans-Serif" font-size="10.00">→ validation_mode</text>
<text text-anchor="start" x="999" y="-1341.38" font-family="Helvetica,sans-Serif" font-style="italic" font-size="10.00">timeout: 30s</text>
</g>
<!-- vr_pkg -->
<g id="node9" class="node">
<title>vr_pkg</title>
<polygon fill="#bbdefb" stroke="black" points="1086.5,-1274.38 973.5,-1274.38 973.5,-1226.38 1086.5,-1226.38 1086.5,-1274.38"/>
<text text-anchor="start" x="981.5" y="-1263.38" font-family="Helvetica,sans-Serif" font-weight="bold" font-size="10.00">packaging&#45;check</text>
<text text-anchor="start" x="994" y="-1253.38" font-family="Helvetica,sans-Serif" font-size="10.00">pyproject.toml</text>
<text text-anchor="start" x="983" y="-1243.38" font-family="Helvetica,sans-Serif" font-size="10.00">force&#45;include paths</text>
<text text-anchor="start" x="999" y="-1233.38" font-family="Helvetica,sans-Serif" font-style="italic" font-size="10.00">timeout: 30s</text>
</g>
<!-- vr_env&#45;&gt;vr_pkg -->
<g id="edge18" class="edge">
<title>vr_env&#45;&gt;vr_pkg</title>
<path fill="none" stroke="black" d="M1030,-1334.37C1030,-1319.35 1030,-1300.72 1030,-1284.92"/>
<polygon fill="black" stroke="black" points="1033.5,-1284.52 1030,-1274.52 1026.5,-1284.52 1033.5,-1284.52"/>
</g>
<!-- vr_build_gate -->
<g id="node10" class="node">
<title>vr_build_gate</title>
<polygon fill="#fff9c4" stroke="black" points="1030,-1160.19 955.15,-1142.19 1030,-1124.19 1104.85,-1142.19 1030,-1160.19"/>
<text text-anchor="middle" x="1030" y="-1139.69" font-family="Helvetica,sans-Serif" font-size="10.00">has_pyproject?</text>
</g>
<!-- vr_pkg&#45;&gt;vr_build_gate -->
<g id="edge7" class="edge">
<title>vr_pkg&#45;&gt;vr_build_gate</title>
<path fill="none" stroke="black" d="M1030,-1226.34C1030,-1209.87 1030,-1187.65 1030,-1170.33"/>
<polygon fill="black" stroke="black" points="1033.5,-1170.27 1030,-1160.27 1026.5,-1170.27 1033.5,-1170.27"/>
</g>
<!-- vr_build -->
<g id="node11" class="node">
<title>vr_build</title>
<polygon fill="#bbdefb" stroke="black" points="1056.5,-1018 931.5,-1018 931.5,-970 1056.5,-970 1056.5,-1018"/>
<text text-anchor="start" x="960.5" y="-1007" font-family="Helvetica,sans-Serif" font-weight="bold" font-size="10.00">build&#45;check</text>
<text text-anchor="start" x="945.5" y="-997" font-family="Helvetica,sans-Serif" font-size="10.00">pip wheel &#45;&#45;no&#45;deps</text>
<text text-anchor="start" x="939.5" y="-987" font-family="Helvetica,sans-Serif" font-size="10.00">dry&#45;run (graceful skip)</text>
<text text-anchor="start" x="960" y="-977" font-family="Helvetica,sans-Serif" font-style="italic" font-size="10.00">timeout: 180s</text>
</g>
<!-- vr_build_gate&#45;&gt;vr_build -->
<g id="edge8" class="edge">
<title>vr_build_gate&#45;&gt;vr_build</title>
<path fill="none" stroke="black" d="M1026.01,-1124.99C1020.29,-1101.78 1009.65,-1058.54 1002.21,-1028.33"/>
<polygon fill="black" stroke="black" points="1005.51,-1027.12 999.72,-1018.25 998.72,-1028.79 1005.51,-1027.12"/>
<text text-anchor="middle" x="1023.5" y="-1073.8" font-family="Helvetica,sans-Serif" font-size="9.00">true</text>
</g>
<!-- vr_build_default -->
<g id="node12" class="node">
<title>vr_build_default</title>
<polygon fill="#e0e0e0" stroke="black" points="1241.5,-1018 1092.5,-1018 1092.5,-970 1241.5,-970 1241.5,-1018"/>
<text text-anchor="start" x="1100.5" y="-1007" font-family="Helvetica,sans-Serif" font-weight="bold" font-size="10.00">set&#45;default&#45;build&#45;check</text>
<text text-anchor="start" x="1123" y="-997" font-family="Helvetica,sans-Serif" font-size="10.00">No pyproject.toml</text>
<text text-anchor="start" x="1123" y="-987" font-family="Helvetica,sans-Serif" font-size="10.00">→ skipped/passed</text>
<text text-anchor="start" x="1136" y="-977" font-family="Helvetica,sans-Serif" font-style="italic" font-size="10.00">timeout: 10s</text>
</g>
<!-- vr_build_gate&#45;&gt;vr_build_default -->
<g id="edge9" class="edge">
<title>vr_build_gate&#45;&gt;vr_build_default</title>
<path fill="none" stroke="black" d="M1043.14,-1127.17C1064.93,-1103.92 1109.06,-1056.83 1138.33,-1025.6"/>
<polygon fill="black" stroke="black" points="1141.14,-1027.71 1145.42,-1018.02 1136.03,-1022.93 1141.14,-1027.71"/>
<text text-anchor="middle" x="1104.5" y="-1073.8" font-family="Helvetica,sans-Serif" font-size="9.00">false</text>
</g>
<!-- vr_disco -->
<g id="node13" class="node">
<title>vr_disco</title>
<polygon fill="#bbdefb" stroke="black" points="1150.5,-905 1009.5,-905 1009.5,-847 1150.5,-847 1150.5,-905"/>
<text text-anchor="start" x="1036.5" y="-894" font-family="Helvetica,sans-Serif" font-weight="bold" font-size="10.00">repo&#45;discovery</text>
<text text-anchor="start" x="1030" y="-884" font-family="Helvetica,sans-Serif" font-size="10.00">Find root, behaviors,</text>
<text text-anchor="start" x="1017.5" y="-874" font-family="Helvetica,sans-Serif" font-size="10.00">standalone, experiments,</text>
<text text-anchor="start" x="1037.5" y="-864" font-family="Helvetica,sans-Serif" font-size="10.00">providers, agents</text>
<text text-anchor="start" x="1049" y="-854" font-family="Helvetica,sans-Serif" font-style="italic" font-size="10.00">timeout: 60s</text>
</g>
<!-- vr_build&#45;&gt;vr_disco -->
<g id="edge19" class="edge">
<title>vr_build&#45;&gt;vr_disco</title>
<path fill="none" stroke="black" d="M1011.2,-969.8C1023.18,-953.64 1039.42,-931.74 1053.1,-913.28"/>
<polygon fill="black" stroke="black" points="1056.05,-915.19 1059.19,-905.07 1050.42,-911.02 1056.05,-915.19"/>
</g>
<!-- vr_build_default&#45;&gt;vr_disco -->
<g id="edge20" class="edge">
<title>vr_build_default&#45;&gt;vr_disco</title>
<path fill="none" stroke="black" d="M1149.6,-969.8C1137.48,-953.64 1121.06,-931.74 1107.21,-913.28"/>
<polygon fill="black" stroke="black" points="1109.85,-910.97 1101.05,-905.07 1104.25,-915.17 1109.85,-910.97"/>
</g>
<!-- vr_val_all -->
<g id="node14" class="node">
<title>vr_val_all</title>
<polygon fill="#bbdefb" stroke="black" points="1169.5,-787 990.5,-787 990.5,-739 1169.5,-739 1169.5,-787"/>
<text text-anchor="start" x="1022.5" y="-776" font-family="Helvetica,sans-Serif" font-weight="bold" font-size="10.00">validate&#45;all&#45;bundles</text>
<text text-anchor="start" x="1015" y="-766" font-family="Helvetica,sans-Serif" font-size="10.00">BundleRegistry per&#45;bundle</text>
<text text-anchor="start" x="1039" y="-756" font-family="Helvetica,sans-Serif" font-size="10.00">load test (async)</text>
<text text-anchor="start" x="998.5" y="-746" font-family="Helvetica,sans-Serif" font-style="italic" font-size="10.00">timeout: 300s, on_error: continue</text>
</g>
<!-- vr_disco&#45;&gt;vr_val_all -->
<g id="edge21" class="edge">
<title>vr_disco&#45;&gt;vr_val_all</title>
<path fill="none" stroke="black" d="M1080,-846.99C1080,-831.96 1080,-813.34 1080,-797.54"/>
<polygon fill="black" stroke="black" points="1083.5,-797.13 1080,-787.13 1076.5,-797.13 1083.5,-797.13"/>
</g>
<!-- vr_hygiene -->
<g id="node15" class="node">
<title>vr_hygiene</title>
<polygon fill="#bbdefb" stroke="black" points="701,-689 585,-689 585,-641 701,-641 701,-689"/>
<text text-anchor="start" x="593" y="-678" font-family="Helvetica,sans-Serif" font-weight="bold" font-size="10.00">behavior&#45;hygiene</text>
<text text-anchor="start" x="603" y="-668" font-family="Helvetica,sans-Serif" font-size="10.00">No root includes</text>
<text text-anchor="start" x="593" y="-658" font-family="Helvetica,sans-Serif" font-size="10.00">Context token limits</text>
<text text-anchor="start" x="609" y="-648" font-family="Helvetica,sans-Serif" font-style="italic" font-size="10.00">timeout: 120s</text>
</g>
<!-- vr_val_all&#45;&gt;vr_hygiene -->
<g id="edge22" class="edge">
<title>vr_val_all&#45;&gt;vr_hygiene</title>
<path fill="none" stroke="black" d="M990.36,-746.15C917.22,-732.66 811.41,-711.87 720,-689 717.05,-688.26 714.04,-687.48 711.01,-686.67"/>
<polygon fill="black" stroke="black" points="711.86,-683.28 701.29,-684.01 710.01,-690.03 711.86,-683.28"/>
</g>
<!-- vr_standalone -->
<g id="node16" class="node">
<title>vr_standalone</title>
<polygon fill="#bbdefb" stroke="black" points="898.5,-689 737.5,-689 737.5,-641 898.5,-641 898.5,-689"/>
<text text-anchor="start" x="745.5" y="-678" font-family="Helvetica,sans-Serif" font-weight="bold" font-size="10.00">standalone&#45;completeness</text>
<text text-anchor="start" x="762" y="-668" font-family="Helvetica,sans-Serif" font-size="10.00">Orchestrator + session</text>
<text text-anchor="start" x="781.5" y="-658" font-family="Helvetica,sans-Serif" font-size="10.00">config required</text>
<text text-anchor="start" x="784" y="-648" font-family="Helvetica,sans-Serif" font-style="italic" font-size="10.00">timeout: 180s</text>
</g>
<!-- vr_val_all&#45;&gt;vr_standalone -->
<g id="edge23" class="edge">
<title>vr_val_all&#45;&gt;vr_standalone</title>
<path fill="none" stroke="black" d="M1016.91,-738.88C978.86,-724.94 930.25,-707.13 890.61,-692.6"/>
<polygon fill="black" stroke="black" points="891.59,-689.24 881,-689.08 889.18,-695.81 891.59,-689.24"/>
</g>
<!-- vr_experiments -->
<g id="node17" class="node">
<title>vr_experiments</title>
<polygon fill="#bbdefb" stroke="black" points="1083.5,-689 934.5,-689 934.5,-641 1083.5,-641 1083.5,-689"/>
<text text-anchor="start" x="942.5" y="-678" font-family="Helvetica,sans-Serif" font-weight="bold" font-size="10.00">experiments&#45;validation</text>
<text text-anchor="start" x="949.5" y="-668" font-family="Helvetica,sans-Serif" font-size="10.00">Naming, EXPERIMENTAL</text>
<text text-anchor="start" x="965.5" y="-658" font-family="Helvetica,sans-Serif" font-size="10.00">warning presence</text>
<text text-anchor="start" x="975" y="-648" font-family="Helvetica,sans-Serif" font-style="italic" font-size="10.00">timeout: 120s</text>
</g>
<!-- vr_val_all&#45;&gt;vr_experiments -->
<g id="edge24" class="edge">
<title>vr_val_all&#45;&gt;vr_experiments</title>
<path fill="none" stroke="black" d="M1062.81,-738.76C1053.57,-726.26 1042.04,-710.68 1032.03,-697.14"/>
<polygon fill="black" stroke="black" points="1034.79,-694.98 1026.03,-689.02 1029.16,-699.15 1034.79,-694.98"/>
</g>
<!-- vr_context_sink -->
<g id="node18" class="node">
<title>vr_context_sink</title>
<polygon fill="#bbdefb" stroke="black" points="1274.5,-689 1119.5,-689 1119.5,-641 1274.5,-641 1274.5,-689"/>
<text text-anchor="start" x="1127.5" y="-678" font-family="Helvetica,sans-Serif" font-weight="bold" font-size="10.00">context&#45;sink&#45;compliance</text>
<text text-anchor="start" x="1151.5" y="-668" font-family="Helvetica,sans-Serif" font-size="10.00">Root context bloat</text>
<text text-anchor="start" x="1139.5" y="-658" font-family="Helvetica,sans-Serif" font-size="10.00">detection (&gt;5 includes)</text>
<text text-anchor="start" x="1163" y="-648" font-family="Helvetica,sans-Serif" font-style="italic" font-size="10.00">timeout: 120s</text>
</g>
<!-- vr_val_all&#45;&gt;vr_context_sink -->
<g id="edge25" class="edge">
<title>vr_val_all&#45;&gt;vr_context_sink</title>
<path fill="none" stroke="black" d="M1108.32,-738.76C1124.13,-725.79 1143.99,-709.5 1160.9,-695.62"/>
<polygon fill="black" stroke="black" points="1163.43,-698.07 1168.94,-689.02 1158.99,-692.66 1163.43,-698.07"/>
</g>
<!-- vr_tool_place -->
<g id="node19" class="node">
<title>vr_tool_place</title>
<polygon fill="#bbdefb" stroke="black" points="1463.5,-689 1310.5,-689 1310.5,-641 1463.5,-641 1463.5,-689"/>
<text text-anchor="start" x="1318.5" y="-678" font-family="Helvetica,sans-Serif" font-weight="bold" font-size="10.00">tool&#45;placement&#45;analysis</text>
<text text-anchor="start" x="1327.5" y="-668" font-family="Helvetica,sans-Serif" font-size="10.00">Universal vs specialized</text>
<text text-anchor="start" x="1342.5" y="-658" font-family="Helvetica,sans-Serif" font-size="10.00">Inheritance&#45;aware</text>
<text text-anchor="start" x="1353" y="-648" font-family="Helvetica,sans-Serif" font-style="italic" font-size="10.00">timeout: 120s</text>
</g>
<!-- vr_val_all&#45;&gt;vr_tool_place -->
<g id="edge26" class="edge">
<title>vr_val_all&#45;&gt;vr_tool_place</title>
<path fill="none" stroke="black" d="M1153.92,-738.88C1198.98,-724.79 1256.68,-706.75 1303.39,-692.14"/>
<polygon fill="black" stroke="black" points="1304.69,-695.41 1313.19,-689.08 1302.6,-688.73 1304.69,-695.41"/>
</g>
<!-- vr_quality -->
<g id="node20" class="node">
<title>vr_quality</title>
<polygon fill="#bbdefb" stroke="black" points="1197,-581 1009,-581 1009,-523 1197,-523 1197,-581"/>
<text text-anchor="start" x="1043.5" y="-570" font-family="Helvetica,sans-Serif" font-weight="bold" font-size="10.00">quality&#45;classification</text>
<text text-anchor="start" x="1050.5" y="-560" font-family="Helvetica,sans-Serif" font-size="10.00">Deterministic scoring</text>
<text text-anchor="start" x="1017" y="-550" font-family="Helvetica,sans-Serif" font-size="10.00">good | polish | needs_work | critical</text>
<text text-anchor="start" x="1044" y="-540" font-family="Helvetica,sans-Serif" font-size="10.00">→ requires_llm_analysis</text>
<text text-anchor="start" x="1072" y="-530" font-family="Helvetica,sans-Serif" font-style="italic" font-size="10.00">timeout: 60s</text>
</g>
<!-- vr_val_all&#45;&gt;vr_quality -->
<g id="edge32" class="edge">
<title>vr_val_all&#45;&gt;vr_quality</title>
<path fill="none" stroke="black" d="M1169.74,-758.65C1275.85,-752.59 1443.02,-735.69 1482,-689 1562.14,-592.99 1345.19,-564.75 1207.24,-556.45"/>
<polygon fill="black" stroke="black" points="1207.22,-552.95 1197.03,-555.87 1206.82,-559.93 1207.22,-552.95"/>
</g>
<!-- vr_hygiene&#45;&gt;vr_quality -->
<g id="edge27" class="edge">
<title>vr_hygiene&#45;&gt;vr_quality</title>
<path fill="none" stroke="black" d="M696.84,-640.93C704.53,-638.04 712.41,-635.3 720,-633 812.7,-604.9 920.96,-583.28 998.69,-569.64"/>
<polygon fill="black" stroke="black" points="999.72,-573.02 1008.97,-567.86 998.52,-566.12 999.72,-573.02"/>
</g>
<!-- vr_standalone&#45;&gt;vr_quality -->
<g id="edge28" class="edge">
<title>vr_standalone&#45;&gt;vr_quality</title>
<path fill="none" stroke="black" d="M877.4,-640.87C919.22,-624.58 975.71,-602.58 1021.7,-584.66"/>
<polygon fill="black" stroke="black" points="1023,-587.91 1031.05,-581.02 1020.46,-581.39 1023,-587.91"/>
</g>
<!-- vr_experiments&#45;&gt;vr_quality -->
<g id="edge29" class="edge">
<title>vr_experiments&#45;&gt;vr_quality</title>
<path fill="none" stroke="black" d="M1028.71,-640.73C1041.29,-625.87 1057.87,-606.29 1072.17,-589.4"/>
<polygon fill="black" stroke="black" points="1075.19,-591.25 1078.98,-581.36 1069.85,-586.73 1075.19,-591.25"/>
</g>
<!-- vr_context_sink&#45;&gt;vr_quality -->
<g id="edge30" class="edge">
<title>vr_context_sink&#45;&gt;vr_quality</title>
<path fill="none" stroke="black" d="M1177.29,-640.73C1164.71,-625.87 1148.13,-606.29 1133.83,-589.4"/>
<polygon fill="black" stroke="black" points="1136.15,-586.73 1127.02,-581.36 1130.81,-591.25 1136.15,-586.73"/>
</g>
<!-- vr_tool_place&#45;&gt;vr_quality -->
<g id="edge31" class="edge">
<title>vr_tool_place&#45;&gt;vr_quality</title>
<path fill="none" stroke="black" d="M1327.81,-640.87C1286.14,-624.58 1229.84,-602.58 1184.01,-584.66"/>
<polygon fill="black" stroke="black" points="1185.28,-581.4 1174.7,-581.02 1182.74,-587.92 1185.28,-581.4"/>
</g>
<!-- vr_init -->
<g id="node21" class="node">
<title>vr_init</title>
<polygon fill="#e0e0e0" stroke="black" points="1185,-463 1021,-463 1021,-415 1185,-415 1185,-463"/>
<text text-anchor="start" x="1029" y="-452" font-family="Helvetica,sans-Serif" font-weight="bold" font-size="10.00">initialize&#45;optional&#45;outputs</text>
<text text-anchor="start" x="1065" y="-442" font-family="Helvetica,sans-Serif" font-size="10.00">Set defaults for</text>
<text text-anchor="start" x="1061" y="-432" font-family="Helvetica,sans-Serif" font-size="10.00">conditional steps</text>
<text text-anchor="start" x="1072" y="-422" font-family="Helvetica,sans-Serif" font-style="italic" font-size="10.00">timeout: 30s</text>
</g>
<!-- vr_quality&#45;&gt;vr_init -->
<g id="edge33" class="edge">
<title>vr_quality&#45;&gt;vr_init</title>
<path fill="none" stroke="black" d="M1103,-522.99C1103,-507.96 1103,-489.34 1103,-473.54"/>
<polygon fill="black" stroke="black" points="1106.5,-473.13 1103,-463.13 1099.5,-473.13 1106.5,-473.13"/>
</g>
<!-- vr_defaults -->
<g id="node22" class="node">
<title>vr_defaults</title>
<polygon fill="#e0e0e0" stroke="black" points="1142.5,-370 1063.5,-370 1063.5,-334 1142.5,-334 1142.5,-370"/>
<text text-anchor="middle" x="1103" y="-355" font-family="Helvetica,sans-Serif" font-size="10.00">set&#45;default&#45;*</text>
<text text-anchor="middle" x="1103" y="-344" font-family="Helvetica,sans-Serif" font-size="10.00">(3 steps)</text>
</g>
<!-- vr_init&#45;&gt;vr_defaults -->
<g id="edge10" class="edge">
<title>vr_init&#45;&gt;vr_defaults</title>
<path fill="none" stroke="black" d="M1103,-414.77C1103,-404.12 1103,-391.42 1103,-380.31"/>
<polygon fill="black" stroke="black" points="1106.5,-380.26 1103,-370.27 1099.5,-380.27 1106.5,-380.26"/>
</g>
<!-- vr_llm_gate -->
<g id="node23" class="node">
<title>vr_llm_gate</title>
<polygon fill="#fff9c4" stroke="black" points="1103,-289 1026,-259 1103,-229 1180,-259 1103,-289"/>
<text text-anchor="middle" x="1103" y="-262" font-family="Helvetica,sans-Serif" font-size="10.00">requires_llm</text>
<text text-anchor="middle" x="1103" y="-251" font-family="Helvetica,sans-Serif" font-size="10.00">analysis?</text>
</g>
<!-- vr_defaults&#45;&gt;vr_llm_gate -->
<g id="edge11" class="edge">
<title>vr_defaults&#45;&gt;vr_llm_gate</title>
<path fill="none" stroke="black" d="M1103,-333.88C1103,-324.17 1103,-311.58 1103,-299.55"/>
<polygon fill="black" stroke="black" points="1106.5,-299.21 1103,-289.21 1099.5,-299.21 1106.5,-299.21"/>
</g>
<!-- vr_quick -->
<g id="node24" class="node">
<title>vr_quick</title>
<polygon fill="#c8e6c9" stroke="black" points="998,-165 894,-165 894,-117 998,-117 998,-165"/>
<text text-anchor="start" x="902.5" y="-154" font-family="Helvetica,sans-Serif" font-weight="bold" font-size="10.00">quick&#45;approval</text>
<text text-anchor="start" x="914" y="-144" font-family="Helvetica,sans-Serif" font-size="10.00">zen&#45;architect</text>
<text text-anchor="start" x="902" y="-134" font-family="Helvetica,sans-Serif" font-size="10.00">Quick PASS report</text>
<text text-anchor="start" x="912" y="-124" font-family="Helvetica,sans-Serif" font-style="italic" font-size="10.00">timeout: 120s</text>
</g>
<!-- vr_llm_gate&#45;&gt;vr_quick -->
<g id="edge12" class="edge">
<title>vr_llm_gate&#45;&gt;vr_quick</title>
<path fill="none" stroke="black" d="M1077.07,-238.84C1052.18,-220.45 1014.24,-192.42 985.57,-171.24"/>
<polygon fill="black" stroke="black" points="987.5,-168.31 977.38,-165.18 983.34,-173.94 987.5,-168.31"/>
<text text-anchor="middle" x="1060.5" y="-199.8" font-family="Helvetica,sans-Serif" font-size="9.00">false</text>
<text text-anchor="middle" x="1060.5" y="-189.8" font-family="Helvetica,sans-Serif" font-size="9.00">(clean repo)</text>
</g>
<!-- vr_composition -->
<g id="node25" class="node">
<title>vr_composition</title>
<polygon fill="#c8e6c9" stroke="black" points="1171.5,-165 1034.5,-165 1034.5,-117 1171.5,-117 1171.5,-165"/>
<text text-anchor="start" x="1042.5" y="-154" font-family="Helvetica,sans-Serif" font-weight="bold" font-size="10.00">composition&#45;analysis</text>
<text text-anchor="start" x="1071" y="-144" font-family="Helvetica,sans-Serif" font-size="10.00">zen&#45;architect</text>
<text text-anchor="start" x="1046" y="-134" font-family="Helvetica,sans-Serif" font-size="10.00">How pieces fit together</text>
<text text-anchor="start" x="1069" y="-124" font-family="Helvetica,sans-Serif" font-style="italic" font-size="10.00">timeout: 300s</text>
</g>
<!-- vr_llm_gate&#45;&gt;vr_composition -->
<g id="edge13" class="edge">
<title>vr_llm_gate&#45;&gt;vr_composition</title>
<path fill="none" stroke="black" d="M1103,-228.73C1103,-212.39 1103,-191.98 1103,-175.06"/>
<polygon fill="black" stroke="black" points="1106.5,-175.05 1103,-165.05 1099.5,-175.05 1106.5,-175.05"/>
<text text-anchor="middle" x="1135" y="-199.8" font-family="Helvetica,sans-Serif" font-size="9.00">true</text>
<text text-anchor="middle" x="1135" y="-189.8" font-family="Helvetica,sans-Serif" font-size="9.00">(issues found)</text>
</g>
<!-- vr_conventions -->
<g id="node26" class="node">
<title>vr_conventions</title>
<polygon fill="#c8e6c9" stroke="black" points="1338.5,-165 1207.5,-165 1207.5,-117 1338.5,-117 1338.5,-165"/>
<text text-anchor="start" x="1223.5" y="-154" font-family="Helvetica,sans-Serif" font-weight="bold" font-size="10.00">repo&#45;conventions</text>
<text text-anchor="start" x="1241" y="-144" font-family="Helvetica,sans-Serif" font-size="10.00">zen&#45;architect</text>
<text text-anchor="start" x="1215.5" y="-134" font-family="Helvetica,sans-Serif" font-size="10.00">Convention compliance</text>
<text text-anchor="start" x="1239" y="-124" font-family="Helvetica,sans-Serif" font-style="italic" font-size="10.00">timeout: 300s</text>
</g>
<!-- vr_llm_gate&#45;&gt;vr_conventions -->
<g id="edge14" class="edge">
<title>vr_llm_gate&#45;&gt;vr_conventions</title>
<path fill="none" stroke="black" d="M1130.31,-239.36C1157.34,-220.92 1199.09,-192.43 1230.46,-171.03"/>
<polygon fill="black" stroke="black" points="1232.73,-173.72 1239.01,-165.19 1228.78,-167.94 1232.73,-173.72"/>
<text text-anchor="middle" x="1212.5" y="-194.8" font-family="Helvetica,sans-Serif" font-size="9.00">true</text>
</g>
<!-- vr_final -->
<g id="node27" class="node">
<title>vr_final</title>
<polygon fill="#a5d6a7" stroke="black" points="1178,-72 1028,-72 1028,-24 1178,-24 1178,-72"/>
<text text-anchor="start" x="1052.5" y="-61" font-family="Helvetica,sans-Serif" font-weight="bold" font-size="10.00">synthesize&#45;report</text>
<text text-anchor="start" x="1071" y="-51" font-family="Helvetica,sans-Serif" font-size="10.00">zen&#45;architect</text>
<text text-anchor="start" x="1036" y="-41" font-family="Helvetica,sans-Serif" font-size="10.00">Final comprehensive report</text>
<text text-anchor="start" x="1069" y="-31" font-family="Helvetica,sans-Serif" font-style="italic" font-size="10.00">timeout: 300s</text>
</g>
<!-- vr_quick&#45;&gt;vr_final -->
<g id="edge17" class="edge">
<title>vr_quick&#45;&gt;vr_final</title>
<path fill="none" stroke="black" d="M986.02,-116.8C1006.78,-104.77 1032.32,-89.97 1054.22,-77.27"/>
<polygon fill="black" stroke="black" points="1056.15,-80.2 1063.05,-72.16 1052.64,-74.14 1056.15,-80.2"/>
</g>
<!-- vr_composition&#45;&gt;vr_final -->
<g id="edge15" class="edge">
<title>vr_composition&#45;&gt;vr_final</title>
<path fill="none" stroke="black" d="M1103,-116.57C1103,-106.08 1103,-93.54 1103,-82.12"/>
<polygon fill="black" stroke="black" points="1106.5,-82.04 1103,-72.04 1099.5,-82.04 1106.5,-82.04"/>
</g>
<!-- vr_conventions&#45;&gt;vr_final -->
<g id="edge16" class="edge">
<title>vr_conventions&#45;&gt;vr_final</title>
<path fill="none" stroke="black" d="M1229.66,-116.8C1206.98,-104.66 1179.05,-89.71 1155.18,-76.93"/>
<polygon fill="black" stroke="black" points="1156.73,-73.79 1146.26,-72.16 1153.42,-79.96 1156.73,-73.79"/>
</g>
<!-- leg_bash -->
<g id="node28" class="node">
<title>leg_bash</title>
<polygon fill="#bbdefb" stroke="black" points="1673,-1374.38 1543,-1374.38 1543,-1352.38 1673,-1352.38 1673,-1374.38"/>
<text text-anchor="middle" x="1608" y="-1361.18" font-family="Helvetica,sans-Serif" font-size="9.00">bash step</text>
</g>
<!-- leg_agent -->
<g id="node29" class="node">
<title>leg_agent</title>
<polygon fill="#c8e6c9" stroke="black" points="1673,-1261.38 1543,-1261.38 1543,-1239.38 1673,-1239.38 1673,-1261.38"/>
<text text-anchor="middle" x="1608" y="-1248.18" font-family="Helvetica,sans-Serif" font-size="9.00">agent step (LLM)</text>
</g>
<!-- leg_bash&#45;&gt;leg_agent -->
<!-- leg_foreach -->
<g id="node30" class="node">
<title>leg_foreach</title>
<polygon fill="#e1bee7" stroke="black" points="1673,-1142.19 1640.5,-1157.09 1575.5,-1157.09 1543,-1142.19 1575.5,-1127.3 1640.5,-1127.3 1673,-1142.19"/>
<text text-anchor="middle" x="1608" y="-1139.99" font-family="Helvetica,sans-Serif" font-size="9.00">foreach loop</text>
</g>
<!-- leg_agent&#45;&gt;leg_foreach -->
<!-- leg_gate -->
<g id="node31" class="node">
<title>leg_gate</title>
<polygon fill="#fff9c4" stroke="black" points="1608,-1012 1526,-994 1608,-976 1690,-994 1608,-1012"/>
<text text-anchor="middle" x="1608" y="-991.8" font-family="Helvetica,sans-Serif" font-size="9.00">condition gate</text>
</g>
<!-- leg_foreach&#45;&gt;leg_gate -->
<!-- leg_default -->
<g id="node32" class="node">
<title>leg_default</title>
<polygon fill="#e0e0e0" stroke="black" points="1673,-887 1543,-887 1543,-865 1673,-865 1673,-887"/>
<text text-anchor="middle" x="1608" y="-873.8" font-family="Helvetica,sans-Serif" font-size="9.00">default/init step</text>
</g>
<!-- leg_gate&#45;&gt;leg_default -->
<!-- leg_final -->
<g id="node33" class="node">
<title>leg_final</title>
<polygon fill="#a5d6a7" stroke="black" points="1673,-774 1543,-774 1543,-752 1673,-752 1673,-774"/>
<text text-anchor="middle" x="1608" y="-760.8" font-family="Helvetica,sans-Serif" font-size="9.00">final output step</text>
</g>
<!-- leg_default&#45;&gt;leg_final -->
</g>
</svg>
