<?xml version="1.0" encoding="UTF-8" standalone="no"?>
<!DOCTYPE svg PUBLIC "-//W3C//DTD SVG 1.1//EN"
 "http://www.w3.org/Graphics/SVG/1.1/DTD/svg11.dtd">
<!-- Generated by graphviz version 2.43.0 (0)
 -->
<!-- Title: ecosystem_composition Pages: 1 -->
<svg width="3305pt" height="1006pt"
 viewBox="0.00 0.00 3304.80 1005.80" xmlns="http://www.w3.org/2000/svg" xmlns:xlink="http://www.w3.org/1999/xlink">
<g id="graph0" class="graph" transform="scale(1 1) rotate(0) translate(50.4 955.4)">
<title>ecosystem_composition</title>
<polygon fill="white" stroke="transparent" points="-50.4,50.4 -50.4,-955.4 3254.4,-955.4 3254.4,50.4 -50.4,50.4"/>
<text text-anchor="start" x="1402.5" y="-890.8" font-family="Helvetica,sans-Serif" font-weight="bold" font-size="14.00">dot&#45;graph Bundle — Ecosystem Composition Model</text>
<text text-anchor="start" x="1347.5" y="-876.8" font-family="Helvetica,sans-Serif" font-size="14.00"> &#160;&#160;&#160;&#160;&#160;&#160;&#160;&#160;&#160;&#160;</text>
<text text-anchor="start" x="1397.5" y="-876.8" font-family="Helvetica,sans-Serif" font-size="11.00">How the behavior propagates capabilities · Context sink pattern · Bundle hierarchy</text>
<g id="clust1" class="cluster">
<title>cluster_dot_graph_bundle</title>
<path fill="#e3f2fd" stroke="#1565c0" stroke-width="3" d="M20,-440.34C20,-440.34 860,-440.34 860,-440.34 866,-440.34 872,-446.34 872,-452.34 872,-452.34 872,-848.5 872,-848.5 872,-854.5 866,-860.5 860,-860.5 860,-860.5 20,-860.5 20,-860.5 14,-860.5 8,-854.5 8,-848.5 8,-848.5 8,-452.34 8,-452.34 8,-446.34 14,-440.34 20,-440.34"/>
<text text-anchor="start" x="333" y="-846.3" font-family="Helvetica,sans-Serif" font-weight="bold" font-size="14.00">amplifier&#45;bundle&#45;dot&#45;graph</text>
<text text-anchor="start" x="294.5" y="-832.3" font-family="Helvetica,sans-Serif" font-size="14.00"> &#160;&#160;&#160;&#160;&#160;&#160;&#160;&#160;&#160;&#160;&#160;&#160;&#160;&#160;</text>
<text text-anchor="start" x="362.5" y="-832.3" font-family="Helvetica,sans-Serif" font-size="9.00">github.com/microsoft/amplifier&#45;bundle&#45;dot&#45;graph</text>
</g>
<g id="clust2" class="cluster">
<title>cluster_dg_behavior</title>
<path fill="#bbdefb" stroke="#1976d2" stroke-width="3" d="M652,-645C652,-645 852,-645 852,-645 858,-645 864,-651 864,-657 864,-657 864,-709 864,-709 864,-715 858,-721 852,-721 852,-721 652,-721 652,-721 646,-721 640,-715 640,-709 640,-709 640,-657 640,-657 640,-651 646,-645 652,-645"/>
<text text-anchor="start" x="650" y="-706.8" font-family="Helvetica,sans-Serif" font-weight="bold" font-size="14.00">behaviors/dot&#45;graph.yaml</text>
</g>
<g id="clust3" class="cluster">
<title>cluster_dg_caps</title>
<path fill="#e1f5fe" stroke="#0288d1" stroke-width="3" d="M28,-448.34C28,-448.34 852,-448.34 852,-448.34 858,-448.34 864,-454.34 864,-460.34 864,-460.34 864,-527.66 864,-527.66 864,-533.66 858,-539.66 852,-539.66 852,-539.66 28,-539.66 28,-539.66 22,-539.66 16,-533.66 16,-527.66 16,-527.66 16,-460.34 16,-460.34 16,-454.34 22,-448.34 28,-448.34"/>
<text text-anchor="start" x="354" y="-525.46" font-family="Helvetica,sans-Serif" font-weight="bold" font-size="14.00">Capabilities (shipped)</text>
</g>
<g id="clust4" class="cluster">
<title>cluster_consumers</title>
<path fill="#f3e5f5" stroke="#6a1b9a" stroke-width="2" d="M892,-439C892,-439 2384,-439 2384,-439 2390,-439 2396,-445 2396,-451 2396,-451 2396,-577.5 2396,-577.5 2396,-583.5 2390,-589.5 2384,-589.5 2384,-589.5 892,-589.5 892,-589.5 886,-589.5 880,-583.5 880,-577.5 880,-577.5 880,-451 880,-451 880,-445 886,-439 892,-439"/>
<text text-anchor="start" x="1477.5" y="-575.3" font-family="Helvetica,sans-Serif" font-weight="bold" font-size="14.00">Bundles That Include dot&#45;graph behavior</text>
</g>
<g id="clust5" class="cluster">
<title>cluster_foundation</title>
<path fill="#ede7f6" stroke="#7b1fa2" stroke-width="2" d="M900,-455.5C900,-455.5 1324,-455.5 1324,-455.5 1330,-455.5 1336,-461.5 1336,-467.5 1336,-467.5 1336,-533.5 1336,-533.5 1336,-539.5 1330,-545.5 1324,-545.5 1324,-545.5 900,-545.5 900,-545.5 894,-545.5 888,-539.5 888,-533.5 888,-533.5 888,-467.5 888,-467.5 888,-461.5 894,-455.5 900,-455.5"/>
<text text-anchor="start" x="1031" y="-531.3" font-family="Helvetica,sans-Serif" font-weight="bold" font-size="14.00">amplifier&#45;foundation</text>
<text text-anchor="start" x="1020.5" y="-517.3" font-family="Helvetica,sans-Serif" font-size="14.00"> &#160;&#160;&#160;&#160;&#160;&#160;&#160;&#160;&#160;&#160;&#160;&#160;&#160;&#160;&#160;&#160;&#160;&#160;</text>
<text text-anchor="start" x="1106.5" y="-517.3" font-family="Helvetica,sans-Serif" font-size="9.00">Core platform bundle</text>
</g>
<g id="clust6" class="cluster">
<title>cluster_dgbundle</title>
<path fill="#fce4ec" stroke="#ad1457" stroke-width="2" d="M1372,-451.5C1372,-451.5 1808,-451.5 1808,-451.5 1814,-451.5 1820,-457.5 1820,-463.5 1820,-463.5 1820,-546.5 1820,-546.5 1820,-552.5 1814,-558.5 1808,-558.5 1808,-558.5 1372,-558.5 1372,-558.5 1366,-558.5 1360,-552.5 1360,-546.5 1360,-546.5 1360,-463.5 1360,-463.5 1360,-457.5 1366,-451.5 1372,-451.5"/>
<text text-anchor="start" x="1521" y="-544.3" font-family="Helvetica,sans-Serif" font-weight="bold" font-size="14.00">dot&#45;graph&#45;bundle</text>
<text text-anchor="start" x="1486.5" y="-530.3" font-family="Helvetica,sans-Serif" font-size="14.00"> &#160;&#160;&#160;&#160;&#160;&#160;&#160;&#160;&#160;&#160;&#160;&#160;&#160;&#160;&#160;&#160;&#160;&#160;</text>
<text text-anchor="start" x="1572.5" y="-530.3" font-family="Helvetica,sans-Serif" font-size="9.00">Development environment</text>
<text text-anchor="start" x="1553.5" y="-520.3" font-family="Helvetica,sans-Serif" font-size="9.00">(this repository)</text>
</g>
<g id="clust7" class="cluster">
<title>cluster_team_bundle</title>
<path fill="#e0f2f1" stroke="#00695c" stroke-width="2" stroke-dasharray="5,2" d="M1855,-447C1855,-447 2376,-447 2376,-447 2382,-447 2388,-453 2388,-459 2388,-459 2388,-542 2388,-542 2388,-548 2382,-554 2376,-554 2376,-554 1855,-554 1855,-554 1849,-554 1843,-548 1843,-542 1843,-542 1843,-459 1843,-459 1843,-453 1849,-447 1855,-447"/>
<text text-anchor="start" x="2044.5" y="-539.8" font-family="Helvetica,sans-Serif" font-weight="bold" font-size="14.00">your&#45;team&#45;bundle</text>
<text text-anchor="start" x="2002" y="-525.8" font-family="Helvetica,sans-Serif" font-size="14.00"> &#160;&#160;&#160;&#160;&#160;&#160;&#160;&#160;&#160;&#160;&#160;&#160;&#160;&#160;&#160;&#160;&#160;&#160;</text>
<text text-anchor="start" x="2088" y="-525.8" font-family="Helvetica,sans-Serif" font-size="9.00">Example: any team adopting it</text>
</g>
<g id="clust8" class="cluster">
<title>cluster_context_sink</title>
<path fill="#fff3e0" stroke="#e65100" stroke-width="2" d="M2422,-451.5C2422,-451.5 2672,-451.5 2672,-451.5 2678,-451.5 2684,-457.5 2684,-463.5 2684,-463.5 2684,-849 2684,-849 2684,-855 2678,-861 2672,-861 2672,-861 2422,-861 2422,-861 2416,-861 2410,-855 2410,-849 2410,-849 2410,-463.5 2410,-463.5 2410,-457.5 2416,-451.5 2422,-451.5"/>
<text text-anchor="start" x="2465" y="-846.8" font-family="Helvetica,sans-Serif" font-weight="bold" font-size="14.00">Context Sink Pattern</text>
<text text-anchor="start" x="2418" y="-832.8" font-family="Helvetica,sans-Serif" font-size="14.00"> &#160;&#160;&#160;&#160;&#160;&#160;&#160;&#160;&#160;&#160;&#160;&#160;&#160;&#160;</text>
<text text-anchor="start" x="2486" y="-832.8" font-family="Helvetica,sans-Serif" font-size="9.00">How dot&#45;awareness reaches every session</text>
</g>
<g id="clust9" class="cluster">
<title>cluster_adoption</title>
<path fill="#fafafa" stroke="#607d8b" d="M2709,-348C2709,-348 2901,-348 2901,-348 2907,-348 2913,-354 2913,-360 2913,-360 2913,-835.5 2913,-835.5 2913,-841.5 2907,-847.5 2901,-847.5 2901,-847.5 2709,-847.5 2709,-847.5 2703,-847.5 2697,-841.5 2697,-835.5 2697,-835.5 2697,-360 2697,-360 2697,-354 2703,-348 2709,-348"/>
<text text-anchor="start" x="2749" y="-833.3" font-family="Helvetica,sans-Serif" font-weight="bold" font-size="14.00">Adoption Path</text>
</g>
<g id="clust10" class="cluster">
<title>cluster_legend</title>
<path fill="#fafafa" stroke="#9e9e9e" d="M3062,-8C3062,-8 3184,-8 3184,-8 3190,-8 3196,-14 3196,-20 3196,-20 3196,-824.5 3196,-824.5 3196,-830.5 3190,-836.5 3184,-836.5 3184,-836.5 3062,-836.5 3062,-836.5 3056,-836.5 3050,-830.5 3050,-824.5 3050,-824.5 3050,-20 3050,-20 3050,-14 3056,-8 3062,-8"/>
<text text-anchor="start" x="3102" y="-825.5" font-family="Helvetica,sans-Serif" font-weight="bold" font-size="10.00">Legend</text>
</g>
<!-- dg_bundle -->
<g id="node1" class="node">
<title>dg_bundle</title>
<polygon fill="#bbdefb" stroke="#1565c0" points="846.5,-816.5 669.5,-816.5 669.5,-820.5 657.5,-820.5 657.5,-780.5 846.5,-780.5 846.5,-816.5"/>
<polyline fill="none" stroke="#1565c0" points="657.5,-816.5 669.5,-816.5 "/>
<text text-anchor="start" x="721.5" y="-801.5" font-family="Helvetica,sans-Serif" font-weight="bold" font-size="10.00">bundle.md</text>
<text text-anchor="start" x="665.5" y="-791.5" font-family="Helvetica,sans-Serif" font-size="10.00"> &#160;&#160;&#160;&#160;&#160;&#160;&#160;&#160;&#160;&#160;&#160;&#160;&#160;&#160;&#160;&#160;&#160;&#160;&#160;</text>
<text text-anchor="start" x="726.5" y="-791.5" font-family="Helvetica,sans-Serif" font-size="9.00">name: dot&#45;graph &#160;v0.1.0</text>
</g>
<!-- dg_behavior -->
<g id="node2" class="node">
<title>dg_behavior</title>
<polygon fill="#90caf9" stroke="#1565c0" points="856,-690 648,-690 648,-686 644,-686 644,-682 648,-682 648,-661 644,-661 644,-657 648,-657 648,-653 856,-653 856,-690"/>
<polyline fill="none" stroke="#1565c0" points="648,-686 652,-686 652,-682 648,-682 "/>
<polyline fill="none" stroke="#1565c0" points="648,-661 652,-661 652,-657 648,-657 "/>
<text text-anchor="start" x="696" y="-679" font-family="Helvetica,sans-Serif" font-weight="bold" font-size="10.00">dot&#45;graph behavior</text>
<text text-anchor="start" x="673" y="-669" font-family="Helvetica,sans-Serif" font-size="10.00"> &#160;&#160;&#160;&#160;&#160;&#160;&#160;&#160;&#160;&#160;&#160;&#160;&#160;&#160;&#160;&#160;&#160;&#160;&#160;&#160;&#160;&#160;&#160;&#160;&#160;</text>
<text text-anchor="start" x="752" y="-669" font-family="Helvetica,sans-Serif" font-size="9.00">Composable unit:</text>
<text text-anchor="start" x="656" y="-659.8" font-family="Helvetica,sans-Serif" font-size="9.00"> &#160;&#160;&#160;&#160;&#160;&#160;&#160;&#160;&#160;&#160;&#160;&#160;&#160;&#160;&#160;&#160;&#160;&#160;&#160;&#160;&#160;&#160;&#160;&#160;&#160;agents + tools + context</text>
</g>
<!-- dg_bundle&#45;&gt;dg_behavior -->
<g id="edge1" class="edge">
<title>dg_bundle&#45;&gt;dg_behavior</title>
<path fill="none" stroke="#1565c0" d="M752,-780.38C752,-759.76 752,-724.85 752,-700.34"/>
<polygon fill="#1565c0" stroke="#1565c0" points="755.5,-700.22 752,-690.22 748.5,-700.22 755.5,-700.22"/>
<text text-anchor="middle" x="771" y="-736.8" font-family="Helvetica,sans-Serif" font-size="9.00">includes</text>
</g>
<!-- cap_author -->
<g id="node3" class="node">
<title>cap_author</title>
<path fill="#ffe0b2" stroke="#e65100" d="M843.5,-500.5C843.5,-500.5 790.5,-500.5 790.5,-500.5 784.5,-500.5 778.5,-494.5 778.5,-488.5 778.5,-488.5 778.5,-476.5 778.5,-476.5 778.5,-470.5 784.5,-464.5 790.5,-464.5 790.5,-464.5 843.5,-464.5 843.5,-464.5 849.5,-464.5 855.5,-470.5 855.5,-476.5 855.5,-476.5 855.5,-488.5 855.5,-488.5 855.5,-494.5 849.5,-500.5 843.5,-500.5"/>
<text text-anchor="start" x="786.5" y="-485" font-family="Helvetica,sans-Serif" font-weight="bold" font-size="10.00">dot&#45;author</text>
<text text-anchor="start" x="803" y="-475.8" font-family="Helvetica,sans-Serif" font-size="9.00">Agent</text>
</g>
<!-- dg_behavior&#45;&gt;cap_author -->
<g id="edge2" class="edge">
<title>dg_behavior&#45;&gt;cap_author</title>
<path fill="none" stroke="#e65100" stroke-dasharray="5,2" d="M758.12,-652.91C769.55,-620.02 794.21,-549.06 807.71,-510.23"/>
<polygon fill="#e65100" stroke="#e65100" points="811.07,-511.23 811.04,-500.64 804.45,-508.94 811.07,-511.23"/>
</g>
<!-- cap_reviewer -->
<g id="node4" class="node">
<title>cap_reviewer</title>
<path fill="#ffccbc" stroke="#bf360c" d="M131.5,-500.5C131.5,-500.5 36.5,-500.5 36.5,-500.5 30.5,-500.5 24.5,-494.5 24.5,-488.5 24.5,-488.5 24.5,-476.5 24.5,-476.5 24.5,-470.5 30.5,-464.5 36.5,-464.5 36.5,-464.5 131.5,-464.5 131.5,-464.5 137.5,-464.5 143.5,-470.5 143.5,-476.5 143.5,-476.5 143.5,-488.5 143.5,-488.5 143.5,-494.5 137.5,-500.5 131.5,-500.5"/>
<text text-anchor="start" x="32.5" y="-485" font-family="Helvetica,sans-Serif" font-weight="bold" font-size="10.00">diagram&#45;reviewer</text>
<text text-anchor="start" x="70" y="-475.8" font-family="Helvetica,sans-Serif" font-size="9.00">Agent</text>
</g>
<!-- dg_behavior&#45;&gt;cap_reviewer -->
<g id="edge3" class="edge">
<title>dg_behavior&#45;&gt;cap_reviewer</title>
<path fill="none" stroke="#bf360c" stroke-dasharray="5,2" d="M647.93,-665.8C501.33,-657.57 242.93,-636.71 163,-589.5 131.77,-571.06 108.99,-534.99 96.13,-510.09"/>
<polygon fill="#bf360c" stroke="#bf360c" points="99.12,-508.23 91.54,-500.83 92.85,-511.34 99.12,-508.23"/>
</g>
<!-- cap_tools -->
<g id="node5" class="node">
<title>cap_tools</title>
<ellipse fill="#c8e6c9" stroke="#2e7d32" cx="297" cy="-482.5" rx="113.69" ry="26.33"/>
<text text-anchor="start" x="224.5" y="-490" font-family="Helvetica,sans-Serif" font-weight="bold" font-size="10.00">dot_validate · dot_render</text>
<text text-anchor="start" x="229.5" y="-480" font-family="Helvetica,sans-Serif" font-weight="bold" font-size="10.00">dot_setup · dot_analyze</text>
<text text-anchor="start" x="266" y="-470.8" font-family="Helvetica,sans-Serif" font-size="9.00">Tool functions</text>
</g>
<!-- dg_behavior&#45;&gt;cap_tools -->
<g id="edge4" class="edge">
<title>dg_behavior&#45;&gt;cap_tools</title>
<path fill="none" stroke="#2e7d32" stroke-dasharray="5,2" d="M647.65,-655.86C582.62,-643.97 498.58,-623.45 430,-589.5 391.63,-570.51 354.06,-539.02 328.69,-515.29"/>
<polygon fill="#2e7d32" stroke="#2e7d32" points="330.88,-512.55 321.22,-508.2 326.06,-517.62 330.88,-512.55"/>
</g>
<!-- cap_awareness -->
<g id="node6" class="node">
<title>cap_awareness</title>
<polygon fill="#b2ebf2" stroke="#0097a7" points="569.5,-500.5 450.5,-500.5 450.5,-464.5 575.5,-464.5 575.5,-494.5 569.5,-500.5"/>
<polyline fill="none" stroke="#0097a7" points="569.5,-500.5 569.5,-494.5 "/>
<polyline fill="none" stroke="#0097a7" points="575.5,-494.5 569.5,-494.5 "/>
<text text-anchor="start" x="460" y="-485" font-family="Helvetica,sans-Serif" font-weight="bold" font-size="10.00">dot&#45;awareness.md</text>
<text text-anchor="start" x="458.5" y="-475.8" font-family="Helvetica,sans-Serif" font-size="9.00">Context (always loaded)</text>
</g>
<!-- dg_behavior&#45;&gt;cap_awareness -->
<g id="edge5" class="edge">
<title>dg_behavior&#45;&gt;cap_awareness</title>
<path fill="none" stroke="#0097a7" stroke-dasharray="5,2" d="M706.24,-652.93C673.38,-638.91 629.23,-617.08 596,-589.5 568.21,-566.44 543.74,-532.61 528.69,-509.4"/>
<polygon fill="#0097a7" stroke="#0097a7" points="531.53,-507.34 523.22,-500.78 525.62,-511.09 531.53,-507.34"/>
</g>
<!-- cap_skills -->
<g id="node7" class="node">
<title>cap_skills</title>
<polygon fill="#e3f2fd" stroke="#1976d2" points="738,-500.5 628,-500.5 628,-504.5 616,-504.5 616,-464.5 738,-464.5 738,-500.5"/>
<polyline fill="none" stroke="#1976d2" points="616,-500.5 628,-500.5 "/>
<text text-anchor="start" x="656.5" y="-485" font-family="Helvetica,sans-Serif" font-weight="bold" font-size="10.00">5 skills</text>
<text text-anchor="start" x="624" y="-475.8" font-family="Helvetica,sans-Serif" font-size="9.00">On&#45;demand knowledge</text>
</g>
<!-- dg_behavior&#45;&gt;cap_skills -->
<g id="edge6" class="edge">
<title>dg_behavior&#45;&gt;cap_skills</title>
<path fill="none" stroke="#1976d2" stroke-dasharray="5,2" d="M744.94,-652.91C731.76,-620.02 703.3,-549.06 687.72,-510.23"/>
<polygon fill="#1976d2" stroke="#1976d2" points="690.84,-508.62 683.87,-500.64 684.35,-511.22 690.84,-508.62"/>
</g>
<!-- found_agents -->
<g id="node9" class="node">
<title>found_agents</title>
<path fill="#ce93d8" stroke="black" d="M1072,-501.5C1072,-501.5 908,-501.5 908,-501.5 902,-501.5 896,-495.5 896,-489.5 896,-489.5 896,-475.5 896,-475.5 896,-469.5 902,-463.5 908,-463.5 908,-463.5 1072,-463.5 1072,-463.5 1078,-463.5 1084,-469.5 1084,-475.5 1084,-475.5 1084,-489.5 1084,-489.5 1084,-495.5 1078,-501.5 1072,-501.5"/>
<text text-anchor="start" x="952.5" y="-490.5" font-family="Helvetica,sans-Serif" font-weight="bold" font-size="10.00">zen&#45;architect</text>
<text text-anchor="start" x="953.5" y="-480.5" font-family="Helvetica,sans-Serif" font-weight="bold" font-size="10.00">code&#45;analyst</text>
<text text-anchor="start" x="904" y="-470.5" font-family="Helvetica,sans-Serif" font-size="10.00"> &#160;&#160;&#160;&#160;&#160;&#160;&#160;&#160;&#160;&#160;&#160;&#160;&#160;&#160;&#160;&#160;&#160;&#160;&#160;&#160;&#160;&#160;&#160;&#160;&#160;&#160;</text>
<text text-anchor="start" x="986" y="-470.5" font-family="Helvetica,sans-Serif" font-size="9.00">+ dot&#45;graph agents</text>
</g>
<!-- dg_behavior&#45;&gt;found_agents -->
<g id="edge10" class="edge">
<title>dg_behavior&#45;&gt;found_agents</title>
<path fill="none" stroke="#7b1fa2" stroke-dasharray="5,2" d="M781.22,-652.88C806.49,-637.23 843.65,-613.21 874,-589.5 906.83,-563.85 941.78,-531.07 964.63,-508.81"/>
<polygon fill="#7b1fa2" stroke="#7b1fa2" points="967.2,-511.18 971.9,-501.68 962.3,-506.18 967.2,-511.18"/>
<text text-anchor="middle" x="873" y="-605.3" font-family="Helvetica,sans-Serif" font-size="9.00">adds</text>
</g>
<!-- dgb_session -->
<g id="node11" class="node">
<title>dgb_session</title>
<path fill="#f48fb1" stroke="black" d="M1799.5,-505.5C1799.5,-505.5 1608.5,-505.5 1608.5,-505.5 1602.5,-505.5 1596.5,-499.5 1596.5,-493.5 1596.5,-493.5 1596.5,-471.5 1596.5,-471.5 1596.5,-465.5 1602.5,-459.5 1608.5,-459.5 1608.5,-459.5 1799.5,-459.5 1799.5,-459.5 1805.5,-459.5 1811.5,-465.5 1811.5,-471.5 1811.5,-471.5 1811.5,-493.5 1811.5,-493.5 1811.5,-499.5 1805.5,-505.5 1799.5,-505.5"/>
<text text-anchor="start" x="1663" y="-494.5" font-family="Helvetica,sans-Serif" font-weight="bold" font-size="10.00">Active session</text>
<text text-anchor="start" x="1619" y="-484.5" font-family="Helvetica,sans-Serif" font-size="10.00"> &#160;&#160;&#160;&#160;&#160;&#160;&#160;&#160;&#160;&#160;&#160;&#160;&#160;&#160;&#160;&#160;&#160;&#160;&#160;&#160;&#160;&#160;&#160;&#160;&#160;</text>
<text text-anchor="start" x="1698" y="-484.5" font-family="Helvetica,sans-Serif" font-size="9.00">dot&#45;author available</text>
<text text-anchor="start" x="1604.5" y="-475.3" font-family="Helvetica,sans-Serif" font-size="9.00"> &#160;&#160;&#160;&#160;&#160;&#160;&#160;&#160;&#160;&#160;&#160;&#160;&#160;&#160;&#160;&#160;&#160;&#160;&#160;&#160;&#160;&#160;&#160;&#160;&#160;diagram&#45;reviewer available</text>
<text text-anchor="start" x="1608" y="-466.3" font-family="Helvetica,sans-Serif" font-size="9.00"> &#160;&#160;&#160;&#160;&#160;&#160;&#160;&#160;&#160;&#160;&#160;&#160;&#160;&#160;&#160;&#160;&#160;&#160;&#160;&#160;&#160;&#160;&#160;&#160;&#160;dot_validate · dot_render</text>
</g>
<!-- dg_behavior&#45;&gt;dgb_session -->
<g id="edge11" class="edge">
<title>dg_behavior&#45;&gt;dgb_session</title>
<path fill="none" stroke="#ad1457" stroke-dasharray="5,2" d="M856.07,-668.58C1048.12,-663.67 1450.12,-646.7 1576,-589.5 1615.76,-571.43 1653.24,-537.68 1677.25,-513.1"/>
<polygon fill="#ad1457" stroke="#ad1457" points="1679.86,-515.44 1684.25,-505.8 1674.8,-510.59 1679.86,-515.44"/>
<text text-anchor="middle" x="1565" y="-605.3" font-family="Helvetica,sans-Serif" font-size="9.00">adds</text>
</g>
<!-- team_gain -->
<g id="node13" class="node">
<title>team_gain</title>
<path fill="#a5d6a7" stroke="black" d="M2367.5,-510C2367.5,-510 2182.5,-510 2182.5,-510 2176.5,-510 2170.5,-504 2170.5,-498 2170.5,-498 2170.5,-467 2170.5,-467 2170.5,-461 2176.5,-455 2182.5,-455 2182.5,-455 2367.5,-455 2367.5,-455 2373.5,-455 2379.5,-461 2379.5,-467 2379.5,-467 2379.5,-498 2379.5,-498 2379.5,-504 2373.5,-510 2367.5,-510"/>
<text text-anchor="start" x="2257" y="-499" font-family="Helvetica,sans-Serif" font-weight="bold" font-size="10.00">Gains:</text>
<text text-anchor="start" x="2183.5" y="-489" font-family="Helvetica,sans-Serif" font-size="10.00"> &#160;&#160;&#160;&#160;&#160;&#160;&#160;&#160;&#160;&#160;&#160;&#160;&#160;&#160;&#160;&#160;&#160;&#160;&#160;&#160;&#160;&#160;&#160;&#160;&#160;</text>
<text text-anchor="start" x="2262.5" y="-489" font-family="Helvetica,sans-Serif" font-size="9.00">• DOT authoring agent</text>
<text text-anchor="start" x="2185" y="-479.8" font-family="Helvetica,sans-Serif" font-size="9.00"> &#160;&#160;&#160;&#160;&#160;&#160;&#160;&#160;&#160;&#160;&#160;&#160;&#160;&#160;&#160;&#160;&#160;&#160;&#160;&#160;&#160;&#160;&#160;&#160;&#160;• Quality review agent</text>
<text text-anchor="start" x="2199.5" y="-470.8" font-family="Helvetica,sans-Serif" font-size="9.00"> &#160;&#160;&#160;&#160;&#160;&#160;&#160;&#160;&#160;&#160;&#160;&#160;&#160;&#160;&#160;&#160;&#160;&#160;&#160;&#160;&#160;&#160;&#160;&#160;&#160;• Graphviz tools</text>
<text text-anchor="start" x="2178.5" y="-461.8" font-family="Helvetica,sans-Serif" font-size="9.00"> &#160;&#160;&#160;&#160;&#160;&#160;&#160;&#160;&#160;&#160;&#160;&#160;&#160;&#160;&#160;&#160;&#160;&#160;&#160;&#160;&#160;&#160;&#160;&#160;&#160;• DOT awareness context</text>
</g>
<!-- dg_behavior&#45;&gt;team_gain -->
<g id="edge12" class="edge">
<title>dg_behavior&#45;&gt;team_gain</title>
<path fill="none" stroke="#00695c" stroke-dasharray="5,2" d="M856.36,-666.99C1051.33,-660.09 1484.1,-643.16 1848,-617.5 1982.46,-608.02 2025.73,-641.73 2150,-589.5 2187.8,-573.61 2222.65,-542.03 2245.89,-517.45"/>
<polygon fill="#00695c" stroke="#00695c" points="2248.5,-519.79 2252.72,-510.07 2243.36,-515.03 2248.5,-519.79"/>
<text text-anchor="middle" x="2140" y="-605.3" font-family="Helvetica,sans-Serif" font-size="9.00">adds</text>
</g>
<!-- sink_dot_ctx -->
<g id="node15" class="node">
<title>sink_dot_ctx</title>
<polygon fill="#fff9c4" stroke="#f57f17" points="2658,-694.5 2430,-694.5 2430,-648.5 2664,-648.5 2664,-688.5 2658,-694.5"/>
<polyline fill="none" stroke="#f57f17" points="2658,-694.5 2658,-688.5 "/>
<polyline fill="none" stroke="#f57f17" points="2664,-688.5 2658,-688.5 "/>
<text text-anchor="start" x="2494" y="-683.5" font-family="Helvetica,sans-Serif" font-weight="bold" font-size="10.00">dot&#45;awareness.md</text>
<text text-anchor="start" x="2446.5" y="-673.5" font-family="Helvetica,sans-Serif" font-size="10.00"> &#160;&#160;&#160;&#160;&#160;&#160;&#160;&#160;&#160;&#160;&#160;&#160;&#160;&#160;&#160;&#160;&#160;&#160;&#160;&#160;&#160;&#160;</text>
<text text-anchor="start" x="2516.5" y="-673.5" font-family="Helvetica,sans-Serif" font-size="9.00">Injected via behavior include</text>
<text text-anchor="start" x="2441" y="-664.3" font-family="Helvetica,sans-Serif" font-size="9.00"> &#160;&#160;&#160;&#160;&#160;&#160;&#160;&#160;&#160;&#160;&#160;&#160;&#160;&#160;&#160;&#160;&#160;&#160;&#160;&#160;&#160;&#160;Every session knows DOT exists</text>
<text text-anchor="start" x="2438" y="-655.3" font-family="Helvetica,sans-Serif" font-size="9.00"> &#160;&#160;&#160;&#160;&#160;&#160;&#160;&#160;&#160;&#160;&#160;&#160;&#160;&#160;&#160;&#160;&#160;&#160;&#160;&#160;&#160;&#160;Delegates to dot&#45;author/reviewer</text>
</g>
<!-- cap_awareness&#45;&gt;sink_dot_ctx -->
<g id="edge16" class="edge">
<title>cap_awareness&#45;&gt;sink_dot_ctx</title>
<path fill="none" stroke="#90a4ae" stroke-dasharray="1,5" d="M520.41,-500.67C532.25,-525.61 558,-570.9 596,-589.5 608.52,-595.63 2594.16,-587.62 2604,-597.5 2617.46,-611.01 2606.21,-627.67 2590.27,-641.66"/>
<polygon fill="#90a4ae" stroke="#90a4ae" points="2587.68,-639.25 2582.15,-648.29 2592.11,-644.68 2587.68,-639.25"/>
<text text-anchor="middle" x="2630.5" y="-605.3" font-family="Helvetica,sans-Serif" font-size="9.00">same file</text>
</g>
<!-- found_bundle -->
<g id="node8" class="node">
<title>found_bundle</title>
<polygon fill="#d1c4e9" stroke="#6a1b9a" points="1328,-501 1136,-501 1136,-505 1124,-505 1124,-464 1328,-464 1328,-501"/>
<polyline fill="none" stroke="#6a1b9a" points="1124,-501 1136,-501 "/>
<text text-anchor="start" x="1174" y="-490" font-family="Helvetica,sans-Serif" font-weight="bold" font-size="10.00">foundation bundle</text>
<text text-anchor="start" x="1132" y="-480" font-family="Helvetica,sans-Serif" font-size="10.00"> &#160;&#160;&#160;&#160;&#160;&#160;&#160;&#160;&#160;&#160;&#160;&#160;&#160;&#160;&#160;&#160;&#160;&#160;&#160;&#160;&#160;&#160;&#160;&#160;&#160;&#160;</text>
<text text-anchor="start" x="1214" y="-480" font-family="Helvetica,sans-Serif" font-size="9.00">Orchestration · Recipes</text>
<text text-anchor="start" x="1146.5" y="-470.8" font-family="Helvetica,sans-Serif" font-size="9.00"> &#160;&#160;&#160;&#160;&#160;&#160;&#160;&#160;&#160;&#160;&#160;&#160;&#160;&#160;&#160;&#160;&#160;&#160;&#160;&#160;&#160;&#160;&#160;&#160;&#160;&#160;Validation agents</text>
</g>
<!-- found_bundle&#45;&gt;dg_behavior -->
<g id="edge7" class="edge">
<title>found_bundle&#45;&gt;dg_behavior</title>
<path fill="none" stroke="#7b1fa2" stroke-width="2" d="M1210.96,-501.12C1189.64,-524.93 1148.26,-566.97 1104,-589.5 1029.67,-627.33 937.57,-647.71 866.22,-658.57"/>
<polygon fill="#7b1fa2" stroke="#7b1fa2" stroke-width="2" points="873.06,-653.55 864,-659.04 874.51,-660.4 873.06,-653.55"/>
<text text-anchor="middle" x="1106" y="-605.3" font-family="Helvetica,sans-Serif" font-size="9.00">includes</text>
</g>
<!-- dgb_bundle -->
<g id="node10" class="node">
<title>dgb_bundle</title>
<polygon fill="#f8bbd9" stroke="#ad1457" points="1556,-501 1380,-501 1380,-505 1368,-505 1368,-464 1556,-464 1556,-501"/>
<polyline fill="none" stroke="#ad1457" points="1368,-501 1380,-501 "/>
<text text-anchor="start" x="1396" y="-490" font-family="Helvetica,sans-Serif" font-weight="bold" font-size="10.00">amplifier&#45;dev behavior</text>
<text text-anchor="start" x="1376" y="-480" font-family="Helvetica,sans-Serif" font-size="10.00"> &#160;&#160;&#160;&#160;&#160;&#160;&#160;&#160;&#160;&#160;&#160;&#160;&#160;&#160;&#160;&#160;&#160;&#160;&#160;&#160;&#160;&#160;&#160;&#160;</text>
<text text-anchor="start" x="1452" y="-480" font-family="Helvetica,sans-Serif" font-size="9.00">Full dev environment</text>
<text text-anchor="start" x="1379" y="-470.8" font-family="Helvetica,sans-Serif" font-size="9.00"> &#160;&#160;&#160;&#160;&#160;&#160;&#160;&#160;&#160;&#160;&#160;&#160;&#160;&#160;&#160;&#160;&#160;&#160;&#160;&#160;&#160;&#160;&#160;&#160;Includes foundation</text>
</g>
<!-- dgb_bundle&#45;&gt;dg_behavior -->
<g id="edge8" class="edge">
<title>dgb_bundle&#45;&gt;dg_behavior</title>
<path fill="none" stroke="#ad1457" stroke-width="2" d="M1448.5,-501.29C1428.88,-525.7 1389.98,-568.91 1346,-589.5 1263.19,-628.28 1014.22,-651.98 866.19,-663.04"/>
<polygon fill="#ad1457" stroke="#ad1457" stroke-width="2" points="872.35,-657.26 864,-663.78 874.59,-663.89 872.35,-657.26"/>
<text text-anchor="middle" x="1357.5" y="-610.3" font-family="Helvetica,sans-Serif" font-size="9.00">includes</text>
<text text-anchor="middle" x="1357.5" y="-600.3" font-family="Helvetica,sans-Serif" font-size="9.00">(via foundation)</text>
</g>
<!-- team_bundle -->
<g id="node12" class="node">
<title>team_bundle</title>
<polygon fill="#b2dfdb" stroke="#00695c" points="2130.5,-500.5 1863.5,-500.5 1863.5,-504.5 1851.5,-504.5 1851.5,-464.5 2130.5,-464.5 2130.5,-500.5"/>
<polyline fill="none" stroke="#00695c" points="1851.5,-500.5 1863.5,-500.5 "/>
<text text-anchor="start" x="1960.5" y="-485.5" font-family="Helvetica,sans-Serif" font-weight="bold" font-size="10.00">bundle.md</text>
<text text-anchor="start" x="1859.5" y="-475.5" font-family="Helvetica,sans-Serif" font-size="10.00"> &#160;&#160;&#160;&#160;&#160;&#160;&#160;&#160;&#160;&#160;&#160;&#160;&#160;&#160;&#160;&#160;&#160;&#160;&#160;&#160;&#160;&#160;&#160;&#160;&#160;</text>
<text text-anchor="start" x="1938.5" y="-475.5" font-family="Helvetica,sans-Serif" font-size="9.00">includes: dot&#45;graph:behaviors/dot&#45;graph</text>
</g>
<!-- team_bundle&#45;&gt;dg_behavior -->
<g id="edge9" class="edge">
<title>team_bundle&#45;&gt;dg_behavior</title>
<path fill="none" stroke="#00695c" stroke-width="2" stroke-dasharray="5,2" d="M1971.83,-500.54C1943.22,-524.89 1886.62,-568.94 1830,-589.5 1655.43,-652.88 1106.51,-666.67 866.37,-669.67"/>
<polygon fill="#00695c" stroke="#00695c" stroke-width="2" points="873.81,-665.78 864,-669.79 874.17,-672.77 873.81,-665.78"/>
<text text-anchor="middle" x="1819" y="-605.3" font-family="Helvetica,sans-Serif" font-size="9.00">includes</text>
</g>
<!-- adopt_add_bundle -->
<g id="node17" class="node">
<title>adopt_add_bundle</title>
<path fill="#f5f5f5" stroke="#607d8b" d="M2893,-816.5C2893,-816.5 2717,-816.5 2717,-816.5 2711,-816.5 2705,-810.5 2705,-804.5 2705,-804.5 2705,-792.5 2705,-792.5 2705,-786.5 2711,-780.5 2717,-780.5 2717,-780.5 2893,-780.5 2893,-780.5 2899,-780.5 2905,-786.5 2905,-792.5 2905,-792.5 2905,-804.5 2905,-804.5 2905,-810.5 2899,-816.5 2893,-816.5"/>
<text text-anchor="start" x="2786.5" y="-805.5" font-family="Helvetica,sans-Serif" font-weight="bold" font-size="10.00">Step 1</text>
<text text-anchor="start" x="2762" y="-796.3" font-family="Helvetica,sans-Serif" font-size="9.00">Add to bundle.md:</text>
<text text-anchor="start" x="2713" y="-787.3" font-family="Helvetica,sans-Serif" font-style="italic" font-size="9.00">includes: dot&#45;graph:behaviors/dot&#45;graph</text>
</g>
<!-- team_bundle&#45;&gt;adopt_add_bundle -->
<g id="edge15" class="edge">
<title>team_bundle&#45;&gt;adopt_add_bundle</title>
<path fill="none" stroke="#607d8b" stroke-dasharray="1,5" d="M2009.18,-500.87C2036.92,-526.07 2092.66,-571.68 2150,-589.5 2178.86,-598.47 2664.01,-593.76 2694,-597.5 2784.66,-608.79 2837.35,-573.32 2894,-645 2914.94,-671.5 2908.09,-690.3 2894,-721 2883.75,-743.32 2863.42,-761.58 2844.78,-774.66"/>
<polygon fill="#607d8b" stroke="#607d8b" points="2842.73,-771.82 2836.37,-780.3 2846.63,-777.63 2842.73,-771.82"/>
<text text-anchor="middle" x="2939" y="-674.3" font-family="Helvetica,sans-Serif" font-size="9.00"> &#160;follow</text>
<text text-anchor="middle" x="2939" y="-664.3" font-family="Helvetica,sans-Serif" font-size="9.00">adoption path</text>
</g>
<!-- sink_root -->
<g id="node14" class="node">
<title>sink_root</title>
<polygon fill="#ffe0b2" stroke="black" points="2648.5,-817 2445.5,-817 2445.5,-813 2441.5,-813 2441.5,-809 2445.5,-809 2445.5,-788 2441.5,-788 2441.5,-784 2445.5,-784 2445.5,-780 2648.5,-780 2648.5,-817"/>
<polyline fill="none" stroke="black" points="2445.5,-813 2449.5,-813 2449.5,-809 2445.5,-809 "/>
<polyline fill="none" stroke="black" points="2445.5,-788 2449.5,-788 2449.5,-784 2445.5,-784 "/>
<text text-anchor="start" x="2507" y="-806" font-family="Helvetica,sans-Serif" font-weight="bold" font-size="10.00">Root behavior</text>
<text text-anchor="start" x="2453.5" y="-796" font-family="Helvetica,sans-Serif" font-size="10.00"> &#160;&#160;&#160;&#160;&#160;&#160;&#160;&#160;&#160;&#160;&#160;&#160;&#160;&#160;&#160;&#160;&#160;&#160;&#160;</text>
<text text-anchor="start" x="2514.5" y="-796" font-family="Helvetica,sans-Serif" font-size="9.00">Always&#45;loaded base context</text>
<text text-anchor="start" x="2465.5" y="-786.8" font-family="Helvetica,sans-Serif" font-size="9.00"> &#160;&#160;&#160;&#160;&#160;&#160;&#160;&#160;&#160;&#160;&#160;&#160;&#160;&#160;&#160;&#160;&#160;&#160;&#160;e.g. amplifier&#45;dev.yaml</text>
</g>
<!-- sink_root&#45;&gt;sink_dot_ctx -->
<g id="edge13" class="edge">
<title>sink_root&#45;&gt;sink_dot_ctx</title>
<path fill="none" stroke="#e65100" stroke-width="2" d="M2547,-779.86C2547,-760.39 2547,-728.66 2547,-704.74"/>
<polygon fill="#e65100" stroke="#e65100" stroke-width="2" points="2550.5,-704.69 2547,-694.69 2543.5,-704.69 2550.5,-704.69"/>
<text text-anchor="middle" x="2587" y="-741.8" font-family="Helvetica,sans-Serif" font-size="9.00">behavior includes</text>
<text text-anchor="middle" x="2587" y="-731.8" font-family="Helvetica,sans-Serif" font-size="9.00">context file</text>
</g>
<!-- sink_agent_ctx -->
<g id="node16" class="node">
<title>sink_agent_ctx</title>
<path fill="#ffccbc" stroke="black" d="M2662,-505.5C2662,-505.5 2432,-505.5 2432,-505.5 2426,-505.5 2420,-499.5 2420,-493.5 2420,-493.5 2420,-471.5 2420,-471.5 2420,-465.5 2426,-459.5 2432,-459.5 2432,-459.5 2662,-459.5 2662,-459.5 2668,-459.5 2674,-465.5 2674,-471.5 2674,-471.5 2674,-493.5 2674,-493.5 2674,-499.5 2668,-505.5 2662,-505.5"/>
<text text-anchor="start" x="2504.5" y="-494.5" font-family="Helvetica,sans-Serif" font-weight="bold" font-size="10.00">Agent sessions</text>
<text text-anchor="start" x="2432" y="-484.5" font-family="Helvetica,sans-Serif" font-size="10.00"> &#160;&#160;&#160;&#160;&#160;&#160;&#160;&#160;&#160;&#160;&#160;&#160;&#160;&#160;&#160;&#160;&#160;&#160;&#160;&#160;&#160;&#160;&#160;&#160;</text>
<text text-anchor="start" x="2508" y="-484.5" font-family="Helvetica,sans-Serif" font-size="9.00">dot&#45;author loads skills on demand</text>
<text text-anchor="start" x="2428" y="-475.3" font-family="Helvetica,sans-Serif" font-size="9.00"> &#160;&#160;&#160;&#160;&#160;&#160;&#160;&#160;&#160;&#160;&#160;&#160;&#160;&#160;&#160;&#160;&#160;&#160;&#160;&#160;&#160;&#160;&#160;&#160;diagram&#45;reviewer loads quality docs</text>
<text text-anchor="start" x="2448.5" y="-466.3" font-family="Helvetica,sans-Serif" font-size="9.00"> &#160;&#160;&#160;&#160;&#160;&#160;&#160;&#160;&#160;&#160;&#160;&#160;&#160;&#160;&#160;&#160;&#160;&#160;&#160;&#160;&#160;&#160;&#160;&#160;Context only when needed</text>
</g>
<!-- sink_dot_ctx&#45;&gt;sink_agent_ctx -->
<g id="edge14" class="edge">
<title>sink_dot_ctx&#45;&gt;sink_agent_ctx</title>
<path fill="none" stroke="#f57f17" stroke-dasharray="5,2" d="M2544.44,-648.36C2543.47,-638.87 2542.48,-627.66 2542,-617.5 2540.37,-582.81 2542.34,-543.04 2544.26,-515.89"/>
<polygon fill="#f57f17" stroke="#f57f17" points="2547.76,-516.03 2545.02,-505.79 2540.78,-515.5 2547.76,-516.03"/>
<text text-anchor="middle" x="2570" y="-610.3" font-family="Helvetica,sans-Serif" font-size="9.00">delegates to</text>
<text text-anchor="middle" x="2570" y="-600.3" font-family="Helvetica,sans-Serif" font-size="9.00">agents</text>
</g>
<!-- adopt_loads_context -->
<g id="node18" class="node">
<title>adopt_loads_context</title>
<path fill="#f5f5f5" stroke="#607d8b" d="M2861.5,-689.5C2861.5,-689.5 2748.5,-689.5 2748.5,-689.5 2742.5,-689.5 2736.5,-683.5 2736.5,-677.5 2736.5,-677.5 2736.5,-665.5 2736.5,-665.5 2736.5,-659.5 2742.5,-653.5 2748.5,-653.5 2748.5,-653.5 2861.5,-653.5 2861.5,-653.5 2867.5,-653.5 2873.5,-659.5 2873.5,-665.5 2873.5,-665.5 2873.5,-677.5 2873.5,-677.5 2873.5,-683.5 2867.5,-689.5 2861.5,-689.5"/>
<text text-anchor="start" x="2786.5" y="-678.5" font-family="Helvetica,sans-Serif" font-weight="bold" font-size="10.00">Step 2</text>
<text text-anchor="start" x="2762.5" y="-669.3" font-family="Helvetica,sans-Serif" font-size="9.00">Session auto&#45;loads</text>
<text text-anchor="start" x="2744.5" y="-660.3" font-family="Helvetica,sans-Serif" font-size="9.00">dot&#45;awareness.md context</text>
</g>
<!-- adopt_add_bundle&#45;&gt;adopt_loads_context -->
<g id="edge17" class="edge">
<title>adopt_add_bundle&#45;&gt;adopt_loads_context</title>
<path fill="none" stroke="#555555" stroke-width="2" d="M2805,-780.38C2805,-759.65 2805,-724.45 2805,-699.92"/>
<polygon fill="#555555" stroke="#555555" stroke-width="2" points="2808.5,-699.81 2805,-689.81 2801.5,-699.81 2808.5,-699.81"/>
</g>
<!-- adopt_delegate_authoring -->
<g id="node19" class="node">
<title>adopt_delegate_authoring</title>
<path fill="#ffe0b2" stroke="#e65100" d="M2855.5,-500.5C2855.5,-500.5 2754.5,-500.5 2754.5,-500.5 2748.5,-500.5 2742.5,-494.5 2742.5,-488.5 2742.5,-488.5 2742.5,-476.5 2742.5,-476.5 2742.5,-470.5 2748.5,-464.5 2754.5,-464.5 2754.5,-464.5 2855.5,-464.5 2855.5,-464.5 2861.5,-464.5 2867.5,-470.5 2867.5,-476.5 2867.5,-476.5 2867.5,-488.5 2867.5,-488.5 2867.5,-494.5 2861.5,-500.5 2855.5,-500.5"/>
<text text-anchor="start" x="2786.5" y="-489.5" font-family="Helvetica,sans-Serif" font-weight="bold" font-size="10.00">Step 3</text>
<text text-anchor="start" x="2750.5" y="-480.3" font-family="Helvetica,sans-Serif" font-size="9.00">Delegate DOT authoring</text>
<text text-anchor="start" x="2760" y="-471.3" font-family="Helvetica,sans-Serif" font-size="9.00">to dot&#45;author agent</text>
</g>
<!-- adopt_loads_context&#45;&gt;adopt_delegate_authoring -->
<g id="edge18" class="edge">
<title>adopt_loads_context&#45;&gt;adopt_delegate_authoring</title>
<path fill="none" stroke="#555555" stroke-width="2" d="M2805,-653.24C2805,-620.68 2805,-549.94 2805,-510.85"/>
<polygon fill="#555555" stroke="#555555" stroke-width="2" points="2808.5,-510.72 2805,-500.72 2801.5,-510.72 2808.5,-510.72"/>
</g>
<!-- adopt_review_quality -->
<g id="node20" class="node">
<title>adopt_review_quality</title>
<path fill="#ffccbc" stroke="#bf360c" d="M2855.5,-392C2855.5,-392 2754.5,-392 2754.5,-392 2748.5,-392 2742.5,-386 2742.5,-380 2742.5,-380 2742.5,-368 2742.5,-368 2742.5,-362 2748.5,-356 2754.5,-356 2754.5,-356 2855.5,-356 2855.5,-356 2861.5,-356 2867.5,-362 2867.5,-368 2867.5,-368 2867.5,-380 2867.5,-380 2867.5,-386 2861.5,-392 2855.5,-392"/>
<text text-anchor="start" x="2786.5" y="-381" font-family="Helvetica,sans-Serif" font-weight="bold" font-size="10.00">Step 4</text>
<text text-anchor="start" x="2777.5" y="-371.8" font-family="Helvetica,sans-Serif" font-size="9.00">Review with</text>
<text text-anchor="start" x="2750.5" y="-362.8" font-family="Helvetica,sans-Serif" font-size="9.00">diagram&#45;reviewer agent</text>
</g>
<!-- adopt_delegate_authoring&#45;&gt;adopt_review_quality -->
<g id="edge19" class="edge">
<title>adopt_delegate_authoring&#45;&gt;adopt_review_quality</title>
<path fill="none" stroke="#555555" stroke-width="2" d="M2805,-464.39C2805,-447.62 2805,-421.8 2805,-402.21"/>
<polygon fill="#555555" stroke="#555555" stroke-width="2" points="2808.5,-402.07 2805,-392.07 2801.5,-402.07 2808.5,-402.07"/>
</g>
<!-- l_bundle -->
<g id="node21" class="node">
<title>l_bundle</title>
<polygon fill="#d1c4e9" stroke="black" points="3188,-809.5 3065.33,-809.5 3065.33,-811.94 3058,-811.94 3058,-787.5 3188,-787.5 3188,-809.5"/>
<polyline fill="none" stroke="black" points="3058,-809.5 3065.33,-809.5 "/>
<text text-anchor="middle" x="3123" y="-796.3" font-family="Helvetica,sans-Serif" font-size="9.00">Bundle manifest</text>
</g>
<!-- l_behav -->
<g id="node22" class="node">
<title>l_behav</title>
<polygon fill="#90caf9" stroke="black" points="3188,-682.5 3058,-682.5 3058,-680.06 3055.56,-680.06 3055.56,-677.61 3058,-677.61 3058,-665.39 3055.56,-665.39 3055.56,-662.94 3058,-662.94 3058,-660.5 3188,-660.5 3188,-682.5"/>
<polyline fill="none" stroke="black" points="3058,-680.06 3060.44,-680.06 3060.44,-677.61 3058,-677.61 "/>
<polyline fill="none" stroke="black" points="3058,-665.39 3060.44,-665.39 3060.44,-662.94 3058,-662.94 "/>
<text text-anchor="middle" x="3123" y="-669.3" font-family="Helvetica,sans-Serif" font-size="9.00">Behavior (wiring unit)</text>
</g>
<!-- l_bundle&#45;&gt;l_behav -->
<!-- l_agent -->
<g id="node23" class="node">
<title>l_agent</title>
<path fill="#ffe0b2" stroke="black" d="M3180.67,-493.5C3180.67,-493.5 3065.33,-493.5 3065.33,-493.5 3061.67,-493.5 3058,-489.83 3058,-486.17 3058,-486.17 3058,-478.83 3058,-478.83 3058,-475.17 3061.67,-471.5 3065.33,-471.5 3065.33,-471.5 3180.67,-471.5 3180.67,-471.5 3184.33,-471.5 3188,-475.17 3188,-478.83 3188,-478.83 3188,-486.17 3188,-486.17 3188,-489.83 3184.33,-493.5 3180.67,-493.5"/>
<text text-anchor="middle" x="3123" y="-480.3" font-family="Helvetica,sans-Serif" font-size="9.00">Agent (delegatable)</text>
</g>
<!-- l_behav&#45;&gt;l_agent -->
<!-- l_tool -->
<g id="node24" class="node">
<title>l_tool</title>
<ellipse fill="#c8e6c9" stroke="black" cx="3123" cy="-374" rx="65" ry="12.96"/>
<text text-anchor="middle" x="3123" y="-371.8" font-family="Helvetica,sans-Serif" font-size="9.00">Tool functions</text>
</g>
<!-- l_agent&#45;&gt;l_tool -->
<!-- l_ctx -->
<g id="node25" class="node">
<title>l_ctx</title>
<polygon fill="#b2ebf2" stroke="black" points="3184.33,-293 3058,-293 3058,-271 3188,-271 3188,-289.33 3184.33,-293"/>
<polyline fill="none" stroke="black" points="3184.33,-293 3184.33,-289.33 "/>
<polyline fill="none" stroke="black" points="3188,-289.33 3184.33,-289.33 "/>
<text text-anchor="middle" x="3123" y="-279.8" font-family="Helvetica,sans-Serif" font-size="9.00">Context / awareness</text>
</g>
<!-- l_tool&#45;&gt;l_ctx -->
<!-- l_solid -->
<g id="node26" class="node">
<title>l_solid</title>
<polygon fill="white" stroke="transparent" points="3188,-208 3058,-208 3058,-186 3188,-186 3188,-208"/>
<text text-anchor="middle" x="3123" y="-194.8" font-family="Helvetica,sans-Serif" font-size="9.00">Hard include</text>
</g>
<!-- l_ctx&#45;&gt;l_solid -->
<!-- l_dashed -->
<g id="node27" class="node">
<title>l_dashed</title>
<polygon fill="white" stroke="transparent" points="3188,-123 3058,-123 3058,-101 3188,-101 3188,-123"/>
<text text-anchor="middle" x="3123" y="-109.8" font-family="Helvetica,sans-Serif" font-size="9.00">Soft reference / gain</text>
</g>
<!-- l_solid&#45;&gt;l_dashed -->
<!-- l_dotted -->
<g id="node28" class="node">
<title>l_dotted</title>
<polygon fill="white" stroke="transparent" points="3188,-38 3058,-38 3058,-16 3188,-16 3188,-38"/>
<text text-anchor="middle" x="3123" y="-24.8" font-family="Helvetica,sans-Serif" font-size="9.00">Cross&#45;ref / annotation</text>
</g>
<!-- l_dashed&#45;&gt;l_dotted -->
</g>
</svg>
